<svg width="483" height="102" viewBox="0 0 483 102" fill="none" xmlns="http://www.w3.org/2000/svg">
<mask id="path-1-outside-1_3_13" maskUnits="userSpaceOnUse" x="-0.864014" y="-0.0159912" width="484" height="102" fill="black">
<rect fill="white" x="-0.864014" y="-0.0159912" width="484" height="102"/>
<path d="M0.999987 27.752V25.32H10.728V27.752H0.999987ZM0.999987 32.616V30.184H20.456V32.616H0.999987ZM10.728 37.48V35.048H30.184V37.48H10.728ZM20.456 42.344V39.912H39.912V42.344H20.456ZM30.184 47.208V44.776H49.64V47.208H30.184ZM39.912 52.072V49.64H59.368V52.072H39.912ZM49.64 56.936V54.504H59.368V56.936H49.64ZM39.912 61.8V59.368H59.368V61.8H39.912ZM30.184 66.664V64.232H49.64V66.664H30.184ZM20.456 71.528V69.096H39.912V71.528H20.456ZM10.728 76.392V73.96H30.184V76.392H10.728ZM0.999987 81.256V78.824H20.456V81.256H0.999987ZM0.999987 86.12V83.688H10.728V86.12H0.999987ZM253.7 95.848V93.416H312.068V95.848H253.7ZM253.7 100.712V98.28H312.068V100.712H253.7ZM330.785 3.43201V1.00001H359.969V3.43201H330.785ZM321.057 8.29601V5.86401H374.561V8.29601H321.057ZM316.193 13.16V10.728H330.785V13.16H316.193ZM364.833 13.16V10.728H379.425V13.16H364.833ZM369.697 18.024V15.592H379.425V18.024H369.697ZM316.193 18.024V15.592H325.921V18.024H316.193ZM311.329 22.888V20.456H321.057V22.888H311.329ZM374.561 22.888V20.456H384.289V22.888H374.561ZM374.561 27.752V25.32H384.289V27.752H374.561ZM311.329 27.752V25.32H321.057V27.752H311.329ZM374.561 32.616V30.184H384.289V32.616H374.561ZM306.465 32.616V30.184H316.193V32.616H306.465ZM306.465 37.48V35.048H316.193V37.48H306.465ZM306.465 42.344V39.912H316.193V42.344H306.465ZM306.465 47.208V44.776H316.193V47.208H306.465ZM306.465 52.072V49.64H316.193V52.072H306.465ZM306.465 56.936V54.504H316.193V56.936H306.465ZM306.465 61.8V59.368H316.193V61.8H306.465ZM374.561 61.8V59.368H384.289V61.8H374.561ZM311.329 66.664V64.232H321.057V66.664H311.329ZM374.561 66.664V64.232H384.289V66.664H374.561ZM311.329 71.528V69.096H321.057V71.528H311.329ZM374.561 71.528V69.096H384.289V71.528H374.561ZM369.697 76.392V73.96H379.425V76.392H369.697ZM316.193 76.392V73.96H325.921V76.392H316.193ZM364.833 81.256V78.824H379.425V81.256H364.833ZM316.193 81.256V78.824H330.785V81.256H316.193ZM321.057 86.12V83.688H374.561V86.12H321.057ZM330.785 90.984V88.552H359.969V90.984H330.785ZM398.829 3.43201V1.00001H408.557V3.43201H398.829ZM398.829 8.29601V5.86401H408.557V8.29601H398.829ZM398.829 13.16V10.728H408.557V13.16H398.829ZM398.829 18.024V15.592H408.557V18.024H398.829ZM398.829 22.888V20.456H408.557V22.888H398.829ZM398.829 27.752V25.32H408.557V27.752H398.829ZM398.829 32.616V30.184H408.557V32.616H398.829ZM398.829 37.48V35.048H408.557V37.48H398.829ZM398.829 42.344V39.912H408.557V42.344H398.829ZM398.829 47.208V44.776H408.557V47.208H398.829ZM398.829 52.072V49.64H408.557V52.072H398.829ZM398.829 56.936V54.504H408.557V56.936H398.829ZM398.829 61.8V59.368H408.557V61.8H398.829ZM398.829 66.664V64.232H408.557V66.664H398.829ZM398.829 71.528V69.096H408.557V71.528H398.829ZM398.829 76.392V73.96H408.557V76.392H398.829ZM398.829 81.256V78.824H408.557V81.256H398.829ZM398.829 86.12V83.688H408.557V86.12H398.829ZM398.829 90.984V88.552H408.557V90.984H398.829ZM447.41 27.752V25.32H471.73V27.752H447.41ZM427.954 27.752V25.32H437.682V27.752H427.954ZM442.546 32.616V30.184H476.594V32.616H442.546ZM427.954 32.616V30.184H437.682V32.616H427.954ZM466.866 37.48V35.048H481.458V37.48H466.866ZM427.954 37.48V35.048H442.546V37.48H427.954ZM471.73 42.344V39.912H481.458V42.344H471.73ZM427.954 42.344V39.912H437.682V42.344H427.954ZM471.73 47.208V44.776H481.458V47.208H471.73ZM427.954 47.208V44.776H437.682V47.208H427.954ZM471.73 52.072V49.64H481.458V52.072H471.73ZM427.954 52.072V49.64H437.682V52.072H427.954ZM427.954 56.936V54.504H437.682V56.936H427.954ZM471.73 56.936V54.504H481.458V56.936H471.73ZM427.954 61.8V59.368H437.682V61.8H427.954ZM471.73 61.8V59.368H481.458V61.8H471.73ZM427.954 66.664V64.232H437.682V66.664H427.954ZM471.73 66.664V64.232H481.458V66.664H471.73ZM471.73 71.528V69.096H481.458V71.528H471.73ZM427.954 71.528V69.096H437.682V71.528H427.954ZM471.73 76.392V73.96H481.458V76.392H471.73ZM427.954 76.392V73.96H437.682V76.392H427.954ZM471.73 81.256V78.824H481.458V81.256H471.73ZM427.954 81.256V78.824H437.682V81.256H427.954ZM471.73 86.12V83.688H481.458V86.12H471.73ZM427.954 86.12V83.688H437.682V86.12H427.954ZM471.73 90.984V88.552H481.458V90.984H471.73ZM427.954 90.984V88.552H437.682V90.984H427.954Z"/>
<path d="M93.189 3.43201V1.00001H136.965V3.43201H93.189ZM93.189 8.29601V5.86401H146.693V8.29601H93.189ZM136.965 13.16V10.728H151.557V13.16H136.965ZM93.189 13.16V10.728H102.917V13.16H93.189ZM141.829 18.024V15.592H151.557V18.024H141.829ZM93.189 18.024V15.592H102.917V18.024H93.189ZM146.693 22.888V20.456H156.421V22.888H146.693ZM93.189 22.888V20.456H102.917V22.888H93.189ZM93.189 27.752V25.32H102.917V27.752H93.189ZM146.693 27.752V25.32H156.421V27.752H146.693ZM151.557 32.616V30.184H161.285V32.616H151.557ZM93.189 32.616V30.184H102.917V32.616H93.189ZM93.189 37.48V35.048H102.917V37.48H93.189ZM151.557 37.48V35.048H161.285V37.48H151.557ZM93.189 42.344V39.912H102.917V42.344H93.189ZM151.557 42.344V39.912H161.285V42.344H151.557ZM151.557 47.208V44.776H161.285V47.208H151.557ZM93.189 47.208V44.776H102.917V47.208H93.189ZM93.189 52.072V49.64H102.917V52.072H93.189ZM151.557 52.072V49.64H161.285V52.072H151.557ZM151.557 56.936V54.504H161.285V56.936H151.557ZM93.189 56.936V54.504H102.917V56.936H93.189ZM151.557 61.8V59.368H161.285V61.8H151.557ZM93.189 61.8V59.368H102.917V61.8H93.189ZM146.693 66.664V64.232H156.421V66.664H146.693ZM93.189 66.664V64.232H102.917V66.664H93.189ZM146.693 71.528V69.096H156.421V71.528H146.693ZM93.189 71.528V69.096H102.917V71.528H93.189ZM141.829 76.392V73.96H151.557V76.392H141.829ZM93.189 76.392V73.96H102.917V76.392H93.189ZM93.189 81.256V78.824H102.917V81.256H93.189ZM136.965 81.256V78.824H151.557V81.256H136.965ZM93.189 86.12V83.688H146.693V86.12H93.189ZM93.189 90.984V88.552H136.965V90.984H93.189ZM205.009 3.43201V1.00001H214.737V3.43201H205.009ZM205.009 8.29601V5.86401H214.737V8.29601H205.009ZM200.145 13.16V10.728H219.601V13.16H200.145ZM200.145 18.024V15.592H219.601V18.024H200.145ZM195.281 22.888V20.456H205.009V22.888H195.281ZM214.737 22.888V20.456H224.465V22.888H214.737ZM195.281 27.752V25.32H205.009V27.752H195.281ZM214.737 27.752V25.32H224.465V27.752H214.737ZM214.737 32.616V30.184H224.465V32.616H214.737ZM195.281 32.616V30.184H205.009V32.616H195.281ZM190.417 37.48V35.048H200.145V37.48H190.417ZM219.601 37.48V35.048H229.329V37.48H219.601ZM190.417 42.344V39.912H200.145V42.344H190.417ZM219.601 42.344V39.912H229.329V42.344H219.601ZM190.417 47.208V44.776H200.145V47.208H190.417ZM219.601 47.208V44.776H229.329V47.208H219.601ZM224.465 52.072V49.64H234.193V52.072H224.465ZM185.553 52.072V49.64H195.281V52.072H185.553ZM185.553 56.936V54.504H234.193V56.936H185.553ZM185.553 61.8V59.368H234.193V61.8H185.553ZM180.689 66.664V64.232H190.417V66.664H180.689ZM229.329 66.664V64.232H239.057V66.664H229.329ZM229.329 71.528V69.096H239.057V71.528H229.329ZM180.689 71.528V69.096H190.417V71.528H180.689ZM180.689 76.392V73.96H190.417V76.392H180.689ZM229.329 76.392V73.96H239.057V76.392H229.329ZM175.825 81.256V78.824H185.553V81.256H175.825ZM234.193 81.256V78.824H243.921V81.256H234.193ZM234.193 86.12V83.688H243.921V86.12H234.193ZM175.825 86.12V83.688H185.553V86.12H175.825ZM234.193 90.984V88.552H243.921V90.984H234.193ZM175.825 90.984V88.552H185.553V90.984H175.825Z"/>
</mask>
<path d="M0.999987 27.752V25.32H10.728V27.752H0.999987ZM0.999987 32.616V30.184H20.456V32.616H0.999987ZM10.728 37.48V35.048H30.184V37.48H10.728ZM20.456 42.344V39.912H39.912V42.344H20.456ZM30.184 47.208V44.776H49.64V47.208H30.184ZM39.912 52.072V49.64H59.368V52.072H39.912ZM49.64 56.936V54.504H59.368V56.936H49.64ZM39.912 61.8V59.368H59.368V61.8H39.912ZM30.184 66.664V64.232H49.64V66.664H30.184ZM20.456 71.528V69.096H39.912V71.528H20.456ZM10.728 76.392V73.96H30.184V76.392H10.728ZM0.999987 81.256V78.824H20.456V81.256H0.999987ZM0.999987 86.12V83.688H10.728V86.12H0.999987ZM253.7 95.848V93.416H312.068V95.848H253.7ZM253.7 100.712V98.28H312.068V100.712H253.7ZM330.785 3.43201V1.00001H359.969V3.43201H330.785ZM321.057 8.29601V5.86401H374.561V8.29601H321.057ZM316.193 13.16V10.728H330.785V13.16H316.193ZM364.833 13.16V10.728H379.425V13.16H364.833ZM369.697 18.024V15.592H379.425V18.024H369.697ZM316.193 18.024V15.592H325.921V18.024H316.193ZM311.329 22.888V20.456H321.057V22.888H311.329ZM374.561 22.888V20.456H384.289V22.888H374.561ZM374.561 27.752V25.32H384.289V27.752H374.561ZM311.329 27.752V25.32H321.057V27.752H311.329ZM374.561 32.616V30.184H384.289V32.616H374.561ZM306.465 32.616V30.184H316.193V32.616H306.465ZM306.465 37.48V35.048H316.193V37.48H306.465ZM306.465 42.344V39.912H316.193V42.344H306.465ZM306.465 47.208V44.776H316.193V47.208H306.465ZM306.465 52.072V49.64H316.193V52.072H306.465ZM306.465 56.936V54.504H316.193V56.936H306.465ZM306.465 61.8V59.368H316.193V61.8H306.465ZM374.561 61.8V59.368H384.289V61.8H374.561ZM311.329 66.664V64.232H321.057V66.664H311.329ZM374.561 66.664V64.232H384.289V66.664H374.561ZM311.329 71.528V69.096H321.057V71.528H311.329ZM374.561 71.528V69.096H384.289V71.528H374.561ZM369.697 76.392V73.96H379.425V76.392H369.697ZM316.193 76.392V73.96H325.921V76.392H316.193ZM364.833 81.256V78.824H379.425V81.256H364.833ZM316.193 81.256V78.824H330.785V81.256H316.193ZM321.057 86.12V83.688H374.561V86.12H321.057ZM330.785 90.984V88.552H359.969V90.984H330.785ZM398.829 3.43201V1.00001H408.557V3.43201H398.829ZM398.829 8.29601V5.86401H408.557V8.29601H398.829ZM398.829 13.16V10.728H408.557V13.16H398.829ZM398.829 18.024V15.592H408.557V18.024H398.829ZM398.829 22.888V20.456H408.557V22.888H398.829ZM398.829 27.752V25.32H408.557V27.752H398.829ZM398.829 32.616V30.184H408.557V32.616H398.829ZM398.829 37.48V35.048H408.557V37.48H398.829ZM398.829 42.344V39.912H408.557V42.344H398.829ZM398.829 47.208V44.776H408.557V47.208H398.829ZM398.829 52.072V49.64H408.557V52.072H398.829ZM398.829 56.936V54.504H408.557V56.936H398.829ZM398.829 61.8V59.368H408.557V61.8H398.829ZM398.829 66.664V64.232H408.557V66.664H398.829ZM398.829 71.528V69.096H408.557V71.528H398.829ZM398.829 76.392V73.96H408.557V76.392H398.829ZM398.829 81.256V78.824H408.557V81.256H398.829ZM398.829 86.12V83.688H408.557V86.12H398.829ZM398.829 90.984V88.552H408.557V90.984H398.829ZM447.41 27.752V25.32H471.73V27.752H447.41ZM427.954 27.752V25.32H437.682V27.752H427.954ZM442.546 32.616V30.184H476.594V32.616H442.546ZM427.954 32.616V30.184H437.682V32.616H427.954ZM466.866 37.48V35.048H481.458V37.48H466.866ZM427.954 37.48V35.048H442.546V37.48H427.954ZM471.73 42.344V39.912H481.458V42.344H471.73ZM427.954 42.344V39.912H437.682V42.344H427.954ZM471.73 47.208V44.776H481.458V47.208H471.73ZM427.954 47.208V44.776H437.682V47.208H427.954ZM471.73 52.072V49.64H481.458V52.072H471.73ZM427.954 52.072V49.64H437.682V52.072H427.954ZM427.954 56.936V54.504H437.682V56.936H427.954ZM471.73 56.936V54.504H481.458V56.936H471.73ZM427.954 61.8V59.368H437.682V61.8H427.954ZM471.73 61.8V59.368H481.458V61.8H471.73ZM427.954 66.664V64.232H437.682V66.664H427.954ZM471.73 66.664V64.232H481.458V66.664H471.73ZM471.73 71.528V69.096H481.458V71.528H471.73ZM427.954 71.528V69.096H437.682V71.528H427.954ZM471.73 76.392V73.96H481.458V76.392H471.73ZM427.954 76.392V73.96H437.682V76.392H427.954ZM471.73 81.256V78.824H481.458V81.256H471.73ZM427.954 81.256V78.824H437.682V81.256H427.954ZM471.73 86.12V83.688H481.458V86.12H471.73ZM427.954 86.12V83.688H437.682V86.12H427.954ZM471.73 90.984V88.552H481.458V90.984H471.73ZM427.954 90.984V88.552H437.682V90.984H427.954Z" fill="#DB1E2F"/>
<path d="M93.189 3.43201V1.00001H136.965V3.43201H93.189ZM93.189 8.29601V5.86401H146.693V8.29601H93.189ZM136.965 13.16V10.728H151.557V13.16H136.965ZM93.189 13.16V10.728H102.917V13.16H93.189ZM141.829 18.024V15.592H151.557V18.024H141.829ZM93.189 18.024V15.592H102.917V18.024H93.189ZM146.693 22.888V20.456H156.421V22.888H146.693ZM93.189 22.888V20.456H102.917V22.888H93.189ZM93.189 27.752V25.32H102.917V27.752H93.189ZM146.693 27.752V25.32H156.421V27.752H146.693ZM151.557 32.616V30.184H161.285V32.616H151.557ZM93.189 32.616V30.184H102.917V32.616H93.189ZM93.189 37.48V35.048H102.917V37.48H93.189ZM151.557 37.48V35.048H161.285V37.48H151.557ZM93.189 42.344V39.912H102.917V42.344H93.189ZM151.557 42.344V39.912H161.285V42.344H151.557ZM151.557 47.208V44.776H161.285V47.208H151.557ZM93.189 47.208V44.776H102.917V47.208H93.189ZM93.189 52.072V49.64H102.917V52.072H93.189ZM151.557 52.072V49.64H161.285V52.072H151.557ZM151.557 56.936V54.504H161.285V56.936H151.557ZM93.189 56.936V54.504H102.917V56.936H93.189ZM151.557 61.8V59.368H161.285V61.8H151.557ZM93.189 61.8V59.368H102.917V61.8H93.189ZM146.693 66.664V64.232H156.421V66.664H146.693ZM93.189 66.664V64.232H102.917V66.664H93.189ZM146.693 71.528V69.096H156.421V71.528H146.693ZM93.189 71.528V69.096H102.917V71.528H93.189ZM141.829 76.392V73.96H151.557V76.392H141.829ZM93.189 76.392V73.96H102.917V76.392H93.189ZM93.189 81.256V78.824H102.917V81.256H93.189ZM136.965 81.256V78.824H151.557V81.256H136.965ZM93.189 86.12V83.688H146.693V86.12H93.189ZM93.189 90.984V88.552H136.965V90.984H93.189ZM205.009 3.43201V1.00001H214.737V3.43201H205.009ZM205.009 8.29601V5.86401H214.737V8.29601H205.009ZM200.145 13.16V10.728H219.601V13.16H200.145ZM200.145 18.024V15.592H219.601V18.024H200.145ZM195.281 22.888V20.456H205.009V22.888H195.281ZM214.737 22.888V20.456H224.465V22.888H214.737ZM195.281 27.752V25.32H205.009V27.752H195.281ZM214.737 27.752V25.32H224.465V27.752H214.737ZM214.737 32.616V30.184H224.465V32.616H214.737ZM195.281 32.616V30.184H205.009V32.616H195.281ZM190.417 37.48V35.048H200.145V37.48H190.417ZM219.601 37.48V35.048H229.329V37.48H219.601ZM190.417 42.344V39.912H200.145V42.344H190.417ZM219.601 42.344V39.912H229.329V42.344H219.601ZM190.417 47.208V44.776H200.145V47.208H190.417ZM219.601 47.208V44.776H229.329V47.208H219.601ZM224.465 52.072V49.64H234.193V52.072H224.465ZM185.553 52.072V49.64H195.281V52.072H185.553ZM185.553 56.936V54.504H234.193V56.936H185.553ZM185.553 61.8V59.368H234.193V61.8H185.553ZM180.689 66.664V64.232H190.417V66.664H180.689ZM229.329 66.664V64.232H239.057V66.664H229.329ZM229.329 71.528V69.096H239.057V71.528H229.329ZM180.689 71.528V69.096H190.417V71.528H180.689ZM180.689 76.392V73.96H190.417V76.392H180.689ZM229.329 76.392V73.96H239.057V76.392H229.329ZM175.825 81.256V78.824H185.553V81.256H175.825ZM234.193 81.256V78.824H243.921V81.256H234.193ZM234.193 86.12V83.688H243.921V86.12H234.193ZM175.825 86.12V83.688H185.553V86.12H175.825ZM234.193 90.984V88.552H243.921V90.984H234.193ZM175.825 90.984V88.552H185.553V90.984H175.825Z" fill="white"/>
<path d="M0.999987 27.752H-1.33514e-05V28.752H0.999987V27.752ZM0.999987 25.32V24.32H-1.33514e-05V25.32H0.999987ZM10.728 25.32H11.728V24.32H10.728V25.32ZM10.728 27.752V28.752H11.728V27.752H10.728ZM0.999987 32.616H-1.33514e-05V33.616H0.999987V32.616ZM0.999987 30.184V29.184H-1.33514e-05V30.184H0.999987ZM20.456 30.184H21.456V29.184H20.456V30.184ZM20.456 32.616V33.616H21.456V32.616H20.456ZM10.728 37.48H9.72799V38.48H10.728V37.48ZM10.728 35.048V34.048H9.72799V35.048H10.728ZM30.184 35.048H31.184V34.048H30.184V35.048ZM30.184 37.48V38.48H31.184V37.48H30.184ZM20.456 42.344H19.456V43.344H20.456V42.344ZM20.456 39.912V38.912H19.456V39.912H20.456ZM39.912 39.912H40.912V38.912H39.912V39.912ZM39.912 42.344V43.344H40.912V42.344H39.912ZM30.184 47.208H29.184V48.208H30.184V47.208ZM30.184 44.776V43.776H29.184V44.776H30.184ZM49.64 44.776H50.64V43.776H49.64V44.776ZM49.64 47.208V48.208H50.64V47.208H49.64ZM39.912 52.072H38.912V53.072H39.912V52.072ZM39.912 49.64V48.64H38.912V49.64H39.912ZM59.368 49.64H60.368V48.64H59.368V49.64ZM59.368 52.072V53.072H60.368V52.072H59.368ZM49.64 56.936H48.64V57.936H49.64V56.936ZM49.64 54.504V53.504H48.64V54.504H49.64ZM59.368 54.504H60.368V53.504H59.368V54.504ZM59.368 56.936V57.936H60.368V56.936H59.368ZM39.912 61.8H38.912V62.8H39.912V61.8ZM39.912 59.368V58.368H38.912V59.368H39.912ZM59.368 59.368H60.368V58.368H59.368V59.368ZM59.368 61.8V62.8H60.368V61.8H59.368ZM30.184 66.664H29.184V67.664H30.184V66.664ZM30.184 64.232V63.232H29.184V64.232H30.184ZM49.64 64.232H50.64V63.232H49.64V64.232ZM49.64 66.664V67.664H50.64V66.664H49.64ZM20.456 71.528H19.456V72.528H20.456V71.528ZM20.456 69.096V68.096H19.456V69.096H20.456ZM39.912 69.096H40.912V68.096H39.912V69.096ZM39.912 71.528V72.528H40.912V71.528H39.912ZM10.728 76.392H9.72799V77.392H10.728V76.392ZM10.728 73.96V72.96H9.72799V73.96H10.728ZM30.184 73.96H31.184V72.96H30.184V73.96ZM30.184 76.392V77.392H31.184V76.392H30.184ZM0.999987 81.256H-1.33514e-05V82.256H0.999987V81.256ZM0.999987 78.824V77.824H-1.33514e-05V78.824H0.999987ZM20.456 78.824H21.456V77.824H20.456V78.824ZM20.456 81.256V82.256H21.456V81.256H20.456ZM0.999987 86.12H-1.33514e-05V87.12H0.999987V86.12ZM0.999987 83.688V82.688H-1.33514e-05V83.688H0.999987ZM10.728 83.688H11.728V82.688H10.728V83.688ZM10.728 86.12V87.12H11.728V86.12H10.728ZM0.999987 27.752H1.99999V25.32H0.999987H-1.33514e-05V27.752H0.999987ZM0.999987 25.32V26.32H10.728V25.32V24.32H0.999987V25.32ZM10.728 25.32H9.72799V27.752H10.728H11.728V25.32H10.728ZM10.728 27.752V26.752H0.999987V27.752V28.752H10.728V27.752ZM0.999987 32.616H1.99999V30.184H0.999987H-1.33514e-05V32.616H0.999987ZM0.999987 30.184V31.184H20.456V30.184V29.184H0.999987V30.184ZM20.456 30.184H19.456V32.616H20.456H21.456V30.184H20.456ZM20.456 32.616V31.616H0.999987V32.616V33.616H20.456V32.616ZM10.728 37.48H11.728V35.048H10.728H9.72799V37.48H10.728ZM10.728 35.048V36.048H30.184V35.048V34.048H10.728V35.048ZM30.184 35.048H29.184V37.48H30.184H31.184V35.048H30.184ZM30.184 37.48V36.48H10.728V37.48V38.48H30.184V37.48ZM20.456 42.344H21.456V39.912H20.456H19.456V42.344H20.456ZM20.456 39.912V40.912H39.912V39.912V38.912H20.456V39.912ZM39.912 39.912H38.912V42.344H39.912H40.912V39.912H39.912ZM39.912 42.344V41.344H20.456V42.344V43.344H39.912V42.344ZM30.184 47.208H31.184V44.776H30.184H29.184V47.208H30.184ZM30.184 44.776V45.776H49.64V44.776V43.776H30.184V44.776ZM49.64 44.776H48.64V47.208H49.64H50.64V44.776H49.64ZM49.64 47.208V46.208H30.184V47.208V48.208H49.64V47.208ZM39.912 52.072H40.912V49.64H39.912H38.912V52.072H39.912ZM39.912 49.64V50.64H59.368V49.64V48.64H39.912V49.64ZM59.368 49.64H58.368V52.072H59.368H60.368V49.64H59.368ZM59.368 52.072V51.072H39.912V52.072V53.072H59.368V52.072ZM49.64 56.936H50.64V54.504H49.64H48.64V56.936H49.64ZM49.64 54.504V55.504H59.368V54.504V53.504H49.64V54.504ZM59.368 54.504H58.368V56.936H59.368H60.368V54.504H59.368ZM59.368 56.936V55.936H49.64V56.936V57.936H59.368V56.936ZM39.912 61.8H40.912V59.368H39.912H38.912V61.8H39.912ZM39.912 59.368V60.368H59.368V59.368V58.368H39.912V59.368ZM59.368 59.368H58.368V61.8H59.368H60.368V59.368H59.368ZM59.368 61.8V60.8H39.912V61.8V62.8H59.368V61.8ZM30.184 66.664H31.184V64.232H30.184H29.184V66.664H30.184ZM30.184 64.232V65.232H49.64V64.232V63.232H30.184V64.232ZM49.64 64.232H48.64V66.664H49.64H50.64V64.232H49.64ZM49.64 66.664V65.664H30.184V66.664V67.664H49.64V66.664ZM20.456 71.528H21.456V69.096H20.456H19.456V71.528H20.456ZM20.456 69.096V70.096H39.912V69.096V68.096H20.456V69.096ZM39.912 69.096H38.912V71.528H39.912H40.912V69.096H39.912ZM39.912 71.528V70.528H20.456V71.528V72.528H39.912V71.528ZM10.728 76.392H11.728V73.96H10.728H9.72799V76.392H10.728ZM10.728 73.96V74.96H30.184V73.96V72.96H10.728V73.96ZM30.184 73.96H29.184V76.392H30.184H31.184V73.96H30.184ZM30.184 76.392V75.392H10.728V76.392V77.392H30.184V76.392ZM0.999987 81.256H1.99999V78.824H0.999987H-1.33514e-05V81.256H0.999987ZM0.999987 78.824V79.824H20.456V78.824V77.824H0.999987V78.824ZM20.456 78.824H19.456V81.256H20.456H21.456V78.824H20.456ZM20.456 81.256V80.256H0.999987V81.256V82.256H20.456V81.256ZM0.999987 86.12H1.99999V83.688H0.999987H-1.33514e-05V86.12H0.999987ZM0.999987 83.688V84.688H10.728V83.688V82.688H0.999987V83.688ZM10.728 83.688H9.72799V86.12H10.728H11.728V83.688H10.728ZM10.728 86.12V85.12H0.999987V86.12V87.12H10.728V86.12ZM93.189 3.43201H92.189V4.43201H93.189V3.43201ZM93.189 1.00001V7.62939e-06H92.189V1.00001H93.189ZM136.965 1.00001H137.965V7.62939e-06H136.965V1.00001ZM136.965 3.43201V4.43201H137.965V3.43201H136.965ZM93.189 8.29601H92.189V9.29601H93.189V8.29601ZM93.189 5.86401V4.86401H92.189V5.86401H93.189ZM146.693 5.86401H147.693V4.86401H146.693V5.86401ZM146.693 8.29601V9.29601H147.693V8.29601H146.693ZM136.965 13.16H135.965V14.16H136.965V13.16ZM136.965 10.728V9.728H135.965V10.728H136.965ZM151.557 10.728H152.557V9.728H151.557V10.728ZM151.557 13.16V14.16H152.557V13.16H151.557ZM93.189 13.16H92.189V14.16H93.189V13.16ZM93.189 10.728V9.728H92.189V10.728H93.189ZM102.917 10.728H103.917V9.728H102.917V10.728ZM102.917 13.16V14.16H103.917V13.16H102.917ZM141.829 18.024H140.829V19.024H141.829V18.024ZM141.829 15.592V14.592H140.829V15.592H141.829ZM151.557 15.592H152.557V14.592H151.557V15.592ZM151.557 18.024V19.024H152.557V18.024H151.557ZM93.189 18.024H92.189V19.024H93.189V18.024ZM93.189 15.592V14.592H92.189V15.592H93.189ZM102.917 15.592H103.917V14.592H102.917V15.592ZM102.917 18.024V19.024H103.917V18.024H102.917ZM146.693 22.888H145.693V23.888H146.693V22.888ZM146.693 20.456V19.456H145.693V20.456H146.693ZM156.421 20.456H157.421V19.456H156.421V20.456ZM156.421 22.888V23.888H157.421V22.888H156.421ZM93.189 22.888H92.189V23.888H93.189V22.888ZM93.189 20.456V19.456H92.189V20.456H93.189ZM102.917 20.456H103.917V19.456H102.917V20.456ZM102.917 22.888V23.888H103.917V22.888H102.917ZM93.189 27.752H92.189V28.752H93.189V27.752ZM93.189 25.32V24.32H92.189V25.32H93.189ZM102.917 25.32H103.917V24.32H102.917V25.32ZM102.917 27.752V28.752H103.917V27.752H102.917ZM146.693 27.752H145.693V28.752H146.693V27.752ZM146.693 25.32V24.32H145.693V25.32H146.693ZM156.421 25.32H157.421V24.32H156.421V25.32ZM156.421 27.752V28.752H157.421V27.752H156.421ZM151.557 32.616H150.557V33.616H151.557V32.616ZM151.557 30.184V29.184H150.557V30.184H151.557ZM161.285 30.184H162.285V29.184H161.285V30.184ZM161.285 32.616V33.616H162.285V32.616H161.285ZM93.189 32.616H92.189V33.616H93.189V32.616ZM93.189 30.184V29.184H92.189V30.184H93.189ZM102.917 30.184H103.917V29.184H102.917V30.184ZM102.917 32.616V33.616H103.917V32.616H102.917ZM93.189 37.48H92.189V38.48H93.189V37.48ZM93.189 35.048V34.048H92.189V35.048H93.189ZM102.917 35.048H103.917V34.048H102.917V35.048ZM102.917 37.48V38.48H103.917V37.48H102.917ZM151.557 37.48H150.557V38.48H151.557V37.48ZM151.557 35.048V34.048H150.557V35.048H151.557ZM161.285 35.048H162.285V34.048H161.285V35.048ZM161.285 37.48V38.48H162.285V37.48H161.285ZM93.189 42.344H92.189V43.344H93.189V42.344ZM93.189 39.912V38.912H92.189V39.912H93.189ZM102.917 39.912H103.917V38.912H102.917V39.912ZM102.917 42.344V43.344H103.917V42.344H102.917ZM151.557 42.344H150.557V43.344H151.557V42.344ZM151.557 39.912V38.912H150.557V39.912H151.557ZM161.285 39.912H162.285V38.912H161.285V39.912ZM161.285 42.344V43.344H162.285V42.344H161.285ZM151.557 47.208H150.557V48.208H151.557V47.208ZM151.557 44.776V43.776H150.557V44.776H151.557ZM161.285 44.776H162.285V43.776H161.285V44.776ZM161.285 47.208V48.208H162.285V47.208H161.285ZM93.189 47.208H92.189V48.208H93.189V47.208ZM93.189 44.776V43.776H92.189V44.776H93.189ZM102.917 44.776H103.917V43.776H102.917V44.776ZM102.917 47.208V48.208H103.917V47.208H102.917ZM93.189 52.072H92.189V53.072H93.189V52.072ZM93.189 49.64V48.64H92.189V49.64H93.189ZM102.917 49.64H103.917V48.64H102.917V49.64ZM102.917 52.072V53.072H103.917V52.072H102.917ZM151.557 52.072H150.557V53.072H151.557V52.072ZM151.557 49.64V48.64H150.557V49.64H151.557ZM161.285 49.64H162.285V48.64H161.285V49.64ZM161.285 52.072V53.072H162.285V52.072H161.285ZM151.557 56.936H150.557V57.936H151.557V56.936ZM151.557 54.504V53.504H150.557V54.504H151.557ZM161.285 54.504H162.285V53.504H161.285V54.504ZM161.285 56.936V57.936H162.285V56.936H161.285ZM93.189 56.936H92.189V57.936H93.189V56.936ZM93.189 54.504V53.504H92.189V54.504H93.189ZM102.917 54.504H103.917V53.504H102.917V54.504ZM102.917 56.936V57.936H103.917V56.936H102.917ZM151.557 61.8H150.557V62.8H151.557V61.8ZM151.557 59.368V58.368H150.557V59.368H151.557ZM161.285 59.368H162.285V58.368H161.285V59.368ZM161.285 61.8V62.8H162.285V61.8H161.285ZM93.189 61.8H92.189V62.8H93.189V61.8ZM93.189 59.368V58.368H92.189V59.368H93.189ZM102.917 59.368H103.917V58.368H102.917V59.368ZM102.917 61.8V62.8H103.917V61.8H102.917ZM146.693 66.664H145.693V67.664H146.693V66.664ZM146.693 64.232V63.232H145.693V64.232H146.693ZM156.421 64.232H157.421V63.232H156.421V64.232ZM156.421 66.664V67.664H157.421V66.664H156.421ZM93.189 66.664H92.189V67.664H93.189V66.664ZM93.189 64.232V63.232H92.189V64.232H93.189ZM102.917 64.232H103.917V63.232H102.917V64.232ZM102.917 66.664V67.664H103.917V66.664H102.917ZM146.693 71.528H145.693V72.528H146.693V71.528ZM146.693 69.096V68.096H145.693V69.096H146.693ZM156.421 69.096H157.421V68.096H156.421V69.096ZM156.421 71.528V72.528H157.421V71.528H156.421ZM93.189 71.528H92.189V72.528H93.189V71.528ZM93.189 69.096V68.096H92.189V69.096H93.189ZM102.917 69.096H103.917V68.096H102.917V69.096ZM102.917 71.528V72.528H103.917V71.528H102.917ZM141.829 76.392H140.829V77.392H141.829V76.392ZM141.829 73.96V72.96H140.829V73.96H141.829ZM151.557 73.96H152.557V72.96H151.557V73.96ZM151.557 76.392V77.392H152.557V76.392H151.557ZM93.189 76.392H92.189V77.392H93.189V76.392ZM93.189 73.96V72.96H92.189V73.96H93.189ZM102.917 73.96H103.917V72.96H102.917V73.96ZM102.917 76.392V77.392H103.917V76.392H102.917ZM93.189 81.256H92.189V82.256H93.189V81.256ZM93.189 78.824V77.824H92.189V78.824H93.189ZM102.917 78.824H103.917V77.824H102.917V78.824ZM102.917 81.256V82.256H103.917V81.256H102.917ZM136.965 81.256H135.965V82.256H136.965V81.256ZM136.965 78.824V77.824H135.965V78.824H136.965ZM151.557 78.824H152.557V77.824H151.557V78.824ZM151.557 81.256V82.256H152.557V81.256H151.557ZM93.189 86.12H92.189V87.12H93.189V86.12ZM93.189 83.688V82.688H92.189V83.688H93.189ZM146.693 83.688H147.693V82.688H146.693V83.688ZM146.693 86.12V87.12H147.693V86.12H146.693ZM93.189 90.984H92.189V91.984H93.189V90.984ZM93.189 88.552V87.552H92.189V88.552H93.189ZM136.965 88.552H137.965V87.552H136.965V88.552ZM136.965 90.984V91.984H137.965V90.984H136.965ZM93.189 3.43201H94.189V1.00001H93.189H92.189V3.43201H93.189ZM93.189 1.00001V2.00001H136.965V1.00001V7.62939e-06H93.189V1.00001ZM136.965 1.00001H135.965V3.43201H136.965H137.965V1.00001H136.965ZM136.965 3.43201V2.43201H93.189V3.43201V4.43201H136.965V3.43201ZM93.189 8.29601H94.189V5.86401H93.189H92.189V8.29601H93.189ZM93.189 5.86401V6.86401H146.693V5.86401V4.86401H93.189V5.86401ZM146.693 5.86401H145.693V8.29601H146.693H147.693V5.86401H146.693ZM146.693 8.29601V7.29601H93.189V8.29601V9.29601H146.693V8.29601ZM136.965 13.16H137.965V10.728H136.965H135.965V13.16H136.965ZM136.965 10.728V11.728H151.557V10.728V9.728H136.965V10.728ZM151.557 10.728H150.557V13.16H151.557H152.557V10.728H151.557ZM151.557 13.16V12.16H136.965V13.16V14.16H151.557V13.16ZM93.189 13.16H94.189V10.728H93.189H92.189V13.16H93.189ZM93.189 10.728V11.728H102.917V10.728V9.728H93.189V10.728ZM102.917 10.728H101.917V13.16H102.917H103.917V10.728H102.917ZM102.917 13.16V12.16H93.189V13.16V14.16H102.917V13.16ZM141.829 18.024H142.829V15.592H141.829H140.829V18.024H141.829ZM141.829 15.592V16.592H151.557V15.592V14.592H141.829V15.592ZM151.557 15.592H150.557V18.024H151.557H152.557V15.592H151.557ZM151.557 18.024V17.024H141.829V18.024V19.024H151.557V18.024ZM93.189 18.024H94.189V15.592H93.189H92.189V18.024H93.189ZM93.189 15.592V16.592H102.917V15.592V14.592H93.189V15.592ZM102.917 15.592H101.917V18.024H102.917H103.917V15.592H102.917ZM102.917 18.024V17.024H93.189V18.024V19.024H102.917V18.024ZM146.693 22.888H147.693V20.456H146.693H145.693V22.888H146.693ZM146.693 20.456V21.456H156.421V20.456V19.456H146.693V20.456ZM156.421 20.456H155.421V22.888H156.421H157.421V20.456H156.421ZM156.421 22.888V21.888H146.693V22.888V23.888H156.421V22.888ZM93.189 22.888H94.189V20.456H93.189H92.189V22.888H93.189ZM93.189 20.456V21.456H102.917V20.456V19.456H93.189V20.456ZM102.917 20.456H101.917V22.888H102.917H103.917V20.456H102.917ZM102.917 22.888V21.888H93.189V22.888V23.888H102.917V22.888ZM93.189 27.752H94.189V25.32H93.189H92.189V27.752H93.189ZM93.189 25.32V26.32H102.917V25.32V24.32H93.189V25.32ZM102.917 25.32H101.917V27.752H102.917H103.917V25.32H102.917ZM102.917 27.752V26.752H93.189V27.752V28.752H102.917V27.752ZM146.693 27.752H147.693V25.32H146.693H145.693V27.752H146.693ZM146.693 25.32V26.32H156.421V25.32V24.32H146.693V25.32ZM156.421 25.32H155.421V27.752H156.421H157.421V25.32H156.421ZM156.421 27.752V26.752H146.693V27.752V28.752H156.421V27.752ZM151.557 32.616H152.557V30.184H151.557H150.557V32.616H151.557ZM151.557 30.184V31.184H161.285V30.184V29.184H151.557V30.184ZM161.285 30.184H160.285V32.616H161.285H162.285V30.184H161.285ZM161.285 32.616V31.616H151.557V32.616V33.616H161.285V32.616ZM93.189 32.616H94.189V30.184H93.189H92.189V32.616H93.189ZM93.189 30.184V31.184H102.917V30.184V29.184H93.189V30.184ZM102.917 30.184H101.917V32.616H102.917H103.917V30.184H102.917ZM102.917 32.616V31.616H93.189V32.616V33.616H102.917V32.616ZM93.189 37.48H94.189V35.048H93.189H92.189V37.48H93.189ZM93.189 35.048V36.048H102.917V35.048V34.048H93.189V35.048ZM102.917 35.048H101.917V37.48H102.917H103.917V35.048H102.917ZM102.917 37.48V36.48H93.189V37.48V38.48H102.917V37.48ZM151.557 37.48H152.557V35.048H151.557H150.557V37.48H151.557ZM151.557 35.048V36.048H161.285V35.048V34.048H151.557V35.048ZM161.285 35.048H160.285V37.48H161.285H162.285V35.048H161.285ZM161.285 37.48V36.48H151.557V37.48V38.48H161.285V37.48ZM93.189 42.344H94.189V39.912H93.189H92.189V42.344H93.189ZM93.189 39.912V40.912H102.917V39.912V38.912H93.189V39.912ZM102.917 39.912H101.917V42.344H102.917H103.917V39.912H102.917ZM102.917 42.344V41.344H93.189V42.344V43.344H102.917V42.344ZM151.557 42.344H152.557V39.912H151.557H150.557V42.344H151.557ZM151.557 39.912V40.912H161.285V39.912V38.912H151.557V39.912ZM161.285 39.912H160.285V42.344H161.285H162.285V39.912H161.285ZM161.285 42.344V41.344H151.557V42.344V43.344H161.285V42.344ZM151.557 47.208H152.557V44.776H151.557H150.557V47.208H151.557ZM151.557 44.776V45.776H161.285V44.776V43.776H151.557V44.776ZM161.285 44.776H160.285V47.208H161.285H162.285V44.776H161.285ZM161.285 47.208V46.208H151.557V47.208V48.208H161.285V47.208ZM93.189 47.208H94.189V44.776H93.189H92.189V47.208H93.189ZM93.189 44.776V45.776H102.917V44.776V43.776H93.189V44.776ZM102.917 44.776H101.917V47.208H102.917H103.917V44.776H102.917ZM102.917 47.208V46.208H93.189V47.208V48.208H102.917V47.208ZM93.189 52.072H94.189V49.64H93.189H92.189V52.072H93.189ZM93.189 49.64V50.64H102.917V49.64V48.64H93.189V49.64ZM102.917 49.64H101.917V52.072H102.917H103.917V49.64H102.917ZM102.917 52.072V51.072H93.189V52.072V53.072H102.917V52.072ZM151.557 52.072H152.557V49.64H151.557H150.557V52.072H151.557ZM151.557 49.64V50.64H161.285V49.64V48.64H151.557V49.64ZM161.285 49.64H160.285V52.072H161.285H162.285V49.64H161.285ZM161.285 52.072V51.072H151.557V52.072V53.072H161.285V52.072ZM151.557 56.936H152.557V54.504H151.557H150.557V56.936H151.557ZM151.557 54.504V55.504H161.285V54.504V53.504H151.557V54.504ZM161.285 54.504H160.285V56.936H161.285H162.285V54.504H161.285ZM161.285 56.936V55.936H151.557V56.936V57.936H161.285V56.936ZM93.189 56.936H94.189V54.504H93.189H92.189V56.936H93.189ZM93.189 54.504V55.504H102.917V54.504V53.504H93.189V54.504ZM102.917 54.504H101.917V56.936H102.917H103.917V54.504H102.917ZM102.917 56.936V55.936H93.189V56.936V57.936H102.917V56.936ZM151.557 61.8H152.557V59.368H151.557H150.557V61.8H151.557ZM151.557 59.368V60.368H161.285V59.368V58.368H151.557V59.368ZM161.285 59.368H160.285V61.8H161.285H162.285V59.368H161.285ZM161.285 61.8V60.8H151.557V61.8V62.8H161.285V61.8ZM93.189 61.8H94.189V59.368H93.189H92.189V61.8H93.189ZM93.189 59.368V60.368H102.917V59.368V58.368H93.189V59.368ZM102.917 59.368H101.917V61.8H102.917H103.917V59.368H102.917ZM102.917 61.8V60.8H93.189V61.8V62.8H102.917V61.8ZM146.693 66.664H147.693V64.232H146.693H145.693V66.664H146.693ZM146.693 64.232V65.232H156.421V64.232V63.232H146.693V64.232ZM156.421 64.232H155.421V66.664H156.421H157.421V64.232H156.421ZM156.421 66.664V65.664H146.693V66.664V67.664H156.421V66.664ZM93.189 66.664H94.189V64.232H93.189H92.189V66.664H93.189ZM93.189 64.232V65.232H102.917V64.232V63.232H93.189V64.232ZM102.917 64.232H101.917V66.664H102.917H103.917V64.232H102.917ZM102.917 66.664V65.664H93.189V66.664V67.664H102.917V66.664ZM146.693 71.528H147.693V69.096H146.693H145.693V71.528H146.693ZM146.693 69.096V70.096H156.421V69.096V68.096H146.693V69.096ZM156.421 69.096H155.421V71.528H156.421H157.421V69.096H156.421ZM156.421 71.528V70.528H146.693V71.528V72.528H156.421V71.528ZM93.189 71.528H94.189V69.096H93.189H92.189V71.528H93.189ZM93.189 69.096V70.096H102.917V69.096V68.096H93.189V69.096ZM102.917 69.096H101.917V71.528H102.917H103.917V69.096H102.917ZM102.917 71.528V70.528H93.189V71.528V72.528H102.917V71.528ZM141.829 76.392H142.829V73.96H141.829H140.829V76.392H141.829ZM141.829 73.96V74.96H151.557V73.96V72.96H141.829V73.96ZM151.557 73.96H150.557V76.392H151.557H152.557V73.96H151.557ZM151.557 76.392V75.392H141.829V76.392V77.392H151.557V76.392ZM93.189 76.392H94.189V73.96H93.189H92.189V76.392H93.189ZM93.189 73.96V74.96H102.917V73.96V72.96H93.189V73.96ZM102.917 73.96H101.917V76.392H102.917H103.917V73.96H102.917ZM102.917 76.392V75.392H93.189V76.392V77.392H102.917V76.392ZM93.189 81.256H94.189V78.824H93.189H92.189V81.256H93.189ZM93.189 78.824V79.824H102.917V78.824V77.824H93.189V78.824ZM102.917 78.824H101.917V81.256H102.917H103.917V78.824H102.917ZM102.917 81.256V80.256H93.189V81.256V82.256H102.917V81.256ZM136.965 81.256H137.965V78.824H136.965H135.965V81.256H136.965ZM136.965 78.824V79.824H151.557V78.824V77.824H136.965V78.824ZM151.557 78.824H150.557V81.256H151.557H152.557V78.824H151.557ZM151.557 81.256V80.256H136.965V81.256V82.256H151.557V81.256ZM93.189 86.12H94.189V83.688H93.189H92.189V86.12H93.189ZM93.189 83.688V84.688H146.693V83.688V82.688H93.189V83.688ZM146.693 83.688H145.693V86.12H146.693H147.693V83.688H146.693ZM146.693 86.12V85.12H93.189V86.12V87.12H146.693V86.12ZM93.189 90.984H94.189V88.552H93.189H92.189V90.984H93.189ZM93.189 88.552V89.552H136.965V88.552V87.552H93.189V88.552ZM136.965 88.552H135.965V90.984H136.965H137.965V88.552H136.965ZM136.965 90.984V89.984H93.189V90.984V91.984H136.965V90.984ZM205.009 3.43201H204.009V4.43201H205.009V3.43201ZM205.009 1.00001V7.62939e-06H204.009V1.00001H205.009ZM214.737 1.00001H215.737V7.62939e-06H214.737V1.00001ZM214.737 3.43201V4.43201H215.737V3.43201H214.737ZM205.009 8.29601H204.009V9.29601H205.009V8.29601ZM205.009 5.86401V4.86401H204.009V5.86401H205.009ZM214.737 5.86401H215.737V4.86401H214.737V5.86401ZM214.737 8.29601V9.29601H215.737V8.29601H214.737ZM200.145 13.16H199.145V14.16H200.145V13.16ZM200.145 10.728V9.728H199.145V10.728H200.145ZM219.601 10.728H220.601V9.728H219.601V10.728ZM219.601 13.16V14.16H220.601V13.16H219.601ZM200.145 18.024H199.145V19.024H200.145V18.024ZM200.145 15.592V14.592H199.145V15.592H200.145ZM219.601 15.592H220.601V14.592H219.601V15.592ZM219.601 18.024V19.024H220.601V18.024H219.601ZM195.281 22.888H194.281V23.888H195.281V22.888ZM195.281 20.456V19.456H194.281V20.456H195.281ZM205.009 20.456H206.009V19.456H205.009V20.456ZM205.009 22.888V23.888H206.009V22.888H205.009ZM214.737 22.888H213.737V23.888H214.737V22.888ZM214.737 20.456V19.456H213.737V20.456H214.737ZM224.465 20.456H225.465V19.456H224.465V20.456ZM224.465 22.888V23.888H225.465V22.888H224.465ZM195.281 27.752H194.281V28.752H195.281V27.752ZM195.281 25.32V24.32H194.281V25.32H195.281ZM205.009 25.32H206.009V24.32H205.009V25.32ZM205.009 27.752V28.752H206.009V27.752H205.009ZM214.737 27.752H213.737V28.752H214.737V27.752ZM214.737 25.32V24.32H213.737V25.32H214.737ZM224.465 25.32H225.465V24.32H224.465V25.32ZM224.465 27.752V28.752H225.465V27.752H224.465ZM214.737 32.616H213.737V33.616H214.737V32.616ZM214.737 30.184V29.184H213.737V30.184H214.737ZM224.465 30.184H225.465V29.184H224.465V30.184ZM224.465 32.616V33.616H225.465V32.616H224.465ZM195.281 32.616H194.281V33.616H195.281V32.616ZM195.281 30.184V29.184H194.281V30.184H195.281ZM205.009 30.184H206.009V29.184H205.009V30.184ZM205.009 32.616V33.616H206.009V32.616H205.009ZM190.417 37.48H189.417V38.48H190.417V37.48ZM190.417 35.048V34.048H189.417V35.048H190.417ZM200.145 35.048H201.145V34.048H200.145V35.048ZM200.145 37.48V38.48H201.145V37.48H200.145ZM219.601 37.48H218.601V38.48H219.601V37.48ZM219.601 35.048V34.048H218.601V35.048H219.601ZM229.329 35.048H230.329V34.048H229.329V35.048ZM229.329 37.48V38.48H230.329V37.48H229.329ZM190.417 42.344H189.417V43.344H190.417V42.344ZM190.417 39.912V38.912H189.417V39.912H190.417ZM200.145 39.912H201.145V38.912H200.145V39.912ZM200.145 42.344V43.344H201.145V42.344H200.145ZM219.601 42.344H218.601V43.344H219.601V42.344ZM219.601 39.912V38.912H218.601V39.912H219.601ZM229.329 39.912H230.329V38.912H229.329V39.912ZM229.329 42.344V43.344H230.329V42.344H229.329ZM190.417 47.208H189.417V48.208H190.417V47.208ZM190.417 44.776V43.776H189.417V44.776H190.417ZM200.145 44.776H201.145V43.776H200.145V44.776ZM200.145 47.208V48.208H201.145V47.208H200.145ZM219.601 47.208H218.601V48.208H219.601V47.208ZM219.601 44.776V43.776H218.601V44.776H219.601ZM229.329 44.776H230.329V43.776H229.329V44.776ZM229.329 47.208V48.208H230.329V47.208H229.329ZM224.465 52.072H223.465V53.072H224.465V52.072ZM224.465 49.64V48.64H223.465V49.64H224.465ZM234.193 49.64H235.193V48.64H234.193V49.64ZM234.193 52.072V53.072H235.193V52.072H234.193ZM185.553 52.072H184.553V53.072H185.553V52.072ZM185.553 49.64V48.64H184.553V49.64H185.553ZM195.281 49.64H196.281V48.64H195.281V49.64ZM195.281 52.072V53.072H196.281V52.072H195.281ZM185.553 56.936H184.553V57.936H185.553V56.936ZM185.553 54.504V53.504H184.553V54.504H185.553ZM234.193 54.504H235.193V53.504H234.193V54.504ZM234.193 56.936V57.936H235.193V56.936H234.193ZM185.553 61.8H184.553V62.8H185.553V61.8ZM185.553 59.368V58.368H184.553V59.368H185.553ZM234.193 59.368H235.193V58.368H234.193V59.368ZM234.193 61.8V62.8H235.193V61.8H234.193ZM180.689 66.664H179.689V67.664H180.689V66.664ZM180.689 64.232V63.232H179.689V64.232H180.689ZM190.417 64.232H191.417V63.232H190.417V64.232ZM190.417 66.664V67.664H191.417V66.664H190.417ZM229.329 66.664H228.329V67.664H229.329V66.664ZM229.329 64.232V63.232H228.329V64.232H229.329ZM239.057 64.232H240.057V63.232H239.057V64.232ZM239.057 66.664V67.664H240.057V66.664H239.057ZM229.329 71.528H228.329V72.528H229.329V71.528ZM229.329 69.096V68.096H228.329V69.096H229.329ZM239.057 69.096H240.057V68.096H239.057V69.096ZM239.057 71.528V72.528H240.057V71.528H239.057ZM180.689 71.528H179.689V72.528H180.689V71.528ZM180.689 69.096V68.096H179.689V69.096H180.689ZM190.417 69.096H191.417V68.096H190.417V69.096ZM190.417 71.528V72.528H191.417V71.528H190.417ZM180.689 76.392H179.689V77.392H180.689V76.392ZM180.689 73.96V72.96H179.689V73.96H180.689ZM190.417 73.96H191.417V72.96H190.417V73.96ZM190.417 76.392V77.392H191.417V76.392H190.417ZM229.329 76.392H228.329V77.392H229.329V76.392ZM229.329 73.96V72.96H228.329V73.96H229.329ZM239.057 73.96H240.057V72.96H239.057V73.96ZM239.057 76.392V77.392H240.057V76.392H239.057ZM175.825 81.256H174.825V82.256H175.825V81.256ZM175.825 78.824V77.824H174.825V78.824H175.825ZM185.553 78.824H186.553V77.824H185.553V78.824ZM185.553 81.256V82.256H186.553V81.256H185.553ZM234.193 81.256H233.193V82.256H234.193V81.256ZM234.193 78.824V77.824H233.193V78.824H234.193ZM243.921 78.824H244.921V77.824H243.921V78.824ZM243.921 81.256V82.256H244.921V81.256H243.921ZM234.193 86.12H233.193V87.12H234.193V86.12ZM234.193 83.688V82.688H233.193V83.688H234.193ZM243.921 83.688H244.921V82.688H243.921V83.688ZM243.921 86.12V87.12H244.921V86.12H243.921ZM175.825 86.12H174.825V87.12H175.825V86.12ZM175.825 83.688V82.688H174.825V83.688H175.825ZM185.553 83.688H186.553V82.688H185.553V83.688ZM185.553 86.12V87.12H186.553V86.12H185.553ZM234.193 90.984H233.193V91.984H234.193V90.984ZM234.193 88.552V87.552H233.193V88.552H234.193ZM243.921 88.552H244.921V87.552H243.921V88.552ZM243.921 90.984V91.984H244.921V90.984H243.921ZM175.825 90.984H174.825V91.984H175.825V90.984ZM175.825 88.552V87.552H174.825V88.552H175.825ZM185.553 88.552H186.553V87.552H185.553V88.552ZM185.553 90.984V91.984H186.553V90.984H185.553ZM205.009 3.43201H206.009V1.00001H205.009H204.009V3.43201H205.009ZM205.009 1.00001V2.00001H214.737V1.00001V7.62939e-06H205.009V1.00001ZM214.737 1.00001H213.737V3.43201H214.737H215.737V1.00001H214.737ZM214.737 3.43201V2.43201H205.009V3.43201V4.43201H214.737V3.43201ZM205.009 8.29601H206.009V5.86401H205.009H204.009V8.29601H205.009ZM205.009 5.86401V6.86401H214.737V5.86401V4.86401H205.009V5.86401ZM214.737 5.86401H213.737V8.29601H214.737H215.737V5.86401H214.737ZM214.737 8.29601V7.29601H205.009V8.29601V9.29601H214.737V8.29601ZM200.145 13.16H201.145V10.728H200.145H199.145V13.16H200.145ZM200.145 10.728V11.728H219.601V10.728V9.728H200.145V10.728ZM219.601 10.728H218.601V13.16H219.601H220.601V10.728H219.601ZM219.601 13.16V12.16H200.145V13.16V14.16H219.601V13.16ZM200.145 18.024H201.145V15.592H200.145H199.145V18.024H200.145ZM200.145 15.592V16.592H219.601V15.592V14.592H200.145V15.592ZM219.601 15.592H218.601V18.024H219.601H220.601V15.592H219.601ZM219.601 18.024V17.024H200.145V18.024V19.024H219.601V18.024ZM195.281 22.888H196.281V20.456H195.281H194.281V22.888H195.281ZM195.281 20.456V21.456H205.009V20.456V19.456H195.281V20.456ZM205.009 20.456H204.009V22.888H205.009H206.009V20.456H205.009ZM205.009 22.888V21.888H195.281V22.888V23.888H205.009V22.888ZM214.737 22.888H215.737V20.456H214.737H213.737V22.888H214.737ZM214.737 20.456V21.456H224.465V20.456V19.456H214.737V20.456ZM224.465 20.456H223.465V22.888H224.465H225.465V20.456H224.465ZM224.465 22.888V21.888H214.737V22.888V23.888H224.465V22.888ZM195.281 27.752H196.281V25.32H195.281H194.281V27.752H195.281ZM195.281 25.32V26.32H205.009V25.32V24.32H195.281V25.32ZM205.009 25.32H204.009V27.752H205.009H206.009V25.32H205.009ZM205.009 27.752V26.752H195.281V27.752V28.752H205.009V27.752ZM214.737 27.752H215.737V25.32H214.737H213.737V27.752H214.737ZM214.737 25.32V26.32H224.465V25.32V24.32H214.737V25.32ZM224.465 25.32H223.465V27.752H224.465H225.465V25.32H224.465ZM224.465 27.752V26.752H214.737V27.752V28.752H224.465V27.752ZM214.737 32.616H215.737V30.184H214.737H213.737V32.616H214.737ZM214.737 30.184V31.184H224.465V30.184V29.184H214.737V30.184ZM224.465 30.184H223.465V32.616H224.465H225.465V30.184H224.465ZM224.465 32.616V31.616H214.737V32.616V33.616H224.465V32.616ZM195.281 32.616H196.281V30.184H195.281H194.281V32.616H195.281ZM195.281 30.184V31.184H205.009V30.184V29.184H195.281V30.184ZM205.009 30.184H204.009V32.616H205.009H206.009V30.184H205.009ZM205.009 32.616V31.616H195.281V32.616V33.616H205.009V32.616ZM190.417 37.48H191.417V35.048H190.417H189.417V37.48H190.417ZM190.417 35.048V36.048H200.145V35.048V34.048H190.417V35.048ZM200.145 35.048H199.145V37.48H200.145H201.145V35.048H200.145ZM200.145 37.48V36.48H190.417V37.48V38.48H200.145V37.48ZM219.601 37.48H220.601V35.048H219.601H218.601V37.48H219.601ZM219.601 35.048V36.048H229.329V35.048V34.048H219.601V35.048ZM229.329 35.048H228.329V37.48H229.329H230.329V35.048H229.329ZM229.329 37.48V36.48H219.601V37.48V38.48H229.329V37.48ZM190.417 42.344H191.417V39.912H190.417H189.417V42.344H190.417ZM190.417 39.912V40.912H200.145V39.912V38.912H190.417V39.912ZM200.145 39.912H199.145V42.344H200.145H201.145V39.912H200.145ZM200.145 42.344V41.344H190.417V42.344V43.344H200.145V42.344ZM219.601 42.344H220.601V39.912H219.601H218.601V42.344H219.601ZM219.601 39.912V40.912H229.329V39.912V38.912H219.601V39.912ZM229.329 39.912H228.329V42.344H229.329H230.329V39.912H229.329ZM229.329 42.344V41.344H219.601V42.344V43.344H229.329V42.344ZM190.417 47.208H191.417V44.776H190.417H189.417V47.208H190.417ZM190.417 44.776V45.776H200.145V44.776V43.776H190.417V44.776ZM200.145 44.776H199.145V47.208H200.145H201.145V44.776H200.145ZM200.145 47.208V46.208H190.417V47.208V48.208H200.145V47.208ZM219.601 47.208H220.601V44.776H219.601H218.601V47.208H219.601ZM219.601 44.776V45.776H229.329V44.776V43.776H219.601V44.776ZM229.329 44.776H228.329V47.208H229.329H230.329V44.776H229.329ZM229.329 47.208V46.208H219.601V47.208V48.208H229.329V47.208ZM224.465 52.072H225.465V49.64H224.465H223.465V52.072H224.465ZM224.465 49.64V50.64H234.193V49.64V48.64H224.465V49.64ZM234.193 49.64H233.193V52.072H234.193H235.193V49.64H234.193ZM234.193 52.072V51.072H224.465V52.072V53.072H234.193V52.072ZM185.553 52.072H186.553V49.64H185.553H184.553V52.072H185.553ZM185.553 49.64V50.64H195.281V49.64V48.64H185.553V49.64ZM195.281 49.64H194.281V52.072H195.281H196.281V49.64H195.281ZM195.281 52.072V51.072H185.553V52.072V53.072H195.281V52.072ZM185.553 56.936H186.553V54.504H185.553H184.553V56.936H185.553ZM185.553 54.504V55.504H234.193V54.504V53.504H185.553V54.504ZM234.193 54.504H233.193V56.936H234.193H235.193V54.504H234.193ZM234.193 56.936V55.936H185.553V56.936V57.936H234.193V56.936ZM185.553 61.8H186.553V59.368H185.553H184.553V61.8H185.553ZM185.553 59.368V60.368H234.193V59.368V58.368H185.553V59.368ZM234.193 59.368H233.193V61.8H234.193H235.193V59.368H234.193ZM234.193 61.8V60.8H185.553V61.8V62.8H234.193V61.8ZM180.689 66.664H181.689V64.232H180.689H179.689V66.664H180.689ZM180.689 64.232V65.232H190.417V64.232V63.232H180.689V64.232ZM190.417 64.232H189.417V66.664H190.417H191.417V64.232H190.417ZM190.417 66.664V65.664H180.689V66.664V67.664H190.417V66.664ZM229.329 66.664H230.329V64.232H229.329H228.329V66.664H229.329ZM229.329 64.232V65.232H239.057V64.232V63.232H229.329V64.232ZM239.057 64.232H238.057V66.664H239.057H240.057V64.232H239.057ZM239.057 66.664V65.664H229.329V66.664V67.664H239.057V66.664ZM229.329 71.528H230.329V69.096H229.329H228.329V71.528H229.329ZM229.329 69.096V70.096H239.057V69.096V68.096H229.329V69.096ZM239.057 69.096H238.057V71.528H239.057H240.057V69.096H239.057ZM239.057 71.528V70.528H229.329V71.528V72.528H239.057V71.528ZM180.689 71.528H181.689V69.096H180.689H179.689V71.528H180.689ZM180.689 69.096V70.096H190.417V69.096V68.096H180.689V69.096ZM190.417 69.096H189.417V71.528H190.417H191.417V69.096H190.417ZM190.417 71.528V70.528H180.689V71.528V72.528H190.417V71.528ZM180.689 76.392H181.689V73.96H180.689H179.689V76.392H180.689ZM180.689 73.96V74.96H190.417V73.96V72.96H180.689V73.96ZM190.417 73.96H189.417V76.392H190.417H191.417V73.96H190.417ZM190.417 76.392V75.392H180.689V76.392V77.392H190.417V76.392ZM229.329 76.392H230.329V73.96H229.329H228.329V76.392H229.329ZM229.329 73.96V74.96H239.057V73.96V72.96H229.329V73.96ZM239.057 73.96H238.057V76.392H239.057H240.057V73.96H239.057ZM239.057 76.392V75.392H229.329V76.392V77.392H239.057V76.392ZM175.825 81.256H176.825V78.824H175.825H174.825V81.256H175.825ZM175.825 78.824V79.824H185.553V78.824V77.824H175.825V78.824ZM185.553 78.824H184.553V81.256H185.553H186.553V78.824H185.553ZM185.553 81.256V80.256H175.825V81.256V82.256H185.553V81.256ZM234.193 81.256H235.193V78.824H234.193H233.193V81.256H234.193ZM234.193 78.824V79.824H243.921V78.824V77.824H234.193V78.824ZM243.921 78.824H242.921V81.256H243.921H244.921V78.824H243.921ZM243.921 81.256V80.256H234.193V81.256V82.256H243.921V81.256ZM234.193 86.12H235.193V83.688H234.193H233.193V86.12H234.193ZM234.193 83.688V84.688H243.921V83.688V82.688H234.193V83.688ZM243.921 83.688H242.921V86.12H243.921H244.921V83.688H243.921ZM243.921 86.12V85.12H234.193V86.12V87.12H243.921V86.12ZM175.825 86.12H176.825V83.688H175.825H174.825V86.12H175.825ZM175.825 83.688V84.688H185.553V83.688V82.688H175.825V83.688ZM185.553 83.688H184.553V86.12H185.553H186.553V83.688H185.553ZM185.553 86.12V85.12H175.825V86.12V87.12H185.553V86.12ZM234.193 90.984H235.193V88.552H234.193H233.193V90.984H234.193ZM234.193 88.552V89.552H243.921V88.552V87.552H234.193V88.552ZM243.921 88.552H242.921V90.984H243.921H244.921V88.552H243.921ZM243.921 90.984V89.984H234.193V90.984V91.984H243.921V90.984ZM175.825 90.984H176.825V88.552H175.825H174.825V90.984H175.825ZM175.825 88.552V89.552H185.553V88.552V87.552H175.825V88.552ZM185.553 88.552H184.553V90.984H185.553H186.553V88.552H185.553ZM185.553 90.984V89.984H175.825V90.984V91.984H185.553V90.984ZM253.7 95.848H252.7V96.848H253.7V95.848ZM253.7 93.416V92.416H252.7V93.416H253.7ZM312.068 93.416H313.068V92.416H312.068V93.416ZM312.068 95.848V96.848H313.068V95.848H312.068ZM253.7 100.712H252.7V101.712H253.7V100.712ZM253.7 98.28V97.28H252.7V98.28H253.7ZM312.068 98.28H313.068V97.28H312.068V98.28ZM312.068 100.712V101.712H313.068V100.712H312.068ZM253.7 95.848H254.7V93.416H253.7H252.7V95.848H253.7ZM253.7 93.416V94.416H312.068V93.416V92.416H253.7V93.416ZM312.068 93.416H311.068V95.848H312.068H313.068V93.416H312.068ZM312.068 95.848V94.848H253.7V95.848V96.848H312.068V95.848ZM253.7 100.712H254.7V98.28H253.7H252.7V100.712H253.7ZM253.7 98.28V99.28H312.068V98.28V97.28H253.7V98.28ZM312.068 98.28H311.068V100.712H312.068H313.068V98.28H312.068ZM312.068 100.712V99.712H253.7V100.712V101.712H312.068V100.712ZM330.785 3.43201H329.785V4.43201H330.785V3.43201ZM330.785 1.00001V7.62939e-06H329.785V1.00001H330.785ZM359.969 1.00001H360.969V7.62939e-06H359.969V1.00001ZM359.969 3.43201V4.43201H360.969V3.43201H359.969ZM321.057 8.29601H320.057V9.29601H321.057V8.29601ZM321.057 5.86401V4.86401H320.057V5.86401H321.057ZM374.561 5.86401H375.561V4.86401H374.561V5.86401ZM374.561 8.29601V9.29601H375.561V8.29601H374.561ZM316.193 13.16H315.193V14.16H316.193V13.16ZM316.193 10.728V9.728H315.193V10.728H316.193ZM330.785 10.728H331.785V9.728H330.785V10.728ZM330.785 13.16V14.16H331.785V13.16H330.785ZM364.833 13.16H363.833V14.16H364.833V13.16ZM364.833 10.728V9.728H363.833V10.728H364.833ZM379.425 10.728H380.425V9.728H379.425V10.728ZM379.425 13.16V14.16H380.425V13.16H379.425ZM369.697 18.024H368.697V19.024H369.697V18.024ZM369.697 15.592V14.592H368.697V15.592H369.697ZM379.425 15.592H380.425V14.592H379.425V15.592ZM379.425 18.024V19.024H380.425V18.024H379.425ZM316.193 18.024H315.193V19.024H316.193V18.024ZM316.193 15.592V14.592H315.193V15.592H316.193ZM325.921 15.592H326.921V14.592H325.921V15.592ZM325.921 18.024V19.024H326.921V18.024H325.921ZM311.329 22.888H310.329V23.888H311.329V22.888ZM311.329 20.456V19.456H310.329V20.456H311.329ZM321.057 20.456H322.057V19.456H321.057V20.456ZM321.057 22.888V23.888H322.057V22.888H321.057ZM374.561 22.888H373.561V23.888H374.561V22.888ZM374.561 20.456V19.456H373.561V20.456H374.561ZM384.289 20.456H385.289V19.456H384.289V20.456ZM384.289 22.888V23.888H385.289V22.888H384.289ZM374.561 27.752H373.561V28.752H374.561V27.752ZM374.561 25.32V24.32H373.561V25.32H374.561ZM384.289 25.32H385.289V24.32H384.289V25.32ZM384.289 27.752V28.752H385.289V27.752H384.289ZM311.329 27.752H310.329V28.752H311.329V27.752ZM311.329 25.32V24.32H310.329V25.32H311.329ZM321.057 25.32H322.057V24.32H321.057V25.32ZM321.057 27.752V28.752H322.057V27.752H321.057ZM374.561 32.616H373.561V33.616H374.561V32.616ZM374.561 30.184V29.184H373.561V30.184H374.561ZM384.289 30.184H385.289V29.184H384.289V30.184ZM384.289 32.616V33.616H385.289V32.616H384.289ZM306.465 32.616H305.465V33.616H306.465V32.616ZM306.465 30.184V29.184H305.465V30.184H306.465ZM316.193 30.184H317.193V29.184H316.193V30.184ZM316.193 32.616V33.616H317.193V32.616H316.193ZM306.465 37.48H305.465V38.48H306.465V37.48ZM306.465 35.048V34.048H305.465V35.048H306.465ZM316.193 35.048H317.193V34.048H316.193V35.048ZM316.193 37.48V38.48H317.193V37.48H316.193ZM306.465 42.344H305.465V43.344H306.465V42.344ZM306.465 39.912V38.912H305.465V39.912H306.465ZM316.193 39.912H317.193V38.912H316.193V39.912ZM316.193 42.344V43.344H317.193V42.344H316.193ZM306.465 47.208H305.465V48.208H306.465V47.208ZM306.465 44.776V43.776H305.465V44.776H306.465ZM316.193 44.776H317.193V43.776H316.193V44.776ZM316.193 47.208V48.208H317.193V47.208H316.193ZM306.465 52.072H305.465V53.072H306.465V52.072ZM306.465 49.64V48.64H305.465V49.64H306.465ZM316.193 49.64H317.193V48.64H316.193V49.64ZM316.193 52.072V53.072H317.193V52.072H316.193ZM306.465 56.936H305.465V57.936H306.465V56.936ZM306.465 54.504V53.504H305.465V54.504H306.465ZM316.193 54.504H317.193V53.504H316.193V54.504ZM316.193 56.936V57.936H317.193V56.936H316.193ZM306.465 61.8H305.465V62.8H306.465V61.8ZM306.465 59.368V58.368H305.465V59.368H306.465ZM316.193 59.368H317.193V58.368H316.193V59.368ZM316.193 61.8V62.8H317.193V61.8H316.193ZM374.561 61.8H373.561V62.8H374.561V61.8ZM374.561 59.368V58.368H373.561V59.368H374.561ZM384.289 59.368H385.289V58.368H384.289V59.368ZM384.289 61.8V62.8H385.289V61.8H384.289ZM311.329 66.664H310.329V67.664H311.329V66.664ZM311.329 64.232V63.232H310.329V64.232H311.329ZM321.057 64.232H322.057V63.232H321.057V64.232ZM321.057 66.664V67.664H322.057V66.664H321.057ZM374.561 66.664H373.561V67.664H374.561V66.664ZM374.561 64.232V63.232H373.561V64.232H374.561ZM384.289 64.232H385.289V63.232H384.289V64.232ZM384.289 66.664V67.664H385.289V66.664H384.289ZM311.329 71.528H310.329V72.528H311.329V71.528ZM311.329 69.096V68.096H310.329V69.096H311.329ZM321.057 69.096H322.057V68.096H321.057V69.096ZM321.057 71.528V72.528H322.057V71.528H321.057ZM374.561 71.528H373.561V72.528H374.561V71.528ZM374.561 69.096V68.096H373.561V69.096H374.561ZM384.289 69.096H385.289V68.096H384.289V69.096ZM384.289 71.528V72.528H385.289V71.528H384.289ZM369.697 76.392H368.697V77.392H369.697V76.392ZM369.697 73.96V72.96H368.697V73.96H369.697ZM379.425 73.96H380.425V72.96H379.425V73.96ZM379.425 76.392V77.392H380.425V76.392H379.425ZM316.193 76.392H315.193V77.392H316.193V76.392ZM316.193 73.96V72.96H315.193V73.96H316.193ZM325.921 73.96H326.921V72.96H325.921V73.96ZM325.921 76.392V77.392H326.921V76.392H325.921ZM364.833 81.256H363.833V82.256H364.833V81.256ZM364.833 78.824V77.824H363.833V78.824H364.833ZM379.425 78.824H380.425V77.824H379.425V78.824ZM379.425 81.256V82.256H380.425V81.256H379.425ZM316.193 81.256H315.193V82.256H316.193V81.256ZM316.193 78.824V77.824H315.193V78.824H316.193ZM330.785 78.824H331.785V77.824H330.785V78.824ZM330.785 81.256V82.256H331.785V81.256H330.785ZM321.057 86.12H320.057V87.12H321.057V86.12ZM321.057 83.688V82.688H320.057V83.688H321.057ZM374.561 83.688H375.561V82.688H374.561V83.688ZM374.561 86.12V87.12H375.561V86.12H374.561ZM330.785 90.984H329.785V91.984H330.785V90.984ZM330.785 88.552V87.552H329.785V88.552H330.785ZM359.969 88.552H360.969V87.552H359.969V88.552ZM359.969 90.984V91.984H360.969V90.984H359.969ZM330.785 3.43201H331.785V1.00001H330.785H329.785V3.43201H330.785ZM330.785 1.00001V2.00001H359.969V1.00001V7.62939e-06H330.785V1.00001ZM359.969 1.00001H358.969V3.43201H359.969H360.969V1.00001H359.969ZM359.969 3.43201V2.43201H330.785V3.43201V4.43201H359.969V3.43201ZM321.057 8.29601H322.057V5.86401H321.057H320.057V8.29601H321.057ZM321.057 5.86401V6.86401H374.561V5.86401V4.86401H321.057V5.86401ZM374.561 5.86401H373.561V8.29601H374.561H375.561V5.86401H374.561ZM374.561 8.29601V7.29601H321.057V8.29601V9.29601H374.561V8.29601ZM316.193 13.16H317.193V10.728H316.193H315.193V13.16H316.193ZM316.193 10.728V11.728H330.785V10.728V9.728H316.193V10.728ZM330.785 10.728H329.785V13.16H330.785H331.785V10.728H330.785ZM330.785 13.16V12.16H316.193V13.16V14.16H330.785V13.16ZM364.833 13.16H365.833V10.728H364.833H363.833V13.16H364.833ZM364.833 10.728V11.728H379.425V10.728V9.728H364.833V10.728ZM379.425 10.728H378.425V13.16H379.425H380.425V10.728H379.425ZM379.425 13.16V12.16H364.833V13.16V14.16H379.425V13.16ZM369.697 18.024H370.697V15.592H369.697H368.697V18.024H369.697ZM369.697 15.592V16.592H379.425V15.592V14.592H369.697V15.592ZM379.425 15.592H378.425V18.024H379.425H380.425V15.592H379.425ZM379.425 18.024V17.024H369.697V18.024V19.024H379.425V18.024ZM316.193 18.024H317.193V15.592H316.193H315.193V18.024H316.193ZM316.193 15.592V16.592H325.921V15.592V14.592H316.193V15.592ZM325.921 15.592H324.921V18.024H325.921H326.921V15.592H325.921ZM325.921 18.024V17.024H316.193V18.024V19.024H325.921V18.024ZM311.329 22.888H312.329V20.456H311.329H310.329V22.888H311.329ZM311.329 20.456V21.456H321.057V20.456V19.456H311.329V20.456ZM321.057 20.456H320.057V22.888H321.057H322.057V20.456H321.057ZM321.057 22.888V21.888H311.329V22.888V23.888H321.057V22.888ZM374.561 22.888H375.561V20.456H374.561H373.561V22.888H374.561ZM374.561 20.456V21.456H384.289V20.456V19.456H374.561V20.456ZM384.289 20.456H383.289V22.888H384.289H385.289V20.456H384.289ZM384.289 22.888V21.888H374.561V22.888V23.888H384.289V22.888ZM374.561 27.752H375.561V25.32H374.561H373.561V27.752H374.561ZM374.561 25.32V26.32H384.289V25.32V24.32H374.561V25.32ZM384.289 25.32H383.289V27.752H384.289H385.289V25.32H384.289ZM384.289 27.752V26.752H374.561V27.752V28.752H384.289V27.752ZM311.329 27.752H312.329V25.32H311.329H310.329V27.752H311.329ZM311.329 25.32V26.32H321.057V25.32V24.32H311.329V25.32ZM321.057 25.32H320.057V27.752H321.057H322.057V25.32H321.057ZM321.057 27.752V26.752H311.329V27.752V28.752H321.057V27.752ZM374.561 32.616H375.561V30.184H374.561H373.561V32.616H374.561ZM374.561 30.184V31.184H384.289V30.184V29.184H374.561V30.184ZM384.289 30.184H383.289V32.616H384.289H385.289V30.184H384.289ZM384.289 32.616V31.616H374.561V32.616V33.616H384.289V32.616ZM306.465 32.616H307.465V30.184H306.465H305.465V32.616H306.465ZM306.465 30.184V31.184H316.193V30.184V29.184H306.465V30.184ZM316.193 30.184H315.193V32.616H316.193H317.193V30.184H316.193ZM316.193 32.616V31.616H306.465V32.616V33.616H316.193V32.616ZM306.465 37.48H307.465V35.048H306.465H305.465V37.48H306.465ZM306.465 35.048V36.048H316.193V35.048V34.048H306.465V35.048ZM316.193 35.048H315.193V37.48H316.193H317.193V35.048H316.193ZM316.193 37.48V36.48H306.465V37.48V38.48H316.193V37.48ZM306.465 42.344H307.465V39.912H306.465H305.465V42.344H306.465ZM306.465 39.912V40.912H316.193V39.912V38.912H306.465V39.912ZM316.193 39.912H315.193V42.344H316.193H317.193V39.912H316.193ZM316.193 42.344V41.344H306.465V42.344V43.344H316.193V42.344ZM306.465 47.208H307.465V44.776H306.465H305.465V47.208H306.465ZM306.465 44.776V45.776H316.193V44.776V43.776H306.465V44.776ZM316.193 44.776H315.193V47.208H316.193H317.193V44.776H316.193ZM316.193 47.208V46.208H306.465V47.208V48.208H316.193V47.208ZM306.465 52.072H307.465V49.64H306.465H305.465V52.072H306.465ZM306.465 49.64V50.64H316.193V49.64V48.64H306.465V49.64ZM316.193 49.64H315.193V52.072H316.193H317.193V49.64H316.193ZM316.193 52.072V51.072H306.465V52.072V53.072H316.193V52.072ZM306.465 56.936H307.465V54.504H306.465H305.465V56.936H306.465ZM306.465 54.504V55.504H316.193V54.504V53.504H306.465V54.504ZM316.193 54.504H315.193V56.936H316.193H317.193V54.504H316.193ZM316.193 56.936V55.936H306.465V56.936V57.936H316.193V56.936ZM306.465 61.8H307.465V59.368H306.465H305.465V61.8H306.465ZM306.465 59.368V60.368H316.193V59.368V58.368H306.465V59.368ZM316.193 59.368H315.193V61.8H316.193H317.193V59.368H316.193ZM316.193 61.8V60.8H306.465V61.8V62.8H316.193V61.8ZM374.561 61.8H375.561V59.368H374.561H373.561V61.8H374.561ZM374.561 59.368V60.368H384.289V59.368V58.368H374.561V59.368ZM384.289 59.368H383.289V61.8H384.289H385.289V59.368H384.289ZM384.289 61.8V60.8H374.561V61.8V62.8H384.289V61.8ZM311.329 66.664H312.329V64.232H311.329H310.329V66.664H311.329ZM311.329 64.232V65.232H321.057V64.232V63.232H311.329V64.232ZM321.057 64.232H320.057V66.664H321.057H322.057V64.232H321.057ZM321.057 66.664V65.664H311.329V66.664V67.664H321.057V66.664ZM374.561 66.664H375.561V64.232H374.561H373.561V66.664H374.561ZM374.561 64.232V65.232H384.289V64.232V63.232H374.561V64.232ZM384.289 64.232H383.289V66.664H384.289H385.289V64.232H384.289ZM384.289 66.664V65.664H374.561V66.664V67.664H384.289V66.664ZM311.329 71.528H312.329V69.096H311.329H310.329V71.528H311.329ZM311.329 69.096V70.096H321.057V69.096V68.096H311.329V69.096ZM321.057 69.096H320.057V71.528H321.057H322.057V69.096H321.057ZM321.057 71.528V70.528H311.329V71.528V72.528H321.057V71.528ZM374.561 71.528H375.561V69.096H374.561H373.561V71.528H374.561ZM374.561 69.096V70.096H384.289V69.096V68.096H374.561V69.096ZM384.289 69.096H383.289V71.528H384.289H385.289V69.096H384.289ZM384.289 71.528V70.528H374.561V71.528V72.528H384.289V71.528ZM369.697 76.392H370.697V73.96H369.697H368.697V76.392H369.697ZM369.697 73.96V74.96H379.425V73.96V72.96H369.697V73.96ZM379.425 73.96H378.425V76.392H379.425H380.425V73.96H379.425ZM379.425 76.392V75.392H369.697V76.392V77.392H379.425V76.392ZM316.193 76.392H317.193V73.96H316.193H315.193V76.392H316.193ZM316.193 73.96V74.96H325.921V73.96V72.96H316.193V73.96ZM325.921 73.96H324.921V76.392H325.921H326.921V73.96H325.921ZM325.921 76.392V75.392H316.193V76.392V77.392H325.921V76.392ZM364.833 81.256H365.833V78.824H364.833H363.833V81.256H364.833ZM364.833 78.824V79.824H379.425V78.824V77.824H364.833V78.824ZM379.425 78.824H378.425V81.256H379.425H380.425V78.824H379.425ZM379.425 81.256V80.256H364.833V81.256V82.256H379.425V81.256ZM316.193 81.256H317.193V78.824H316.193H315.193V81.256H316.193ZM316.193 78.824V79.824H330.785V78.824V77.824H316.193V78.824ZM330.785 78.824H329.785V81.256H330.785H331.785V78.824H330.785ZM330.785 81.256V80.256H316.193V81.256V82.256H330.785V81.256ZM321.057 86.12H322.057V83.688H321.057H320.057V86.12H321.057ZM321.057 83.688V84.688H374.561V83.688V82.688H321.057V83.688ZM374.561 83.688H373.561V86.12H374.561H375.561V83.688H374.561ZM374.561 86.12V85.12H321.057V86.12V87.12H374.561V86.12ZM330.785 90.984H331.785V88.552H330.785H329.785V90.984H330.785ZM330.785 88.552V89.552H359.969V88.552V87.552H330.785V88.552ZM359.969 88.552H358.969V90.984H359.969H360.969V88.552H359.969ZM359.969 90.984V89.984H330.785V90.984V91.984H359.969V90.984ZM398.829 3.43201H397.829V4.43201H398.829V3.43201ZM398.829 1.00001V7.62939e-06H397.829V1.00001H398.829ZM408.557 1.00001H409.557V7.62939e-06H408.557V1.00001ZM408.557 3.43201V4.43201H409.557V3.43201H408.557ZM398.829 8.29601H397.829V9.29601H398.829V8.29601ZM398.829 5.86401V4.86401H397.829V5.86401H398.829ZM408.557 5.86401H409.557V4.86401H408.557V5.86401ZM408.557 8.29601V9.29601H409.557V8.29601H408.557ZM398.829 13.16H397.829V14.16H398.829V13.16ZM398.829 10.728V9.728H397.829V10.728H398.829ZM408.557 10.728H409.557V9.728H408.557V10.728ZM408.557 13.16V14.16H409.557V13.16H408.557ZM398.829 18.024H397.829V19.024H398.829V18.024ZM398.829 15.592V14.592H397.829V15.592H398.829ZM408.557 15.592H409.557V14.592H408.557V15.592ZM408.557 18.024V19.024H409.557V18.024H408.557ZM398.829 22.888H397.829V23.888H398.829V22.888ZM398.829 20.456V19.456H397.829V20.456H398.829ZM408.557 20.456H409.557V19.456H408.557V20.456ZM408.557 22.888V23.888H409.557V22.888H408.557ZM398.829 27.752H397.829V28.752H398.829V27.752ZM398.829 25.32V24.32H397.829V25.32H398.829ZM408.557 25.32H409.557V24.32H408.557V25.32ZM408.557 27.752V28.752H409.557V27.752H408.557ZM398.829 32.616H397.829V33.616H398.829V32.616ZM398.829 30.184V29.184H397.829V30.184H398.829ZM408.557 30.184H409.557V29.184H408.557V30.184ZM408.557 32.616V33.616H409.557V32.616H408.557ZM398.829 37.48H397.829V38.48H398.829V37.48ZM398.829 35.048V34.048H397.829V35.048H398.829ZM408.557 35.048H409.557V34.048H408.557V35.048ZM408.557 37.48V38.48H409.557V37.48H408.557ZM398.829 42.344H397.829V43.344H398.829V42.344ZM398.829 39.912V38.912H397.829V39.912H398.829ZM408.557 39.912H409.557V38.912H408.557V39.912ZM408.557 42.344V43.344H409.557V42.344H408.557ZM398.829 47.208H397.829V48.208H398.829V47.208ZM398.829 44.776V43.776H397.829V44.776H398.829ZM408.557 44.776H409.557V43.776H408.557V44.776ZM408.557 47.208V48.208H409.557V47.208H408.557ZM398.829 52.072H397.829V53.072H398.829V52.072ZM398.829 49.64V48.64H397.829V49.64H398.829ZM408.557 49.64H409.557V48.64H408.557V49.64ZM408.557 52.072V53.072H409.557V52.072H408.557ZM398.829 56.936H397.829V57.936H398.829V56.936ZM398.829 54.504V53.504H397.829V54.504H398.829ZM408.557 54.504H409.557V53.504H408.557V54.504ZM408.557 56.936V57.936H409.557V56.936H408.557ZM398.829 61.8H397.829V62.8H398.829V61.8ZM398.829 59.368V58.368H397.829V59.368H398.829ZM408.557 59.368H409.557V58.368H408.557V59.368ZM408.557 61.8V62.8H409.557V61.8H408.557ZM398.829 66.664H397.829V67.664H398.829V66.664ZM398.829 64.232V63.232H397.829V64.232H398.829ZM408.557 64.232H409.557V63.232H408.557V64.232ZM408.557 66.664V67.664H409.557V66.664H408.557ZM398.829 71.528H397.829V72.528H398.829V71.528ZM398.829 69.096V68.096H397.829V69.096H398.829ZM408.557 69.096H409.557V68.096H408.557V69.096ZM408.557 71.528V72.528H409.557V71.528H408.557ZM398.829 76.392H397.829V77.392H398.829V76.392ZM398.829 73.96V72.96H397.829V73.96H398.829ZM408.557 73.96H409.557V72.96H408.557V73.96ZM408.557 76.392V77.392H409.557V76.392H408.557ZM398.829 81.256H397.829V82.256H398.829V81.256ZM398.829 78.824V77.824H397.829V78.824H398.829ZM408.557 78.824H409.557V77.824H408.557V78.824ZM408.557 81.256V82.256H409.557V81.256H408.557ZM398.829 86.12H397.829V87.12H398.829V86.12ZM398.829 83.688V82.688H397.829V83.688H398.829ZM408.557 83.688H409.557V82.688H408.557V83.688ZM408.557 86.12V87.12H409.557V86.12H408.557ZM398.829 90.984H397.829V91.984H398.829V90.984ZM398.829 88.552V87.552H397.829V88.552H398.829ZM408.557 88.552H409.557V87.552H408.557V88.552ZM408.557 90.984V91.984H409.557V90.984H408.557ZM398.829 3.43201H399.829V1.00001H398.829H397.829V3.43201H398.829ZM398.829 1.00001V2.00001H408.557V1.00001V7.62939e-06H398.829V1.00001ZM408.557 1.00001H407.557V3.43201H408.557H409.557V1.00001H408.557ZM408.557 3.43201V2.43201H398.829V3.43201V4.43201H408.557V3.43201ZM398.829 8.29601H399.829V5.86401H398.829H397.829V8.29601H398.829ZM398.829 5.86401V6.86401H408.557V5.86401V4.86401H398.829V5.86401ZM408.557 5.86401H407.557V8.29601H408.557H409.557V5.86401H408.557ZM408.557 8.29601V7.29601H398.829V8.29601V9.29601H408.557V8.29601ZM398.829 13.16H399.829V10.728H398.829H397.829V13.16H398.829ZM398.829 10.728V11.728H408.557V10.728V9.728H398.829V10.728ZM408.557 10.728H407.557V13.16H408.557H409.557V10.728H408.557ZM408.557 13.16V12.16H398.829V13.16V14.16H408.557V13.16ZM398.829 18.024H399.829V15.592H398.829H397.829V18.024H398.829ZM398.829 15.592V16.592H408.557V15.592V14.592H398.829V15.592ZM408.557 15.592H407.557V18.024H408.557H409.557V15.592H408.557ZM408.557 18.024V17.024H398.829V18.024V19.024H408.557V18.024ZM398.829 22.888H399.829V20.456H398.829H397.829V22.888H398.829ZM398.829 20.456V21.456H408.557V20.456V19.456H398.829V20.456ZM408.557 20.456H407.557V22.888H408.557H409.557V20.456H408.557ZM408.557 22.888V21.888H398.829V22.888V23.888H408.557V22.888ZM398.829 27.752H399.829V25.32H398.829H397.829V27.752H398.829ZM398.829 25.32V26.32H408.557V25.32V24.32H398.829V25.32ZM408.557 25.32H407.557V27.752H408.557H409.557V25.32H408.557ZM408.557 27.752V26.752H398.829V27.752V28.752H408.557V27.752ZM398.829 32.616H399.829V30.184H398.829H397.829V32.616H398.829ZM398.829 30.184V31.184H408.557V30.184V29.184H398.829V30.184ZM408.557 30.184H407.557V32.616H408.557H409.557V30.184H408.557ZM408.557 32.616V31.616H398.829V32.616V33.616H408.557V32.616ZM398.829 37.48H399.829V35.048H398.829H397.829V37.48H398.829ZM398.829 35.048V36.048H408.557V35.048V34.048H398.829V35.048ZM408.557 35.048H407.557V37.48H408.557H409.557V35.048H408.557ZM408.557 37.48V36.48H398.829V37.48V38.48H408.557V37.48ZM398.829 42.344H399.829V39.912H398.829H397.829V42.344H398.829ZM398.829 39.912V40.912H408.557V39.912V38.912H398.829V39.912ZM408.557 39.912H407.557V42.344H408.557H409.557V39.912H408.557ZM408.557 42.344V41.344H398.829V42.344V43.344H408.557V42.344ZM398.829 47.208H399.829V44.776H398.829H397.829V47.208H398.829ZM398.829 44.776V45.776H408.557V44.776V43.776H398.829V44.776ZM408.557 44.776H407.557V47.208H408.557H409.557V44.776H408.557ZM408.557 47.208V46.208H398.829V47.208V48.208H408.557V47.208ZM398.829 52.072H399.829V49.64H398.829H397.829V52.072H398.829ZM398.829 49.64V50.64H408.557V49.64V48.64H398.829V49.64ZM408.557 49.64H407.557V52.072H408.557H409.557V49.64H408.557ZM408.557 52.072V51.072H398.829V52.072V53.072H408.557V52.072ZM398.829 56.936H399.829V54.504H398.829H397.829V56.936H398.829ZM398.829 54.504V55.504H408.557V54.504V53.504H398.829V54.504ZM408.557 54.504H407.557V56.936H408.557H409.557V54.504H408.557ZM408.557 56.936V55.936H398.829V56.936V57.936H408.557V56.936ZM398.829 61.8H399.829V59.368H398.829H397.829V61.8H398.829ZM398.829 59.368V60.368H408.557V59.368V58.368H398.829V59.368ZM408.557 59.368H407.557V61.8H408.557H409.557V59.368H408.557ZM408.557 61.8V60.8H398.829V61.8V62.8H408.557V61.8ZM398.829 66.664H399.829V64.232H398.829H397.829V66.664H398.829ZM398.829 64.232V65.232H408.557V64.232V63.232H398.829V64.232ZM408.557 64.232H407.557V66.664H408.557H409.557V64.232H408.557ZM408.557 66.664V65.664H398.829V66.664V67.664H408.557V66.664ZM398.829 71.528H399.829V69.096H398.829H397.829V71.528H398.829ZM398.829 69.096V70.096H408.557V69.096V68.096H398.829V69.096ZM408.557 69.096H407.557V71.528H408.557H409.557V69.096H408.557ZM408.557 71.528V70.528H398.829V71.528V72.528H408.557V71.528ZM398.829 76.392H399.829V73.96H398.829H397.829V76.392H398.829ZM398.829 73.96V74.96H408.557V73.96V72.96H398.829V73.96ZM408.557 73.96H407.557V76.392H408.557H409.557V73.96H408.557ZM408.557 76.392V75.392H398.829V76.392V77.392H408.557V76.392ZM398.829 81.256H399.829V78.824H398.829H397.829V81.256H398.829ZM398.829 78.824V79.824H408.557V78.824V77.824H398.829V78.824ZM408.557 78.824H407.557V81.256H408.557H409.557V78.824H408.557ZM408.557 81.256V80.256H398.829V81.256V82.256H408.557V81.256ZM398.829 86.12H399.829V83.688H398.829H397.829V86.12H398.829ZM398.829 83.688V84.688H408.557V83.688V82.688H398.829V83.688ZM408.557 83.688H407.557V86.12H408.557H409.557V83.688H408.557ZM408.557 86.12V85.12H398.829V86.12V87.12H408.557V86.12ZM398.829 90.984H399.829V88.552H398.829H397.829V90.984H398.829ZM398.829 88.552V89.552H408.557V88.552V87.552H398.829V88.552ZM408.557 88.552H407.557V90.984H408.557H409.557V88.552H408.557ZM408.557 90.984V89.984H398.829V90.984V91.984H408.557V90.984ZM447.41 27.752H446.41V28.752H447.41V27.752ZM447.41 25.32V24.32H446.41V25.32H447.41ZM471.73 25.32H472.73V24.32H471.73V25.32ZM471.73 27.752V28.752H472.73V27.752H471.73ZM427.954 27.752H426.954V28.752H427.954V27.752ZM427.954 25.32V24.32H426.954V25.32H427.954ZM437.682 25.32H438.682V24.32H437.682V25.32ZM437.682 27.752V28.752H438.682V27.752H437.682ZM442.546 32.616H441.546V33.616H442.546V32.616ZM442.546 30.184V29.184H441.546V30.184H442.546ZM476.594 30.184H477.594V29.184H476.594V30.184ZM476.594 32.616V33.616H477.594V32.616H476.594ZM427.954 32.616H426.954V33.616H427.954V32.616ZM427.954 30.184V29.184H426.954V30.184H427.954ZM437.682 30.184H438.682V29.184H437.682V30.184ZM437.682 32.616V33.616H438.682V32.616H437.682ZM466.866 37.48H465.866V38.48H466.866V37.48ZM466.866 35.048V34.048H465.866V35.048H466.866ZM481.458 35.048H482.458V34.048H481.458V35.048ZM481.458 37.48V38.48H482.458V37.48H481.458ZM427.954 37.48H426.954V38.48H427.954V37.48ZM427.954 35.048V34.048H426.954V35.048H427.954ZM442.546 35.048H443.546V34.048H442.546V35.048ZM442.546 37.48V38.48H443.546V37.48H442.546ZM471.73 42.344H470.73V43.344H471.73V42.344ZM471.73 39.912V38.912H470.73V39.912H471.73ZM481.458 39.912H482.458V38.912H481.458V39.912ZM481.458 42.344V43.344H482.458V42.344H481.458ZM427.954 42.344H426.954V43.344H427.954V42.344ZM427.954 39.912V38.912H426.954V39.912H427.954ZM437.682 39.912H438.682V38.912H437.682V39.912ZM437.682 42.344V43.344H438.682V42.344H437.682ZM471.73 47.208H470.73V48.208H471.73V47.208ZM471.73 44.776V43.776H470.73V44.776H471.73ZM481.458 44.776H482.458V43.776H481.458V44.776ZM481.458 47.208V48.208H482.458V47.208H481.458ZM427.954 47.208H426.954V48.208H427.954V47.208ZM427.954 44.776V43.776H426.954V44.776H427.954ZM437.682 44.776H438.682V43.776H437.682V44.776ZM437.682 47.208V48.208H438.682V47.208H437.682ZM471.73 52.072H470.73V53.072H471.73V52.072ZM471.73 49.64V48.64H470.73V49.64H471.73ZM481.458 49.64H482.458V48.64H481.458V49.64ZM481.458 52.072V53.072H482.458V52.072H481.458ZM427.954 52.072H426.954V53.072H427.954V52.072ZM427.954 49.64V48.64H426.954V49.64H427.954ZM437.682 49.64H438.682V48.64H437.682V49.64ZM437.682 52.072V53.072H438.682V52.072H437.682ZM427.954 56.936H426.954V57.936H427.954V56.936ZM427.954 54.504V53.504H426.954V54.504H427.954ZM437.682 54.504H438.682V53.504H437.682V54.504ZM437.682 56.936V57.936H438.682V56.936H437.682ZM471.73 56.936H470.73V57.936H471.73V56.936ZM471.73 54.504V53.504H470.73V54.504H471.73ZM481.458 54.504H482.458V53.504H481.458V54.504ZM481.458 56.936V57.936H482.458V56.936H481.458ZM427.954 61.8H426.954V62.8H427.954V61.8ZM427.954 59.368V58.368H426.954V59.368H427.954ZM437.682 59.368H438.682V58.368H437.682V59.368ZM437.682 61.8V62.8H438.682V61.8H437.682ZM471.73 61.8H470.73V62.8H471.73V61.8ZM471.73 59.368V58.368H470.73V59.368H471.73ZM481.458 59.368H482.458V58.368H481.458V59.368ZM481.458 61.8V62.8H482.458V61.8H481.458ZM427.954 66.664H426.954V67.664H427.954V66.664ZM427.954 64.232V63.232H426.954V64.232H427.954ZM437.682 64.232H438.682V63.232H437.682V64.232ZM437.682 66.664V67.664H438.682V66.664H437.682ZM471.73 66.664H470.73V67.664H471.73V66.664ZM471.73 64.232V63.232H470.73V64.232H471.73ZM481.458 64.232H482.458V63.232H481.458V64.232ZM481.458 66.664V67.664H482.458V66.664H481.458ZM471.73 71.528H470.73V72.528H471.73V71.528ZM471.73 69.096V68.096H470.73V69.096H471.73ZM481.458 69.096H482.458V68.096H481.458V69.096ZM481.458 71.528V72.528H482.458V71.528H481.458ZM427.954 71.528H426.954V72.528H427.954V71.528ZM427.954 69.096V68.096H426.954V69.096H427.954ZM437.682 69.096H438.682V68.096H437.682V69.096ZM437.682 71.528V72.528H438.682V71.528H437.682ZM471.73 76.392H470.73V77.392H471.73V76.392ZM471.73 73.96V72.96H470.73V73.96H471.73ZM481.458 73.96H482.458V72.96H481.458V73.96ZM481.458 76.392V77.392H482.458V76.392H481.458ZM427.954 76.392H426.954V77.392H427.954V76.392ZM427.954 73.96V72.96H426.954V73.96H427.954ZM437.682 73.96H438.682V72.96H437.682V73.96ZM437.682 76.392V77.392H438.682V76.392H437.682ZM471.73 81.256H470.73V82.256H471.73V81.256ZM471.73 78.824V77.824H470.73V78.824H471.73ZM481.458 78.824H482.458V77.824H481.458V78.824ZM481.458 81.256V82.256H482.458V81.256H481.458ZM427.954 81.256H426.954V82.256H427.954V81.256ZM427.954 78.824V77.824H426.954V78.824H427.954ZM437.682 78.824H438.682V77.824H437.682V78.824ZM437.682 81.256V82.256H438.682V81.256H437.682ZM471.73 86.12H470.73V87.12H471.73V86.12ZM471.73 83.688V82.688H470.73V83.688H471.73ZM481.458 83.688H482.458V82.688H481.458V83.688ZM481.458 86.12V87.12H482.458V86.12H481.458ZM427.954 86.12H426.954V87.12H427.954V86.12ZM427.954 83.688V82.688H426.954V83.688H427.954ZM437.682 83.688H438.682V82.688H437.682V83.688ZM437.682 86.12V87.12H438.682V86.12H437.682ZM471.73 90.984H470.73V91.984H471.73V90.984ZM471.73 88.552V87.552H470.73V88.552H471.73ZM481.458 88.552H482.458V87.552H481.458V88.552ZM481.458 90.984V91.984H482.458V90.984H481.458ZM427.954 90.984H426.954V91.984H427.954V90.984ZM427.954 88.552V87.552H426.954V88.552H427.954ZM437.682 88.552H438.682V87.552H437.682V88.552ZM437.682 90.984V91.984H438.682V90.984H437.682ZM447.41 27.752H448.41V25.32H447.41H446.41V27.752H447.41ZM447.41 25.32V26.32H471.73V25.32V24.32H447.41V25.32ZM471.73 25.32H470.73V27.752H471.73H472.73V25.32H471.73ZM471.73 27.752V26.752H447.41V27.752V28.752H471.73V27.752ZM427.954 27.752H428.954V25.32H427.954H426.954V27.752H427.954ZM427.954 25.32V26.32H437.682V25.32V24.32H427.954V25.32ZM437.682 25.32H436.682V27.752H437.682H438.682V25.32H437.682ZM437.682 27.752V26.752H427.954V27.752V28.752H437.682V27.752ZM442.546 32.616H443.546V30.184H442.546H441.546V32.616H442.546ZM442.546 30.184V31.184H476.594V30.184V29.184H442.546V30.184ZM476.594 30.184H475.594V32.616H476.594H477.594V30.184H476.594ZM476.594 32.616V31.616H442.546V32.616V33.616H476.594V32.616ZM427.954 32.616H428.954V30.184H427.954H426.954V32.616H427.954ZM427.954 30.184V31.184H437.682V30.184V29.184H427.954V30.184ZM437.682 30.184H436.682V32.616H437.682H438.682V30.184H437.682ZM437.682 32.616V31.616H427.954V32.616V33.616H437.682V32.616ZM466.866 37.48H467.866V35.048H466.866H465.866V37.48H466.866ZM466.866 35.048V36.048H481.458V35.048V34.048H466.866V35.048ZM481.458 35.048H480.458V37.48H481.458H482.458V35.048H481.458ZM481.458 37.48V36.48H466.866V37.48V38.48H481.458V37.48ZM427.954 37.48H428.954V35.048H427.954H426.954V37.48H427.954ZM427.954 35.048V36.048H442.546V35.048V34.048H427.954V35.048ZM442.546 35.048H441.546V37.48H442.546H443.546V35.048H442.546ZM442.546 37.48V36.48H427.954V37.48V38.48H442.546V37.48ZM471.73 42.344H472.73V39.912H471.73H470.73V42.344H471.73ZM471.73 39.912V40.912H481.458V39.912V38.912H471.73V39.912ZM481.458 39.912H480.458V42.344H481.458H482.458V39.912H481.458ZM481.458 42.344V41.344H471.73V42.344V43.344H481.458V42.344ZM427.954 42.344H428.954V39.912H427.954H426.954V42.344H427.954ZM427.954 39.912V40.912H437.682V39.912V38.912H427.954V39.912ZM437.682 39.912H436.682V42.344H437.682H438.682V39.912H437.682ZM437.682 42.344V41.344H427.954V42.344V43.344H437.682V42.344ZM471.73 47.208H472.73V44.776H471.73H470.73V47.208H471.73ZM471.73 44.776V45.776H481.458V44.776V43.776H471.73V44.776ZM481.458 44.776H480.458V47.208H481.458H482.458V44.776H481.458ZM481.458 47.208V46.208H471.73V47.208V48.208H481.458V47.208ZM427.954 47.208H428.954V44.776H427.954H426.954V47.208H427.954ZM427.954 44.776V45.776H437.682V44.776V43.776H427.954V44.776ZM437.682 44.776H436.682V47.208H437.682H438.682V44.776H437.682ZM437.682 47.208V46.208H427.954V47.208V48.208H437.682V47.208ZM471.73 52.072H472.73V49.64H471.73H470.73V52.072H471.73ZM471.73 49.64V50.64H481.458V49.64V48.64H471.73V49.64ZM481.458 49.64H480.458V52.072H481.458H482.458V49.64H481.458ZM481.458 52.072V51.072H471.73V52.072V53.072H481.458V52.072ZM427.954 52.072H428.954V49.64H427.954H426.954V52.072H427.954ZM427.954 49.64V50.64H437.682V49.64V48.64H427.954V49.64ZM437.682 49.64H436.682V52.072H437.682H438.682V49.64H437.682ZM437.682 52.072V51.072H427.954V52.072V53.072H437.682V52.072ZM427.954 56.936H428.954V54.504H427.954H426.954V56.936H427.954ZM427.954 54.504V55.504H437.682V54.504V53.504H427.954V54.504ZM437.682 54.504H436.682V56.936H437.682H438.682V54.504H437.682ZM437.682 56.936V55.936H427.954V56.936V57.936H437.682V56.936ZM471.73 56.936H472.73V54.504H471.73H470.73V56.936H471.73ZM471.73 54.504V55.504H481.458V54.504V53.504H471.73V54.504ZM481.458 54.504H480.458V56.936H481.458H482.458V54.504H481.458ZM481.458 56.936V55.936H471.73V56.936V57.936H481.458V56.936ZM427.954 61.8H428.954V59.368H427.954H426.954V61.8H427.954ZM427.954 59.368V60.368H437.682V59.368V58.368H427.954V59.368ZM437.682 59.368H436.682V61.8H437.682H438.682V59.368H437.682ZM437.682 61.8V60.8H427.954V61.8V62.8H437.682V61.8ZM471.73 61.8H472.73V59.368H471.73H470.73V61.8H471.73ZM471.73 59.368V60.368H481.458V59.368V58.368H471.73V59.368ZM481.458 59.368H480.458V61.8H481.458H482.458V59.368H481.458ZM481.458 61.8V60.8H471.73V61.8V62.8H481.458V61.8ZM427.954 66.664H428.954V64.232H427.954H426.954V66.664H427.954ZM427.954 64.232V65.232H437.682V64.232V63.232H427.954V64.232ZM437.682 64.232H436.682V66.664H437.682H438.682V64.232H437.682ZM437.682 66.664V65.664H427.954V66.664V67.664H437.682V66.664ZM471.73 66.664H472.73V64.232H471.73H470.73V66.664H471.73ZM471.73 64.232V65.232H481.458V64.232V63.232H471.73V64.232ZM481.458 64.232H480.458V66.664H481.458H482.458V64.232H481.458ZM481.458 66.664V65.664H471.73V66.664V67.664H481.458V66.664ZM471.73 71.528H472.73V69.096H471.73H470.73V71.528H471.73ZM471.73 69.096V70.096H481.458V69.096V68.096H471.73V69.096ZM481.458 69.096H480.458V71.528H481.458H482.458V69.096H481.458ZM481.458 71.528V70.528H471.73V71.528V72.528H481.458V71.528ZM427.954 71.528H428.954V69.096H427.954H426.954V71.528H427.954ZM427.954 69.096V70.096H437.682V69.096V68.096H427.954V69.096ZM437.682 69.096H436.682V71.528H437.682H438.682V69.096H437.682ZM437.682 71.528V70.528H427.954V71.528V72.528H437.682V71.528ZM471.73 76.392H472.73V73.96H471.73H470.73V76.392H471.73ZM471.73 73.96V74.96H481.458V73.96V72.96H471.73V73.96ZM481.458 73.96H480.458V76.392H481.458H482.458V73.96H481.458ZM481.458 76.392V75.392H471.73V76.392V77.392H481.458V76.392ZM427.954 76.392H428.954V73.96H427.954H426.954V76.392H427.954ZM427.954 73.96V74.96H437.682V73.96V72.96H427.954V73.96ZM437.682 73.96H436.682V76.392H437.682H438.682V73.96H437.682ZM437.682 76.392V75.392H427.954V76.392V77.392H437.682V76.392ZM471.73 81.256H472.73V78.824H471.73H470.73V81.256H471.73ZM471.73 78.824V79.824H481.458V78.824V77.824H471.73V78.824ZM481.458 78.824H480.458V81.256H481.458H482.458V78.824H481.458ZM481.458 81.256V80.256H471.73V81.256V82.256H481.458V81.256ZM427.954 81.256H428.954V78.824H427.954H426.954V81.256H427.954ZM427.954 78.824V79.824H437.682V78.824V77.824H427.954V78.824ZM437.682 78.824H436.682V81.256H437.682H438.682V78.824H437.682ZM437.682 81.256V80.256H427.954V81.256V82.256H437.682V81.256ZM471.73 86.12H472.73V83.688H471.73H470.73V86.12H471.73ZM471.73 83.688V84.688H481.458V83.688V82.688H471.73V83.688ZM481.458 83.688H480.458V86.12H481.458H482.458V83.688H481.458ZM481.458 86.12V85.12H471.73V86.12V87.12H481.458V86.12ZM427.954 86.12H428.954V83.688H427.954H426.954V86.12H427.954ZM427.954 83.688V84.688H437.682V83.688V82.688H427.954V83.688ZM437.682 83.688H436.682V86.12H437.682H438.682V83.688H437.682ZM437.682 86.12V85.12H427.954V86.12V87.12H437.682V86.12ZM471.73 90.984H472.73V88.552H471.73H470.73V90.984H471.73ZM471.73 88.552V89.552H481.458V88.552V87.552H471.73V88.552ZM481.458 88.552H480.458V90.984H481.458H482.458V88.552H481.458ZM481.458 90.984V89.984H471.73V90.984V91.984H481.458V90.984ZM427.954 90.984H428.954V88.552H427.954H426.954V90.984H427.954ZM427.954 88.552V89.552H437.682V88.552V87.552H427.954V88.552ZM437.682 88.552H436.682V90.984H437.682H438.682V88.552H437.682ZM437.682 90.984V89.984H427.954V90.984V91.984H437.682V90.984Z" fill="black" fill-opacity="0.27" mask="url(#path-1-outside-1_3_13)"/>
</svg>
