<svg width="498" height="102" viewBox="0 0 498 102" fill="none" xmlns="http://www.w3.org/2000/svg">
<mask id="path-1-outside-1_3_13" maskUnits="userSpaceOnUse" x="-0.864014" y="-0.0159912" width="499" height="102" fill="black">
<rect fill="white" x="-0.864014" y="-0.0159912" width="499" height="102"/>
<path d="M0.999987 27.752V25.32H10.728V27.752H0.999987ZM0.999987 32.616V30.184H20.456V32.616H0.999987ZM10.728 37.48V35.048H30.184V37.48H10.728ZM20.456 42.344V39.912H39.912V42.344H20.456ZM30.184 47.208V44.776H49.64V47.208H30.184ZM39.912 52.072V49.64H59.368V52.072H39.912ZM49.64 56.936V54.504H59.368V56.936H49.64ZM39.912 61.8V59.368H59.368V61.8H39.912ZM30.184 66.664V64.232H49.64V66.664H30.184ZM20.456 71.528V69.096H39.912V71.528H20.456ZM10.728 76.392V73.96H30.184V76.392H10.728ZM0.999987 81.256V78.824H20.456V81.256H0.999987ZM0.999987 86.12V83.688H10.728V86.12H0.999987ZM253.7 95.848V93.416H312.068V95.848H253.7ZM253.7 100.712V98.28H312.068V100.712H253.7ZM346.145 3.43201V1.00001H375.329V3.43201H346.145ZM336.417 8.29601V5.86401H389.921V8.29601H336.417ZM331.553 13.16V10.728H346.145V13.16H331.553ZM380.193 13.16V10.728H394.785V13.16H380.193ZM385.057 18.024V15.592H394.785V18.024H385.057ZM331.553 18.024V15.592H341.281V18.024H331.553ZM326.689 22.888V20.456H336.417V22.888H326.689ZM389.921 22.888V20.456H399.649V22.888H389.921ZM389.921 27.752V25.32H399.649V27.752H389.921ZM326.689 27.752V25.32H336.417V27.752H326.689ZM389.921 32.616V30.184H399.649V32.616H389.921ZM321.825 32.616V30.184H331.553V32.616H321.825ZM321.825 37.48V35.048H331.553V37.48H321.825ZM321.825 42.344V39.912H331.553V42.344H321.825ZM321.825 47.208V44.776H331.553V47.208H321.825ZM321.825 52.072V49.64H331.553V52.072H321.825ZM321.825 56.936V54.504H331.553V56.936H321.825ZM321.825 61.8V59.368H331.553V61.8H321.825ZM389.921 61.8V59.368H399.649V61.8H389.921ZM326.689 66.664V64.232H336.417V66.664H326.689ZM389.921 66.664V64.232H399.649V66.664H389.921ZM326.689 71.528V69.096H336.417V71.528H326.689ZM389.921 71.528V69.096H399.649V71.528H389.921ZM385.057 76.392V73.96H394.785V76.392H385.057ZM331.553 76.392V73.96H341.281V76.392H331.553ZM380.193 81.256V78.824H394.785V81.256H380.193ZM331.553 81.256V78.824H346.145V81.256H331.553ZM336.417 86.12V83.688H389.921V86.12H336.417ZM346.145 90.984V88.552H375.329V90.984H346.145ZM414.189 3.43201V1.00001H423.917V3.43201H414.189ZM414.189 8.29601V5.86401H423.917V8.29601H414.189ZM414.189 13.16V10.728H423.917V13.16H414.189ZM414.189 18.024V15.592H423.917V18.024H414.189ZM414.189 22.888V20.456H423.917V22.888H414.189ZM414.189 27.752V25.32H423.917V27.752H414.189ZM414.189 32.616V30.184H423.917V32.616H414.189ZM414.189 37.48V35.048H423.917V37.48H414.189ZM414.189 42.344V39.912H423.917V42.344H414.189ZM414.189 47.208V44.776H423.917V47.208H414.189ZM414.189 52.072V49.64H423.917V52.072H414.189ZM414.189 56.936V54.504H423.917V56.936H414.189ZM414.189 61.8V59.368H423.917V61.8H414.189ZM414.189 66.664V64.232H423.917V66.664H414.189ZM414.189 71.528V69.096H423.917V71.528H414.189ZM414.189 76.392V73.96H423.917V76.392H414.189ZM414.189 81.256V78.824H423.917V81.256H414.189ZM414.189 86.12V83.688H423.917V86.12H414.189ZM414.189 90.984V88.552H423.917V90.984H414.189ZM462.77 27.752V25.32H487.09V27.752H462.77ZM443.314 27.752V25.32H453.042V27.752H443.314ZM457.906 32.616V30.184H491.954V32.616H457.906ZM443.314 32.616V30.184H453.042V32.616H443.314ZM482.226 37.48V35.048H496.818V37.48H482.226ZM443.314 37.48V35.048H457.906V37.48H443.314ZM487.09 42.344V39.912H496.818V42.344H487.09ZM443.314 42.344V39.912H453.042V42.344H443.314ZM487.09 47.208V44.776H496.818V47.208H487.09ZM443.314 47.208V44.776H453.042V47.208H443.314ZM487.09 52.072V49.64H496.818V52.072H487.09ZM443.314 52.072V49.64H453.042V52.072H443.314ZM443.314 56.936V54.504H453.042V56.936H443.314ZM487.09 56.936V54.504H496.818V56.936H487.09ZM443.314 61.8V59.368H453.042V61.8H443.314ZM487.09 61.8V59.368H496.818V61.8H487.09ZM443.314 66.664V64.232H453.042V66.664H443.314ZM487.09 66.664V64.232H496.818V66.664H487.09ZM487.09 71.528V69.096H496.818V71.528H487.09ZM443.314 71.528V69.096H453.042V71.528H443.314ZM487.09 76.392V73.96H496.818V76.392H487.09ZM443.314 76.392V73.96H453.042V76.392H443.314ZM487.09 81.256V78.824H496.818V81.256H487.09ZM443.314 81.256V78.824H453.042V81.256H443.314ZM487.09 86.12V83.688H496.818V86.12H487.09ZM443.314 86.12V83.688H453.042V86.12H443.314ZM487.09 90.984V88.552H496.818V90.984H487.09ZM443.314 90.984V88.552H453.042V90.984H443.314Z"/>
<path d="M93.189 3.43201V1.00001H136.965V3.43201H93.189ZM93.189 8.29601V5.86401H146.693V8.29601H93.189ZM136.965 13.16V10.728H151.557V13.16H136.965ZM93.189 13.16V10.728H102.917V13.16H93.189ZM141.829 18.024V15.592H151.557V18.024H141.829ZM93.189 18.024V15.592H102.917V18.024H93.189ZM146.693 22.888V20.456H156.421V22.888H146.693ZM93.189 22.888V20.456H102.917V22.888H93.189ZM93.189 27.752V25.32H102.917V27.752H93.189ZM146.693 27.752V25.32H156.421V27.752H146.693ZM151.557 32.616V30.184H161.285V32.616H151.557ZM93.189 32.616V30.184H102.917V32.616H93.189ZM93.189 37.48V35.048H102.917V37.48H93.189ZM151.557 37.48V35.048H161.285V37.48H151.557ZM93.189 42.344V39.912H102.917V42.344H93.189ZM151.557 42.344V39.912H161.285V42.344H151.557ZM151.557 47.208V44.776H161.285V47.208H151.557ZM93.189 47.208V44.776H102.917V47.208H93.189ZM93.189 52.072V49.64H102.917V52.072H93.189ZM151.557 52.072V49.64H161.285V52.072H151.557ZM151.557 56.936V54.504H161.285V56.936H151.557ZM93.189 56.936V54.504H102.917V56.936H93.189ZM151.557 61.8V59.368H161.285V61.8H151.557ZM93.189 61.8V59.368H102.917V61.8H93.189ZM146.693 66.664V64.232H156.421V66.664H146.693ZM93.189 66.664V64.232H102.917V66.664H93.189ZM146.693 71.528V69.096H156.421V71.528H146.693ZM93.189 71.528V69.096H102.917V71.528H93.189ZM141.829 76.392V73.96H151.557V76.392H141.829ZM93.189 76.392V73.96H102.917V76.392H93.189ZM93.189 81.256V78.824H102.917V81.256H93.189ZM136.965 81.256V78.824H151.557V81.256H136.965ZM93.189 86.12V83.688H146.693V86.12H93.189ZM93.189 90.984V88.552H136.965V90.984H93.189ZM205.009 3.43201V1.00001H214.737V3.43201H205.009ZM205.009 8.29601V5.86401H214.737V8.29601H205.009ZM200.145 13.16V10.728H219.601V13.16H200.145ZM200.145 18.024V15.592H219.601V18.024H200.145ZM195.281 22.888V20.456H205.009V22.888H195.281ZM214.737 22.888V20.456H224.465V22.888H214.737ZM195.281 27.752V25.32H205.009V27.752H195.281ZM214.737 27.752V25.32H224.465V27.752H214.737ZM214.737 32.616V30.184H224.465V32.616H214.737ZM195.281 32.616V30.184H205.009V32.616H195.281ZM190.417 37.48V35.048H200.145V37.48H190.417ZM219.601 37.48V35.048H229.329V37.48H219.601ZM190.417 42.344V39.912H200.145V42.344H190.417ZM219.601 42.344V39.912H229.329V42.344H219.601ZM190.417 47.208V44.776H200.145V47.208H190.417ZM219.601 47.208V44.776H229.329V47.208H219.601ZM224.465 52.072V49.64H234.193V52.072H224.465ZM185.553 52.072V49.64H195.281V52.072H185.553ZM185.553 56.936V54.504H234.193V56.936H185.553ZM185.553 61.8V59.368H234.193V61.8H185.553ZM180.689 66.664V64.232H190.417V66.664H180.689ZM229.329 66.664V64.232H239.057V66.664H229.329ZM229.329 71.528V69.096H239.057V71.528H229.329ZM180.689 71.528V69.096H190.417V71.528H180.689ZM180.689 76.392V73.96H190.417V76.392H180.689ZM229.329 76.392V73.96H239.057V76.392H229.329ZM175.825 81.256V78.824H185.553V81.256H175.825ZM234.193 81.256V78.824H243.921V81.256H234.193ZM234.193 86.12V83.688H243.921V86.12H234.193ZM175.825 86.12V83.688H185.553V86.12H175.825ZM234.193 90.984V88.552H243.921V90.984H234.193ZM175.825 90.984V88.552H185.553V90.984H175.825Z"/>
</mask>
<path d="M0.999987 27.752V25.32H10.728V27.752H0.999987ZM0.999987 32.616V30.184H20.456V32.616H0.999987ZM10.728 37.48V35.048H30.184V37.48H10.728ZM20.456 42.344V39.912H39.912V42.344H20.456ZM30.184 47.208V44.776H49.64V47.208H30.184ZM39.912 52.072V49.64H59.368V52.072H39.912ZM49.64 56.936V54.504H59.368V56.936H49.64ZM39.912 61.8V59.368H59.368V61.8H39.912ZM30.184 66.664V64.232H49.64V66.664H30.184ZM20.456 71.528V69.096H39.912V71.528H20.456ZM10.728 76.392V73.96H30.184V76.392H10.728ZM0.999987 81.256V78.824H20.456V81.256H0.999987ZM0.999987 86.12V83.688H10.728V86.12H0.999987ZM253.7 95.848V93.416H312.068V95.848H253.7ZM253.7 100.712V98.28H312.068V100.712H253.7ZM346.145 3.43201V1.00001H375.329V3.43201H346.145ZM336.417 8.29601V5.86401H389.921V8.29601H336.417ZM331.553 13.16V10.728H346.145V13.16H331.553ZM380.193 13.16V10.728H394.785V13.16H380.193ZM385.057 18.024V15.592H394.785V18.024H385.057ZM331.553 18.024V15.592H341.281V18.024H331.553ZM326.689 22.888V20.456H336.417V22.888H326.689ZM389.921 22.888V20.456H399.649V22.888H389.921ZM389.921 27.752V25.32H399.649V27.752H389.921ZM326.689 27.752V25.32H336.417V27.752H326.689ZM389.921 32.616V30.184H399.649V32.616H389.921ZM321.825 32.616V30.184H331.553V32.616H321.825ZM321.825 37.48V35.048H331.553V37.48H321.825ZM321.825 42.344V39.912H331.553V42.344H321.825ZM321.825 47.208V44.776H331.553V47.208H321.825ZM321.825 52.072V49.64H331.553V52.072H321.825ZM321.825 56.936V54.504H331.553V56.936H321.825ZM321.825 61.8V59.368H331.553V61.8H321.825ZM389.921 61.8V59.368H399.649V61.8H389.921ZM326.689 66.664V64.232H336.417V66.664H326.689ZM389.921 66.664V64.232H399.649V66.664H389.921ZM326.689 71.528V69.096H336.417V71.528H326.689ZM389.921 71.528V69.096H399.649V71.528H389.921ZM385.057 76.392V73.96H394.785V76.392H385.057ZM331.553 76.392V73.96H341.281V76.392H331.553ZM380.193 81.256V78.824H394.785V81.256H380.193ZM331.553 81.256V78.824H346.145V81.256H331.553ZM336.417 86.12V83.688H389.921V86.12H336.417ZM346.145 90.984V88.552H375.329V90.984H346.145ZM414.189 3.43201V1.00001H423.917V3.43201H414.189ZM414.189 8.29601V5.86401H423.917V8.29601H414.189ZM414.189 13.16V10.728H423.917V13.16H414.189ZM414.189 18.024V15.592H423.917V18.024H414.189ZM414.189 22.888V20.456H423.917V22.888H414.189ZM414.189 27.752V25.32H423.917V27.752H414.189ZM414.189 32.616V30.184H423.917V32.616H414.189ZM414.189 37.48V35.048H423.917V37.48H414.189ZM414.189 42.344V39.912H423.917V42.344H414.189ZM414.189 47.208V44.776H423.917V47.208H414.189ZM414.189 52.072V49.64H423.917V52.072H414.189ZM414.189 56.936V54.504H423.917V56.936H414.189ZM414.189 61.8V59.368H423.917V61.8H414.189ZM414.189 66.664V64.232H423.917V66.664H414.189ZM414.189 71.528V69.096H423.917V71.528H414.189ZM414.189 76.392V73.96H423.917V76.392H414.189ZM414.189 81.256V78.824H423.917V81.256H414.189ZM414.189 86.12V83.688H423.917V86.12H414.189ZM414.189 90.984V88.552H423.917V90.984H414.189ZM462.77 27.752V25.32H487.09V27.752H462.77ZM443.314 27.752V25.32H453.042V27.752H443.314ZM457.906 32.616V30.184H491.954V32.616H457.906ZM443.314 32.616V30.184H453.042V32.616H443.314ZM482.226 37.48V35.048H496.818V37.48H482.226ZM443.314 37.48V35.048H457.906V37.48H443.314ZM487.09 42.344V39.912H496.818V42.344H487.09ZM443.314 42.344V39.912H453.042V42.344H443.314ZM487.09 47.208V44.776H496.818V47.208H487.09ZM443.314 47.208V44.776H453.042V47.208H443.314ZM487.09 52.072V49.64H496.818V52.072H487.09ZM443.314 52.072V49.64H453.042V52.072H443.314ZM443.314 56.936V54.504H453.042V56.936H443.314ZM487.09 56.936V54.504H496.818V56.936H487.09ZM443.314 61.8V59.368H453.042V61.8H443.314ZM487.09 61.8V59.368H496.818V61.8H487.09ZM443.314 66.664V64.232H453.042V66.664H443.314ZM487.09 66.664V64.232H496.818V66.664H487.09ZM487.09 71.528V69.096H496.818V71.528H487.09ZM443.314 71.528V69.096H453.042V71.528H443.314ZM487.09 76.392V73.96H496.818V76.392H487.09ZM443.314 76.392V73.96H453.042V76.392H443.314ZM487.09 81.256V78.824H496.818V81.256H487.09ZM443.314 81.256V78.824H453.042V81.256H443.314ZM487.09 86.12V83.688H496.818V86.12H487.09ZM443.314 86.12V83.688H453.042V86.12H443.314ZM487.09 90.984V88.552H496.818V90.984H487.09ZM443.314 90.984V88.552H453.042V90.984H443.314Z" fill="#DB1E2F"/>
<path d="M93.189 3.43201V1.00001H136.965V3.43201H93.189ZM93.189 8.29601V5.86401H146.693V8.29601H93.189ZM136.965 13.16V10.728H151.557V13.16H136.965ZM93.189 13.16V10.728H102.917V13.16H93.189ZM141.829 18.024V15.592H151.557V18.024H141.829ZM93.189 18.024V15.592H102.917V18.024H93.189ZM146.693 22.888V20.456H156.421V22.888H146.693ZM93.189 22.888V20.456H102.917V22.888H93.189ZM93.189 27.752V25.32H102.917V27.752H93.189ZM146.693 27.752V25.32H156.421V27.752H146.693ZM151.557 32.616V30.184H161.285V32.616H151.557ZM93.189 32.616V30.184H102.917V32.616H93.189ZM93.189 37.48V35.048H102.917V37.48H93.189ZM151.557 37.48V35.048H161.285V37.48H151.557ZM93.189 42.344V39.912H102.917V42.344H93.189ZM151.557 42.344V39.912H161.285V42.344H151.557ZM151.557 47.208V44.776H161.285V47.208H151.557ZM93.189 47.208V44.776H102.917V47.208H93.189ZM93.189 52.072V49.64H102.917V52.072H93.189ZM151.557 52.072V49.64H161.285V52.072H151.557ZM151.557 56.936V54.504H161.285V56.936H151.557ZM93.189 56.936V54.504H102.917V56.936H93.189ZM151.557 61.8V59.368H161.285V61.8H151.557ZM93.189 61.8V59.368H102.917V61.8H93.189ZM146.693 66.664V64.232H156.421V66.664H146.693ZM93.189 66.664V64.232H102.917V66.664H93.189ZM146.693 71.528V69.096H156.421V71.528H146.693ZM93.189 71.528V69.096H102.917V71.528H93.189ZM141.829 76.392V73.96H151.557V76.392H141.829ZM93.189 76.392V73.96H102.917V76.392H93.189ZM93.189 81.256V78.824H102.917V81.256H93.189ZM136.965 81.256V78.824H151.557V81.256H136.965ZM93.189 86.12V83.688H146.693V86.12H93.189ZM93.189 90.984V88.552H136.965V90.984H93.189ZM205.009 3.43201V1.00001H214.737V3.43201H205.009ZM205.009 8.29601V5.86401H214.737V8.29601H205.009ZM200.145 13.16V10.728H219.601V13.16H200.145ZM200.145 18.024V15.592H219.601V18.024H200.145ZM195.281 22.888V20.456H205.009V22.888H195.281ZM214.737 22.888V20.456H224.465V22.888H214.737ZM195.281 27.752V25.32H205.009V27.752H195.281ZM214.737 27.752V25.32H224.465V27.752H214.737ZM214.737 32.616V30.184H224.465V32.616H214.737ZM195.281 32.616V30.184H205.009V32.616H195.281ZM190.417 37.48V35.048H200.145V37.48H190.417ZM219.601 37.48V35.048H229.329V37.48H219.601ZM190.417 42.344V39.912H200.145V42.344H190.417ZM219.601 42.344V39.912H229.329V42.344H219.601ZM190.417 47.208V44.776H200.145V47.208H190.417ZM219.601 47.208V44.776H229.329V47.208H219.601ZM224.465 52.072V49.64H234.193V52.072H224.465ZM185.553 52.072V49.64H195.281V52.072H185.553ZM185.553 56.936V54.504H234.193V56.936H185.553ZM185.553 61.8V59.368H234.193V61.8H185.553ZM180.689 66.664V64.232H190.417V66.664H180.689ZM229.329 66.664V64.232H239.057V66.664H229.329ZM229.329 71.528V69.096H239.057V71.528H229.329ZM180.689 71.528V69.096H190.417V71.528H180.689ZM180.689 76.392V73.96H190.417V76.392H180.689ZM229.329 76.392V73.96H239.057V76.392H229.329ZM175.825 81.256V78.824H185.553V81.256H175.825ZM234.193 81.256V78.824H243.921V81.256H234.193ZM234.193 86.12V83.688H243.921V86.12H234.193ZM175.825 86.12V83.688H185.553V86.12H175.825ZM234.193 90.984V88.552H243.921V90.984H234.193ZM175.825 90.984V88.552H185.553V90.984H175.825Z" fill="white"/>
<path d="M0.999987 27.752H-1.33514e-05V28.752H0.999987V27.752ZM0.999987 25.32V24.32H-1.33514e-05V25.32H0.999987ZM10.728 25.32H11.728V24.32H10.728V25.32ZM10.728 27.752V28.752H11.728V27.752H10.728ZM0.999987 32.616H-1.33514e-05V33.616H0.999987V32.616ZM0.999987 30.184V29.184H-1.33514e-05V30.184H0.999987ZM20.456 30.184H21.456V29.184H20.456V30.184ZM20.456 32.616V33.616H21.456V32.616H20.456ZM10.728 37.48H9.72799V38.48H10.728V37.48ZM10.728 35.048V34.048H9.72799V35.048H10.728ZM30.184 35.048H31.184V34.048H30.184V35.048ZM30.184 37.48V38.48H31.184V37.48H30.184ZM20.456 42.344H19.456V43.344H20.456V42.344ZM20.456 39.912V38.912H19.456V39.912H20.456ZM39.912 39.912H40.912V38.912H39.912V39.912ZM39.912 42.344V43.344H40.912V42.344H39.912ZM30.184 47.208H29.184V48.208H30.184V47.208ZM30.184 44.776V43.776H29.184V44.776H30.184ZM49.64 44.776H50.64V43.776H49.64V44.776ZM49.64 47.208V48.208H50.64V47.208H49.64ZM39.912 52.072H38.912V53.072H39.912V52.072ZM39.912 49.64V48.64H38.912V49.64H39.912ZM59.368 49.64H60.368V48.64H59.368V49.64ZM59.368 52.072V53.072H60.368V52.072H59.368ZM49.64 56.936H48.64V57.936H49.64V56.936ZM49.64 54.504V53.504H48.64V54.504H49.64ZM59.368 54.504H60.368V53.504H59.368V54.504ZM59.368 56.936V57.936H60.368V56.936H59.368ZM39.912 61.8H38.912V62.8H39.912V61.8ZM39.912 59.368V58.368H38.912V59.368H39.912ZM59.368 59.368H60.368V58.368H59.368V59.368ZM59.368 61.8V62.8H60.368V61.8H59.368ZM30.184 66.664H29.184V67.664H30.184V66.664ZM30.184 64.232V63.232H29.184V64.232H30.184ZM49.64 64.232H50.64V63.232H49.64V64.232ZM49.64 66.664V67.664H50.64V66.664H49.64ZM20.456 71.528H19.456V72.528H20.456V71.528ZM20.456 69.096V68.096H19.456V69.096H20.456ZM39.912 69.096H40.912V68.096H39.912V69.096ZM39.912 71.528V72.528H40.912V71.528H39.912ZM10.728 76.392H9.72799V77.392H10.728V76.392ZM10.728 73.96V72.96H9.72799V73.96H10.728ZM30.184 73.96H31.184V72.96H30.184V73.96ZM30.184 76.392V77.392H31.184V76.392H30.184ZM0.999987 81.256H-1.33514e-05V82.256H0.999987V81.256ZM0.999987 78.824V77.824H-1.33514e-05V78.824H0.999987ZM20.456 78.824H21.456V77.824H20.456V78.824ZM20.456 81.256V82.256H21.456V81.256H20.456ZM0.999987 86.12H-1.33514e-05V87.12H0.999987V86.12ZM0.999987 83.688V82.688H-1.33514e-05V83.688H0.999987ZM10.728 83.688H11.728V82.688H10.728V83.688ZM10.728 86.12V87.12H11.728V86.12H10.728ZM0.999987 27.752H1.99999V25.32H0.999987H-1.33514e-05V27.752H0.999987ZM0.999987 25.32V26.32H10.728V25.32V24.32H0.999987V25.32ZM10.728 25.32H9.72799V27.752H10.728H11.728V25.32H10.728ZM10.728 27.752V26.752H0.999987V27.752V28.752H10.728V27.752ZM0.999987 32.616H1.99999V30.184H0.999987H-1.33514e-05V32.616H0.999987ZM0.999987 30.184V31.184H20.456V30.184V29.184H0.999987V30.184ZM20.456 30.184H19.456V32.616H20.456H21.456V30.184H20.456ZM20.456 32.616V31.616H0.999987V32.616V33.616H20.456V32.616ZM10.728 37.48H11.728V35.048H10.728H9.72799V37.48H10.728ZM10.728 35.048V36.048H30.184V35.048V34.048H10.728V35.048ZM30.184 35.048H29.184V37.48H30.184H31.184V35.048H30.184ZM30.184 37.48V36.48H10.728V37.48V38.48H30.184V37.48ZM20.456 42.344H21.456V39.912H20.456H19.456V42.344H20.456ZM20.456 39.912V40.912H39.912V39.912V38.912H20.456V39.912ZM39.912 39.912H38.912V42.344H39.912H40.912V39.912H39.912ZM39.912 42.344V41.344H20.456V42.344V43.344H39.912V42.344ZM30.184 47.208H31.184V44.776H30.184H29.184V47.208H30.184ZM30.184 44.776V45.776H49.64V44.776V43.776H30.184V44.776ZM49.64 44.776H48.64V47.208H49.64H50.64V44.776H49.64ZM49.64 47.208V46.208H30.184V47.208V48.208H49.64V47.208ZM39.912 52.072H40.912V49.64H39.912H38.912V52.072H39.912ZM39.912 49.64V50.64H59.368V49.64V48.64H39.912V49.64ZM59.368 49.64H58.368V52.072H59.368H60.368V49.64H59.368ZM59.368 52.072V51.072H39.912V52.072V53.072H59.368V52.072ZM49.64 56.936H50.64V54.504H49.64H48.64V56.936H49.64ZM49.64 54.504V55.504H59.368V54.504V53.504H49.64V54.504ZM59.368 54.504H58.368V56.936H59.368H60.368V54.504H59.368ZM59.368 56.936V55.936H49.64V56.936V57.936H59.368V56.936ZM39.912 61.8H40.912V59.368H39.912H38.912V61.8H39.912ZM39.912 59.368V60.368H59.368V59.368V58.368H39.912V59.368ZM59.368 59.368H58.368V61.8H59.368H60.368V59.368H59.368ZM59.368 61.8V60.8H39.912V61.8V62.8H59.368V61.8ZM30.184 66.664H31.184V64.232H30.184H29.184V66.664H30.184ZM30.184 64.232V65.232H49.64V64.232V63.232H30.184V64.232ZM49.64 64.232H48.64V66.664H49.64H50.64V64.232H49.64ZM49.64 66.664V65.664H30.184V66.664V67.664H49.64V66.664ZM20.456 71.528H21.456V69.096H20.456H19.456V71.528H20.456ZM20.456 69.096V70.096H39.912V69.096V68.096H20.456V69.096ZM39.912 69.096H38.912V71.528H39.912H40.912V69.096H39.912ZM39.912 71.528V70.528H20.456V71.528V72.528H39.912V71.528ZM10.728 76.392H11.728V73.96H10.728H9.72799V76.392H10.728ZM10.728 73.96V74.96H30.184V73.96V72.96H10.728V73.96ZM30.184 73.96H29.184V76.392H30.184H31.184V73.96H30.184ZM30.184 76.392V75.392H10.728V76.392V77.392H30.184V76.392ZM0.999987 81.256H1.99999V78.824H0.999987H-1.33514e-05V81.256H0.999987ZM0.999987 78.824V79.824H20.456V78.824V77.824H0.999987V78.824ZM20.456 78.824H19.456V81.256H20.456H21.456V78.824H20.456ZM20.456 81.256V80.256H0.999987V81.256V82.256H20.456V81.256ZM0.999987 86.12H1.99999V83.688H0.999987H-1.33514e-05V86.12H0.999987ZM0.999987 83.688V84.688H10.728V83.688V82.688H0.999987V83.688ZM10.728 83.688H9.72799V86.12H10.728H11.728V83.688H10.728ZM10.728 86.12V85.12H0.999987V86.12V87.12H10.728V86.12ZM93.189 3.43201H92.189V4.43201H93.189V3.43201ZM93.189 1.00001V7.62939e-06H92.189V1.00001H93.189ZM136.965 1.00001H137.965V7.62939e-06H136.965V1.00001ZM136.965 3.43201V4.43201H137.965V3.43201H136.965ZM93.189 8.29601H92.189V9.29601H93.189V8.29601ZM93.189 5.86401V4.86401H92.189V5.86401H93.189ZM146.693 5.86401H147.693V4.86401H146.693V5.86401ZM146.693 8.29601V9.29601H147.693V8.29601H146.693ZM136.965 13.16H135.965V14.16H136.965V13.16ZM136.965 10.728V9.728H135.965V10.728H136.965ZM151.557 10.728H152.557V9.728H151.557V10.728ZM151.557 13.16V14.16H152.557V13.16H151.557ZM93.189 13.16H92.189V14.16H93.189V13.16ZM93.189 10.728V9.728H92.189V10.728H93.189ZM102.917 10.728H103.917V9.728H102.917V10.728ZM102.917 13.16V14.16H103.917V13.16H102.917ZM141.829 18.024H140.829V19.024H141.829V18.024ZM141.829 15.592V14.592H140.829V15.592H141.829ZM151.557 15.592H152.557V14.592H151.557V15.592ZM151.557 18.024V19.024H152.557V18.024H151.557ZM93.189 18.024H92.189V19.024H93.189V18.024ZM93.189 15.592V14.592H92.189V15.592H93.189ZM102.917 15.592H103.917V14.592H102.917V15.592ZM102.917 18.024V19.024H103.917V18.024H102.917ZM146.693 22.888H145.693V23.888H146.693V22.888ZM146.693 20.456V19.456H145.693V20.456H146.693ZM156.421 20.456H157.421V19.456H156.421V20.456ZM156.421 22.888V23.888H157.421V22.888H156.421ZM93.189 22.888H92.189V23.888H93.189V22.888ZM93.189 20.456V19.456H92.189V20.456H93.189ZM102.917 20.456H103.917V19.456H102.917V20.456ZM102.917 22.888V23.888H103.917V22.888H102.917ZM93.189 27.752H92.189V28.752H93.189V27.752ZM93.189 25.32V24.32H92.189V25.32H93.189ZM102.917 25.32H103.917V24.32H102.917V25.32ZM102.917 27.752V28.752H103.917V27.752H102.917ZM146.693 27.752H145.693V28.752H146.693V27.752ZM146.693 25.32V24.32H145.693V25.32H146.693ZM156.421 25.32H157.421V24.32H156.421V25.32ZM156.421 27.752V28.752H157.421V27.752H156.421ZM151.557 32.616H150.557V33.616H151.557V32.616ZM151.557 30.184V29.184H150.557V30.184H151.557ZM161.285 30.184H162.285V29.184H161.285V30.184ZM161.285 32.616V33.616H162.285V32.616H161.285ZM93.189 32.616H92.189V33.616H93.189V32.616ZM93.189 30.184V29.184H92.189V30.184H93.189ZM102.917 30.184H103.917V29.184H102.917V30.184ZM102.917 32.616V33.616H103.917V32.616H102.917ZM93.189 37.48H92.189V38.48H93.189V37.48ZM93.189 35.048V34.048H92.189V35.048H93.189ZM102.917 35.048H103.917V34.048H102.917V35.048ZM102.917 37.48V38.48H103.917V37.48H102.917ZM151.557 37.48H150.557V38.48H151.557V37.48ZM151.557 35.048V34.048H150.557V35.048H151.557ZM161.285 35.048H162.285V34.048H161.285V35.048ZM161.285 37.48V38.48H162.285V37.48H161.285ZM93.189 42.344H92.189V43.344H93.189V42.344ZM93.189 39.912V38.912H92.189V39.912H93.189ZM102.917 39.912H103.917V38.912H102.917V39.912ZM102.917 42.344V43.344H103.917V42.344H102.917ZM151.557 42.344H150.557V43.344H151.557V42.344ZM151.557 39.912V38.912H150.557V39.912H151.557ZM161.285 39.912H162.285V38.912H161.285V39.912ZM161.285 42.344V43.344H162.285V42.344H161.285ZM151.557 47.208H150.557V48.208H151.557V47.208ZM151.557 44.776V43.776H150.557V44.776H151.557ZM161.285 44.776H162.285V43.776H161.285V44.776ZM161.285 47.208V48.208H162.285V47.208H161.285ZM93.189 47.208H92.189V48.208H93.189V47.208ZM93.189 44.776V43.776H92.189V44.776H93.189ZM102.917 44.776H103.917V43.776H102.917V44.776ZM102.917 47.208V48.208H103.917V47.208H102.917ZM93.189 52.072H92.189V53.072H93.189V52.072ZM93.189 49.64V48.64H92.189V49.64H93.189ZM102.917 49.64H103.917V48.64H102.917V49.64ZM102.917 52.072V53.072H103.917V52.072H102.917ZM151.557 52.072H150.557V53.072H151.557V52.072ZM151.557 49.64V48.64H150.557V49.64H151.557ZM161.285 49.64H162.285V48.64H161.285V49.64ZM161.285 52.072V53.072H162.285V52.072H161.285ZM151.557 56.936H150.557V57.936H151.557V56.936ZM151.557 54.504V53.504H150.557V54.504H151.557ZM161.285 54.504H162.285V53.504H161.285V54.504ZM161.285 56.936V57.936H162.285V56.936H161.285ZM93.189 56.936H92.189V57.936H93.189V56.936ZM93.189 54.504V53.504H92.189V54.504H93.189ZM102.917 54.504H103.917V53.504H102.917V54.504ZM102.917 56.936V57.936H103.917V56.936H102.917ZM151.557 61.8H150.557V62.8H151.557V61.8ZM151.557 59.368V58.368H150.557V59.368H151.557ZM161.285 59.368H162.285V58.368H161.285V59.368ZM161.285 61.8V62.8H162.285V61.8H161.285ZM93.189 61.8H92.189V62.8H93.189V61.8ZM93.189 59.368V58.368H92.189V59.368H93.189ZM102.917 59.368H103.917V58.368H102.917V59.368ZM102.917 61.8V62.8H103.917V61.8H102.917ZM146.693 66.664H145.693V67.664H146.693V66.664ZM146.693 64.232V63.232H145.693V64.232H146.693ZM156.421 64.232H157.421V63.232H156.421V64.232ZM156.421 66.664V67.664H157.421V66.664H156.421ZM93.189 66.664H92.189V67.664H93.189V66.664ZM93.189 64.232V63.232H92.189V64.232H93.189ZM102.917 64.232H103.917V63.232H102.917V64.232ZM102.917 66.664V67.664H103.917V66.664H102.917ZM146.693 71.528H145.693V72.528H146.693V71.528ZM146.693 69.096V68.096H145.693V69.096H146.693ZM156.421 69.096H157.421V68.096H156.421V69.096ZM156.421 71.528V72.528H157.421V71.528H156.421ZM93.189 71.528H92.189V72.528H93.189V71.528ZM93.189 69.096V68.096H92.189V69.096H93.189ZM102.917 69.096H103.917V68.096H102.917V69.096ZM102.917 71.528V72.528H103.917V71.528H102.917ZM141.829 76.392H140.829V77.392H141.829V76.392ZM141.829 73.96V72.96H140.829V73.96H141.829ZM151.557 73.96H152.557V72.96H151.557V73.96ZM151.557 76.392V77.392H152.557V76.392H151.557ZM93.189 76.392H92.189V77.392H93.189V76.392ZM93.189 73.96V72.96H92.189V73.96H93.189ZM102.917 73.96H103.917V72.96H102.917V73.96ZM102.917 76.392V77.392H103.917V76.392H102.917ZM93.189 81.256H92.189V82.256H93.189V81.256ZM93.189 78.824V77.824H92.189V78.824H93.189ZM102.917 78.824H103.917V77.824H102.917V78.824ZM102.917 81.256V82.256H103.917V81.256H102.917ZM136.965 81.256H135.965V82.256H136.965V81.256ZM136.965 78.824V77.824H135.965V78.824H136.965ZM151.557 78.824H152.557V77.824H151.557V78.824ZM151.557 81.256V82.256H152.557V81.256H151.557ZM93.189 86.12H92.189V87.12H93.189V86.12ZM93.189 83.688V82.688H92.189V83.688H93.189ZM146.693 83.688H147.693V82.688H146.693V83.688ZM146.693 86.12V87.12H147.693V86.12H146.693ZM93.189 90.984H92.189V91.984H93.189V90.984ZM93.189 88.552V87.552H92.189V88.552H93.189ZM136.965 88.552H137.965V87.552H136.965V88.552ZM136.965 90.984V91.984H137.965V90.984H136.965ZM93.189 3.43201H94.189V1.00001H93.189H92.189V3.43201H93.189ZM93.189 1.00001V2.00001H136.965V1.00001V7.62939e-06H93.189V1.00001ZM136.965 1.00001H135.965V3.43201H136.965H137.965V1.00001H136.965ZM136.965 3.43201V2.43201H93.189V3.43201V4.43201H136.965V3.43201ZM93.189 8.29601H94.189V5.86401H93.189H92.189V8.29601H93.189ZM93.189 5.86401V6.86401H146.693V5.86401V4.86401H93.189V5.86401ZM146.693 5.86401H145.693V8.29601H146.693H147.693V5.86401H146.693ZM146.693 8.29601V7.29601H93.189V8.29601V9.29601H146.693V8.29601ZM136.965 13.16H137.965V10.728H136.965H135.965V13.16H136.965ZM136.965 10.728V11.728H151.557V10.728V9.728H136.965V10.728ZM151.557 10.728H150.557V13.16H151.557H152.557V10.728H151.557ZM151.557 13.16V12.16H136.965V13.16V14.16H151.557V13.16ZM93.189 13.16H94.189V10.728H93.189H92.189V13.16H93.189ZM93.189 10.728V11.728H102.917V10.728V9.728H93.189V10.728ZM102.917 10.728H101.917V13.16H102.917H103.917V10.728H102.917ZM102.917 13.16V12.16H93.189V13.16V14.16H102.917V13.16ZM141.829 18.024H142.829V15.592H141.829H140.829V18.024H141.829ZM141.829 15.592V16.592H151.557V15.592V14.592H141.829V15.592ZM151.557 15.592H150.557V18.024H151.557H152.557V15.592H151.557ZM151.557 18.024V17.024H141.829V18.024V19.024H151.557V18.024ZM93.189 18.024H94.189V15.592H93.189H92.189V18.024H93.189ZM93.189 15.592V16.592H102.917V15.592V14.592H93.189V15.592ZM102.917 15.592H101.917V18.024H102.917H103.917V15.592H102.917ZM102.917 18.024V17.024H93.189V18.024V19.024H102.917V18.024ZM146.693 22.888H147.693V20.456H146.693H145.693V22.888H146.693ZM146.693 20.456V21.456H156.421V20.456V19.456H146.693V20.456ZM156.421 20.456H155.421V22.888H156.421H157.421V20.456H156.421ZM156.421 22.888V21.888H146.693V22.888V23.888H156.421V22.888ZM93.189 22.888H94.189V20.456H93.189H92.189V22.888H93.189ZM93.189 20.456V21.456H102.917V20.456V19.456H93.189V20.456ZM102.917 20.456H101.917V22.888H102.917H103.917V20.456H102.917ZM102.917 22.888V21.888H93.189V22.888V23.888H102.917V22.888ZM93.189 27.752H94.189V25.32H93.189H92.189V27.752H93.189ZM93.189 25.32V26.32H102.917V25.32V24.32H93.189V25.32ZM102.917 25.32H101.917V27.752H102.917H103.917V25.32H102.917ZM102.917 27.752V26.752H93.189V27.752V28.752H102.917V27.752ZM146.693 27.752H147.693V25.32H146.693H145.693V27.752H146.693ZM146.693 25.32V26.32H156.421V25.32V24.32H146.693V25.32ZM156.421 25.32H155.421V27.752H156.421H157.421V25.32H156.421ZM156.421 27.752V26.752H146.693V27.752V28.752H156.421V27.752ZM151.557 32.616H152.557V30.184H151.557H150.557V32.616H151.557ZM151.557 30.184V31.184H161.285V30.184V29.184H151.557V30.184ZM161.285 30.184H160.285V32.616H161.285H162.285V30.184H161.285ZM161.285 32.616V31.616H151.557V32.616V33.616H161.285V32.616ZM93.189 32.616H94.189V30.184H93.189H92.189V32.616H93.189ZM93.189 30.184V31.184H102.917V30.184V29.184H93.189V30.184ZM102.917 30.184H101.917V32.616H102.917H103.917V30.184H102.917ZM102.917 32.616V31.616H93.189V32.616V33.616H102.917V32.616ZM93.189 37.48H94.189V35.048H93.189H92.189V37.48H93.189ZM93.189 35.048V36.048H102.917V35.048V34.048H93.189V35.048ZM102.917 35.048H101.917V37.48H102.917H103.917V35.048H102.917ZM102.917 37.48V36.48H93.189V37.48V38.48H102.917V37.48ZM151.557 37.48H152.557V35.048H151.557H150.557V37.48H151.557ZM151.557 35.048V36.048H161.285V35.048V34.048H151.557V35.048ZM161.285 35.048H160.285V37.48H161.285H162.285V35.048H161.285ZM161.285 37.48V36.48H151.557V37.48V38.48H161.285V37.48ZM93.189 42.344H94.189V39.912H93.189H92.189V42.344H93.189ZM93.189 39.912V40.912H102.917V39.912V38.912H93.189V39.912ZM102.917 39.912H101.917V42.344H102.917H103.917V39.912H102.917ZM102.917 42.344V41.344H93.189V42.344V43.344H102.917V42.344ZM151.557 42.344H152.557V39.912H151.557H150.557V42.344H151.557ZM151.557 39.912V40.912H161.285V39.912V38.912H151.557V39.912ZM161.285 39.912H160.285V42.344H161.285H162.285V39.912H161.285ZM161.285 42.344V41.344H151.557V42.344V43.344H161.285V42.344ZM151.557 47.208H152.557V44.776H151.557H150.557V47.208H151.557ZM151.557 44.776V45.776H161.285V44.776V43.776H151.557V44.776ZM161.285 44.776H160.285V47.208H161.285H162.285V44.776H161.285ZM161.285 47.208V46.208H151.557V47.208V48.208H161.285V47.208ZM93.189 47.208H94.189V44.776H93.189H92.189V47.208H93.189ZM93.189 44.776V45.776H102.917V44.776V43.776H93.189V44.776ZM102.917 44.776H101.917V47.208H102.917H103.917V44.776H102.917ZM102.917 47.208V46.208H93.189V47.208V48.208H102.917V47.208ZM93.189 52.072H94.189V49.64H93.189H92.189V52.072H93.189ZM93.189 49.64V50.64H102.917V49.64V48.64H93.189V49.64ZM102.917 49.64H101.917V52.072H102.917H103.917V49.64H102.917ZM102.917 52.072V51.072H93.189V52.072V53.072H102.917V52.072ZM151.557 52.072H152.557V49.64H151.557H150.557V52.072H151.557ZM151.557 49.64V50.64H161.285V49.64V48.64H151.557V49.64ZM161.285 49.64H160.285V52.072H161.285H162.285V49.64H161.285ZM161.285 52.072V51.072H151.557V52.072V53.072H161.285V52.072ZM151.557 56.936H152.557V54.504H151.557H150.557V56.936H151.557ZM151.557 54.504V55.504H161.285V54.504V53.504H151.557V54.504ZM161.285 54.504H160.285V56.936H161.285H162.285V54.504H161.285ZM161.285 56.936V55.936H151.557V56.936V57.936H161.285V56.936ZM93.189 56.936H94.189V54.504H93.189H92.189V56.936H93.189ZM93.189 54.504V55.504H102.917V54.504V53.504H93.189V54.504ZM102.917 54.504H101.917V56.936H102.917H103.917V54.504H102.917ZM102.917 56.936V55.936H93.189V56.936V57.936H102.917V56.936ZM151.557 61.8H152.557V59.368H151.557H150.557V61.8H151.557ZM151.557 59.368V60.368H161.285V59.368V58.368H151.557V59.368ZM161.285 59.368H160.285V61.8H161.285H162.285V59.368H161.285ZM161.285 61.8V60.8H151.557V61.8V62.8H161.285V61.8ZM93.189 61.8H94.189V59.368H93.189H92.189V61.8H93.189ZM93.189 59.368V60.368H102.917V59.368V58.368H93.189V59.368ZM102.917 59.368H101.917V61.8H102.917H103.917V59.368H102.917ZM102.917 61.8V60.8H93.189V61.8V62.8H102.917V61.8ZM146.693 66.664H147.693V64.232H146.693H145.693V66.664H146.693ZM146.693 64.232V65.232H156.421V64.232V63.232H146.693V64.232ZM156.421 64.232H155.421V66.664H156.421H157.421V64.232H156.421ZM156.421 66.664V65.664H146.693V66.664V67.664H156.421V66.664ZM93.189 66.664H94.189V64.232H93.189H92.189V66.664H93.189ZM93.189 64.232V65.232H102.917V64.232V63.232H93.189V64.232ZM102.917 64.232H101.917V66.664H102.917H103.917V64.232H102.917ZM102.917 66.664V65.664H93.189V66.664V67.664H102.917V66.664ZM146.693 71.528H147.693V69.096H146.693H145.693V71.528H146.693ZM146.693 69.096V70.096H156.421V69.096V68.096H146.693V69.096ZM156.421 69.096H155.421V71.528H156.421H157.421V69.096H156.421ZM156.421 71.528V70.528H146.693V71.528V72.528H156.421V71.528ZM93.189 71.528H94.189V69.096H93.189H92.189V71.528H93.189ZM93.189 69.096V70.096H102.917V69.096V68.096H93.189V69.096ZM102.917 69.096H101.917V71.528H102.917H103.917V69.096H102.917ZM102.917 71.528V70.528H93.189V71.528V72.528H102.917V71.528ZM141.829 76.392H142.829V73.96H141.829H140.829V76.392H141.829ZM141.829 73.96V74.96H151.557V73.96V72.96H141.829V73.96ZM151.557 73.96H150.557V76.392H151.557H152.557V73.96H151.557ZM151.557 76.392V75.392H141.829V76.392V77.392H151.557V76.392ZM93.189 76.392H94.189V73.96H93.189H92.189V76.392H93.189ZM93.189 73.96V74.96H102.917V73.96V72.96H93.189V73.96ZM102.917 73.96H101.917V76.392H102.917H103.917V73.96H102.917ZM102.917 76.392V75.392H93.189V76.392V77.392H102.917V76.392ZM93.189 81.256H94.189V78.824H93.189H92.189V81.256H93.189ZM93.189 78.824V79.824H102.917V78.824V77.824H93.189V78.824ZM102.917 78.824H101.917V81.256H102.917H103.917V78.824H102.917ZM102.917 81.256V80.256H93.189V81.256V82.256H102.917V81.256ZM136.965 81.256H137.965V78.824H136.965H135.965V81.256H136.965ZM136.965 78.824V79.824H151.557V78.824V77.824H136.965V78.824ZM151.557 78.824H150.557V81.256H151.557H152.557V78.824H151.557ZM151.557 81.256V80.256H136.965V81.256V82.256H151.557V81.256ZM93.189 86.12H94.189V83.688H93.189H92.189V86.12H93.189ZM93.189 83.688V84.688H146.693V83.688V82.688H93.189V83.688ZM146.693 83.688H145.693V86.12H146.693H147.693V83.688H146.693ZM146.693 86.12V85.12H93.189V86.12V87.12H146.693V86.12ZM93.189 90.984H94.189V88.552H93.189H92.189V90.984H93.189ZM93.189 88.552V89.552H136.965V88.552V87.552H93.189V88.552ZM136.965 88.552H135.965V90.984H136.965H137.965V88.552H136.965ZM136.965 90.984V89.984H93.189V90.984V91.984H136.965V90.984ZM205.009 3.43201H204.009V4.43201H205.009V3.43201ZM205.009 1.00001V7.62939e-06H204.009V1.00001H205.009ZM214.737 1.00001H215.737V7.62939e-06H214.737V1.00001ZM214.737 3.43201V4.43201H215.737V3.43201H214.737ZM205.009 8.29601H204.009V9.29601H205.009V8.29601ZM205.009 5.86401V4.86401H204.009V5.86401H205.009ZM214.737 5.86401H215.737V4.86401H214.737V5.86401ZM214.737 8.29601V9.29601H215.737V8.29601H214.737ZM200.145 13.16H199.145V14.16H200.145V13.16ZM200.145 10.728V9.728H199.145V10.728H200.145ZM219.601 10.728H220.601V9.728H219.601V10.728ZM219.601 13.16V14.16H220.601V13.16H219.601ZM200.145 18.024H199.145V19.024H200.145V18.024ZM200.145 15.592V14.592H199.145V15.592H200.145ZM219.601 15.592H220.601V14.592H219.601V15.592ZM219.601 18.024V19.024H220.601V18.024H219.601ZM195.281 22.888H194.281V23.888H195.281V22.888ZM195.281 20.456V19.456H194.281V20.456H195.281ZM205.009 20.456H206.009V19.456H205.009V20.456ZM205.009 22.888V23.888H206.009V22.888H205.009ZM214.737 22.888H213.737V23.888H214.737V22.888ZM214.737 20.456V19.456H213.737V20.456H214.737ZM224.465 20.456H225.465V19.456H224.465V20.456ZM224.465 22.888V23.888H225.465V22.888H224.465ZM195.281 27.752H194.281V28.752H195.281V27.752ZM195.281 25.32V24.32H194.281V25.32H195.281ZM205.009 25.32H206.009V24.32H205.009V25.32ZM205.009 27.752V28.752H206.009V27.752H205.009ZM214.737 27.752H213.737V28.752H214.737V27.752ZM214.737 25.32V24.32H213.737V25.32H214.737ZM224.465 25.32H225.465V24.32H224.465V25.32ZM224.465 27.752V28.752H225.465V27.752H224.465ZM214.737 32.616H213.737V33.616H214.737V32.616ZM214.737 30.184V29.184H213.737V30.184H214.737ZM224.465 30.184H225.465V29.184H224.465V30.184ZM224.465 32.616V33.616H225.465V32.616H224.465ZM195.281 32.616H194.281V33.616H195.281V32.616ZM195.281 30.184V29.184H194.281V30.184H195.281ZM205.009 30.184H206.009V29.184H205.009V30.184ZM205.009 32.616V33.616H206.009V32.616H205.009ZM190.417 37.48H189.417V38.48H190.417V37.48ZM190.417 35.048V34.048H189.417V35.048H190.417ZM200.145 35.048H201.145V34.048H200.145V35.048ZM200.145 37.48V38.48H201.145V37.48H200.145ZM219.601 37.48H218.601V38.48H219.601V37.48ZM219.601 35.048V34.048H218.601V35.048H219.601ZM229.329 35.048H230.329V34.048H229.329V35.048ZM229.329 37.48V38.48H230.329V37.48H229.329ZM190.417 42.344H189.417V43.344H190.417V42.344ZM190.417 39.912V38.912H189.417V39.912H190.417ZM200.145 39.912H201.145V38.912H200.145V39.912ZM200.145 42.344V43.344H201.145V42.344H200.145ZM219.601 42.344H218.601V43.344H219.601V42.344ZM219.601 39.912V38.912H218.601V39.912H219.601ZM229.329 39.912H230.329V38.912H229.329V39.912ZM229.329 42.344V43.344H230.329V42.344H229.329ZM190.417 47.208H189.417V48.208H190.417V47.208ZM190.417 44.776V43.776H189.417V44.776H190.417ZM200.145 44.776H201.145V43.776H200.145V44.776ZM200.145 47.208V48.208H201.145V47.208H200.145ZM219.601 47.208H218.601V48.208H219.601V47.208ZM219.601 44.776V43.776H218.601V44.776H219.601ZM229.329 44.776H230.329V43.776H229.329V44.776ZM229.329 47.208V48.208H230.329V47.208H229.329ZM224.465 52.072H223.465V53.072H224.465V52.072ZM224.465 49.64V48.64H223.465V49.64H224.465ZM234.193 49.64H235.193V48.64H234.193V49.64ZM234.193 52.072V53.072H235.193V52.072H234.193ZM185.553 52.072H184.553V53.072H185.553V52.072ZM185.553 49.64V48.64H184.553V49.64H185.553ZM195.281 49.64H196.281V48.64H195.281V49.64ZM195.281 52.072V53.072H196.281V52.072H195.281ZM185.553 56.936H184.553V57.936H185.553V56.936ZM185.553 54.504V53.504H184.553V54.504H185.553ZM234.193 54.504H235.193V53.504H234.193V54.504ZM234.193 56.936V57.936H235.193V56.936H234.193ZM185.553 61.8H184.553V62.8H185.553V61.8ZM185.553 59.368V58.368H184.553V59.368H185.553ZM234.193 59.368H235.193V58.368H234.193V59.368ZM234.193 61.8V62.8H235.193V61.8H234.193ZM180.689 66.664H179.689V67.664H180.689V66.664ZM180.689 64.232V63.232H179.689V64.232H180.689ZM190.417 64.232H191.417V63.232H190.417V64.232ZM190.417 66.664V67.664H191.417V66.664H190.417ZM229.329 66.664H228.329V67.664H229.329V66.664ZM229.329 64.232V63.232H228.329V64.232H229.329ZM239.057 64.232H240.057V63.232H239.057V64.232ZM239.057 66.664V67.664H240.057V66.664H239.057ZM229.329 71.528H228.329V72.528H229.329V71.528ZM229.329 69.096V68.096H228.329V69.096H229.329ZM239.057 69.096H240.057V68.096H239.057V69.096ZM239.057 71.528V72.528H240.057V71.528H239.057ZM180.689 71.528H179.689V72.528H180.689V71.528ZM180.689 69.096V68.096H179.689V69.096H180.689ZM190.417 69.096H191.417V68.096H190.417V69.096ZM190.417 71.528V72.528H191.417V71.528H190.417ZM180.689 76.392H179.689V77.392H180.689V76.392ZM180.689 73.96V72.96H179.689V73.96H180.689ZM190.417 73.96H191.417V72.96H190.417V73.96ZM190.417 76.392V77.392H191.417V76.392H190.417ZM229.329 76.392H228.329V77.392H229.329V76.392ZM229.329 73.96V72.96H228.329V73.96H229.329ZM239.057 73.96H240.057V72.96H239.057V73.96ZM239.057 76.392V77.392H240.057V76.392H239.057ZM175.825 81.256H174.825V82.256H175.825V81.256ZM175.825 78.824V77.824H174.825V78.824H175.825ZM185.553 78.824H186.553V77.824H185.553V78.824ZM185.553 81.256V82.256H186.553V81.256H185.553ZM234.193 81.256H233.193V82.256H234.193V81.256ZM234.193 78.824V77.824H233.193V78.824H234.193ZM243.921 78.824H244.921V77.824H243.921V78.824ZM243.921 81.256V82.256H244.921V81.256H243.921ZM234.193 86.12H233.193V87.12H234.193V86.12ZM234.193 83.688V82.688H233.193V83.688H234.193ZM243.921 83.688H244.921V82.688H243.921V83.688ZM243.921 86.12V87.12H244.921V86.12H243.921ZM175.825 86.12H174.825V87.12H175.825V86.12ZM175.825 83.688V82.688H174.825V83.688H175.825ZM185.553 83.688H186.553V82.688H185.553V83.688ZM185.553 86.12V87.12H186.553V86.12H185.553ZM234.193 90.984H233.193V91.984H234.193V90.984ZM234.193 88.552V87.552H233.193V88.552H234.193ZM243.921 88.552H244.921V87.552H243.921V88.552ZM243.921 90.984V91.984H244.921V90.984H243.921ZM175.825 90.984H174.825V91.984H175.825V90.984ZM175.825 88.552V87.552H174.825V88.552H175.825ZM185.553 88.552H186.553V87.552H185.553V88.552ZM185.553 90.984V91.984H186.553V90.984H185.553ZM205.009 3.43201H206.009V1.00001H205.009H204.009V3.43201H205.009ZM205.009 1.00001V2.00001H214.737V1.00001V7.62939e-06H205.009V1.00001ZM214.737 1.00001H213.737V3.43201H214.737H215.737V1.00001H214.737ZM214.737 3.43201V2.43201H205.009V3.43201V4.43201H214.737V3.43201ZM205.009 8.29601H206.009V5.86401H205.009H204.009V8.29601H205.009ZM205.009 5.86401V6.86401H214.737V5.86401V4.86401H205.009V5.86401ZM214.737 5.86401H213.737V8.29601H214.737H215.737V5.86401H214.737ZM214.737 8.29601V7.29601H205.009V8.29601V9.29601H214.737V8.29601ZM200.145 13.16H201.145V10.728H200.145H199.145V13.16H200.145ZM200.145 10.728V11.728H219.601V10.728V9.728H200.145V10.728ZM219.601 10.728H218.601V13.16H219.601H220.601V10.728H219.601ZM219.601 13.16V12.16H200.145V13.16V14.16H219.601V13.16ZM200.145 18.024H201.145V15.592H200.145H199.145V18.024H200.145ZM200.145 15.592V16.592H219.601V15.592V14.592H200.145V15.592ZM219.601 15.592H218.601V18.024H219.601H220.601V15.592H219.601ZM219.601 18.024V17.024H200.145V18.024V19.024H219.601V18.024ZM195.281 22.888H196.281V20.456H195.281H194.281V22.888H195.281ZM195.281 20.456V21.456H205.009V20.456V19.456H195.281V20.456ZM205.009 20.456H204.009V22.888H205.009H206.009V20.456H205.009ZM205.009 22.888V21.888H195.281V22.888V23.888H205.009V22.888ZM214.737 22.888H215.737V20.456H214.737H213.737V22.888H214.737ZM214.737 20.456V21.456H224.465V20.456V19.456H214.737V20.456ZM224.465 20.456H223.465V22.888H224.465H225.465V20.456H224.465ZM224.465 22.888V21.888H214.737V22.888V23.888H224.465V22.888ZM195.281 27.752H196.281V25.32H195.281H194.281V27.752H195.281ZM195.281 25.32V26.32H205.009V25.32V24.32H195.281V25.32ZM205.009 25.32H204.009V27.752H205.009H206.009V25.32H205.009ZM205.009 27.752V26.752H195.281V27.752V28.752H205.009V27.752ZM214.737 27.752H215.737V25.32H214.737H213.737V27.752H214.737ZM214.737 25.32V26.32H224.465V25.32V24.32H214.737V25.32ZM224.465 25.32H223.465V27.752H224.465H225.465V25.32H224.465ZM224.465 27.752V26.752H214.737V27.752V28.752H224.465V27.752ZM214.737 32.616H215.737V30.184H214.737H213.737V32.616H214.737ZM214.737 30.184V31.184H224.465V30.184V29.184H214.737V30.184ZM224.465 30.184H223.465V32.616H224.465H225.465V30.184H224.465ZM224.465 32.616V31.616H214.737V32.616V33.616H224.465V32.616ZM195.281 32.616H196.281V30.184H195.281H194.281V32.616H195.281ZM195.281 30.184V31.184H205.009V30.184V29.184H195.281V30.184ZM205.009 30.184H204.009V32.616H205.009H206.009V30.184H205.009ZM205.009 32.616V31.616H195.281V32.616V33.616H205.009V32.616ZM190.417 37.48H191.417V35.048H190.417H189.417V37.48H190.417ZM190.417 35.048V36.048H200.145V35.048V34.048H190.417V35.048ZM200.145 35.048H199.145V37.48H200.145H201.145V35.048H200.145ZM200.145 37.48V36.48H190.417V37.48V38.48H200.145V37.48ZM219.601 37.48H220.601V35.048H219.601H218.601V37.48H219.601ZM219.601 35.048V36.048H229.329V35.048V34.048H219.601V35.048ZM229.329 35.048H228.329V37.48H229.329H230.329V35.048H229.329ZM229.329 37.48V36.48H219.601V37.48V38.48H229.329V37.48ZM190.417 42.344H191.417V39.912H190.417H189.417V42.344H190.417ZM190.417 39.912V40.912H200.145V39.912V38.912H190.417V39.912ZM200.145 39.912H199.145V42.344H200.145H201.145V39.912H200.145ZM200.145 42.344V41.344H190.417V42.344V43.344H200.145V42.344ZM219.601 42.344H220.601V39.912H219.601H218.601V42.344H219.601ZM219.601 39.912V40.912H229.329V39.912V38.912H219.601V39.912ZM229.329 39.912H228.329V42.344H229.329H230.329V39.912H229.329ZM229.329 42.344V41.344H219.601V42.344V43.344H229.329V42.344ZM190.417 47.208H191.417V44.776H190.417H189.417V47.208H190.417ZM190.417 44.776V45.776H200.145V44.776V43.776H190.417V44.776ZM200.145 44.776H199.145V47.208H200.145H201.145V44.776H200.145ZM200.145 47.208V46.208H190.417V47.208V48.208H200.145V47.208ZM219.601 47.208H220.601V44.776H219.601H218.601V47.208H219.601ZM219.601 44.776V45.776H229.329V44.776V43.776H219.601V44.776ZM229.329 44.776H228.329V47.208H229.329H230.329V44.776H229.329ZM229.329 47.208V46.208H219.601V47.208V48.208H229.329V47.208ZM224.465 52.072H225.465V49.64H224.465H223.465V52.072H224.465ZM224.465 49.64V50.64H234.193V49.64V48.64H224.465V49.64ZM234.193 49.64H233.193V52.072H234.193H235.193V49.64H234.193ZM234.193 52.072V51.072H224.465V52.072V53.072H234.193V52.072ZM185.553 52.072H186.553V49.64H185.553H184.553V52.072H185.553ZM185.553 49.64V50.64H195.281V49.64V48.64H185.553V49.64ZM195.281 49.64H194.281V52.072H195.281H196.281V49.64H195.281ZM195.281 52.072V51.072H185.553V52.072V53.072H195.281V52.072ZM185.553 56.936H186.553V54.504H185.553H184.553V56.936H185.553ZM185.553 54.504V55.504H234.193V54.504V53.504H185.553V54.504ZM234.193 54.504H233.193V56.936H234.193H235.193V54.504H234.193ZM234.193 56.936V55.936H185.553V56.936V57.936H234.193V56.936ZM185.553 61.8H186.553V59.368H185.553H184.553V61.8H185.553ZM185.553 59.368V60.368H234.193V59.368V58.368H185.553V59.368ZM234.193 59.368H233.193V61.8H234.193H235.193V59.368H234.193ZM234.193 61.8V60.8H185.553V61.8V62.8H234.193V61.8ZM180.689 66.664H181.689V64.232H180.689H179.689V66.664H180.689ZM180.689 64.232V65.232H190.417V64.232V63.232H180.689V64.232ZM190.417 64.232H189.417V66.664H190.417H191.417V64.232H190.417ZM190.417 66.664V65.664H180.689V66.664V67.664H190.417V66.664ZM229.329 66.664H230.329V64.232H229.329H228.329V66.664H229.329ZM229.329 64.232V65.232H239.057V64.232V63.232H229.329V64.232ZM239.057 64.232H238.057V66.664H239.057H240.057V64.232H239.057ZM239.057 66.664V65.664H229.329V66.664V67.664H239.057V66.664ZM229.329 71.528H230.329V69.096H229.329H228.329V71.528H229.329ZM229.329 69.096V70.096H239.057V69.096V68.096H229.329V69.096ZM239.057 69.096H238.057V71.528H239.057H240.057V69.096H239.057ZM239.057 71.528V70.528H229.329V71.528V72.528H239.057V71.528ZM180.689 71.528H181.689V69.096H180.689H179.689V71.528H180.689ZM180.689 69.096V70.096H190.417V69.096V68.096H180.689V69.096ZM190.417 69.096H189.417V71.528H190.417H191.417V69.096H190.417ZM190.417 71.528V70.528H180.689V71.528V72.528H190.417V71.528ZM180.689 76.392H181.689V73.96H180.689H179.689V76.392H180.689ZM180.689 73.96V74.96H190.417V73.96V72.96H180.689V73.96ZM190.417 73.96H189.417V76.392H190.417H191.417V73.96H190.417ZM190.417 76.392V75.392H180.689V76.392V77.392H190.417V76.392ZM229.329 76.392H230.329V73.96H229.329H228.329V76.392H229.329ZM229.329 73.96V74.96H239.057V73.96V72.96H229.329V73.96ZM239.057 73.96H238.057V76.392H239.057H240.057V73.96H239.057ZM239.057 76.392V75.392H229.329V76.392V77.392H239.057V76.392ZM175.825 81.256H176.825V78.824H175.825H174.825V81.256H175.825ZM175.825 78.824V79.824H185.553V78.824V77.824H175.825V78.824ZM185.553 78.824H184.553V81.256H185.553H186.553V78.824H185.553ZM185.553 81.256V80.256H175.825V81.256V82.256H185.553V81.256ZM234.193 81.256H235.193V78.824H234.193H233.193V81.256H234.193ZM234.193 78.824V79.824H243.921V78.824V77.824H234.193V78.824ZM243.921 78.824H242.921V81.256H243.921H244.921V78.824H243.921ZM243.921 81.256V80.256H234.193V81.256V82.256H243.921V81.256ZM234.193 86.12H235.193V83.688H234.193H233.193V86.12H234.193ZM234.193 83.688V84.688H243.921V83.688V82.688H234.193V83.688ZM243.921 83.688H242.921V86.12H243.921H244.921V83.688H243.921ZM243.921 86.12V85.12H234.193V86.12V87.12H243.921V86.12ZM175.825 86.12H176.825V83.688H175.825H174.825V86.12H175.825ZM175.825 83.688V84.688H185.553V83.688V82.688H175.825V83.688ZM185.553 83.688H184.553V86.12H185.553H186.553V83.688H185.553ZM185.553 86.12V85.12H175.825V86.12V87.12H185.553V86.12ZM234.193 90.984H235.193V88.552H234.193H233.193V90.984H234.193ZM234.193 88.552V89.552H243.921V88.552V87.552H234.193V88.552ZM243.921 88.552H242.921V90.984H243.921H244.921V88.552H243.921ZM243.921 90.984V89.984H234.193V90.984V91.984H243.921V90.984ZM175.825 90.984H176.825V88.552H175.825H174.825V90.984H175.825ZM175.825 88.552V89.552H185.553V88.552V87.552H175.825V88.552ZM185.553 88.552H184.553V90.984H185.553H186.553V88.552H185.553ZM185.553 90.984V89.984H175.825V90.984V91.984H185.553V90.984ZM253.7 95.848H252.7V96.848H253.7V95.848ZM253.7 93.416V92.416H252.7V93.416H253.7ZM312.068 93.416H313.068V92.416H312.068V93.416ZM312.068 95.848V96.848H313.068V95.848H312.068ZM253.7 100.712H252.7V101.712H253.7V100.712ZM253.7 98.28V97.28H252.7V98.28H253.7ZM312.068 98.28H313.068V97.28H312.068V98.28ZM312.068 100.712V101.712H313.068V100.712H312.068ZM253.7 95.848H254.7V93.416H253.7H252.7V95.848H253.7ZM253.7 93.416V94.416H312.068V93.416V92.416H253.7V93.416ZM312.068 93.416H311.068V95.848H312.068H313.068V93.416H312.068ZM312.068 95.848V94.848H253.7V95.848V96.848H312.068V95.848ZM253.7 100.712H254.7V98.28H253.7H252.7V100.712H253.7ZM253.7 98.28V99.28H312.068V98.28V97.28H253.7V98.28ZM312.068 98.28H311.068V100.712H312.068H313.068V98.28H312.068ZM312.068 100.712V99.712H253.7V100.712V101.712H312.068V100.712ZM346.145 3.43201H345.145V4.43201H346.145V3.43201ZM346.145 1.00001V7.62939e-06H345.145V1.00001H346.145ZM375.329 1.00001H376.329V7.62939e-06H375.329V1.00001ZM375.329 3.43201V4.43201H376.329V3.43201H375.329ZM336.417 8.29601H335.417V9.29601H336.417V8.29601ZM336.417 5.86401V4.86401H335.417V5.86401H336.417ZM389.921 5.86401H390.921V4.86401H389.921V5.86401ZM389.921 8.29601V9.29601H390.921V8.29601H389.921ZM331.553 13.16H330.553V14.16H331.553V13.16ZM331.553 10.728V9.728H330.553V10.728H331.553ZM346.145 10.728H347.145V9.728H346.145V10.728ZM346.145 13.16V14.16H347.145V13.16H346.145ZM380.193 13.16H379.193V14.16H380.193V13.16ZM380.193 10.728V9.728H379.193V10.728H380.193ZM394.785 10.728H395.785V9.728H394.785V10.728ZM394.785 13.16V14.16H395.785V13.16H394.785ZM385.057 18.024H384.057V19.024H385.057V18.024ZM385.057 15.592V14.592H384.057V15.592H385.057ZM394.785 15.592H395.785V14.592H394.785V15.592ZM394.785 18.024V19.024H395.785V18.024H394.785ZM331.553 18.024H330.553V19.024H331.553V18.024ZM331.553 15.592V14.592H330.553V15.592H331.553ZM341.281 15.592H342.281V14.592H341.281V15.592ZM341.281 18.024V19.024H342.281V18.024H341.281ZM326.689 22.888H325.689V23.888H326.689V22.888ZM326.689 20.456V19.456H325.689V20.456H326.689ZM336.417 20.456H337.417V19.456H336.417V20.456ZM336.417 22.888V23.888H337.417V22.888H336.417ZM389.921 22.888H388.921V23.888H389.921V22.888ZM389.921 20.456V19.456H388.921V20.456H389.921ZM399.649 20.456H400.649V19.456H399.649V20.456ZM399.649 22.888V23.888H400.649V22.888H399.649ZM389.921 27.752H388.921V28.752H389.921V27.752ZM389.921 25.32V24.32H388.921V25.32H389.921ZM399.649 25.32H400.649V24.32H399.649V25.32ZM399.649 27.752V28.752H400.649V27.752H399.649ZM326.689 27.752H325.689V28.752H326.689V27.752ZM326.689 25.32V24.32H325.689V25.32H326.689ZM336.417 25.32H337.417V24.32H336.417V25.32ZM336.417 27.752V28.752H337.417V27.752H336.417ZM389.921 32.616H388.921V33.616H389.921V32.616ZM389.921 30.184V29.184H388.921V30.184H389.921ZM399.649 30.184H400.649V29.184H399.649V30.184ZM399.649 32.616V33.616H400.649V32.616H399.649ZM321.825 32.616H320.825V33.616H321.825V32.616ZM321.825 30.184V29.184H320.825V30.184H321.825ZM331.553 30.184H332.553V29.184H331.553V30.184ZM331.553 32.616V33.616H332.553V32.616H331.553ZM321.825 37.48H320.825V38.48H321.825V37.48ZM321.825 35.048V34.048H320.825V35.048H321.825ZM331.553 35.048H332.553V34.048H331.553V35.048ZM331.553 37.48V38.48H332.553V37.48H331.553ZM321.825 42.344H320.825V43.344H321.825V42.344ZM321.825 39.912V38.912H320.825V39.912H321.825ZM331.553 39.912H332.553V38.912H331.553V39.912ZM331.553 42.344V43.344H332.553V42.344H331.553ZM321.825 47.208H320.825V48.208H321.825V47.208ZM321.825 44.776V43.776H320.825V44.776H321.825ZM331.553 44.776H332.553V43.776H331.553V44.776ZM331.553 47.208V48.208H332.553V47.208H331.553ZM321.825 52.072H320.825V53.072H321.825V52.072ZM321.825 49.64V48.64H320.825V49.64H321.825ZM331.553 49.64H332.553V48.64H331.553V49.64ZM331.553 52.072V53.072H332.553V52.072H331.553ZM321.825 56.936H320.825V57.936H321.825V56.936ZM321.825 54.504V53.504H320.825V54.504H321.825ZM331.553 54.504H332.553V53.504H331.553V54.504ZM331.553 56.936V57.936H332.553V56.936H331.553ZM321.825 61.8H320.825V62.8H321.825V61.8ZM321.825 59.368V58.368H320.825V59.368H321.825ZM331.553 59.368H332.553V58.368H331.553V59.368ZM331.553 61.8V62.8H332.553V61.8H331.553ZM389.921 61.8H388.921V62.8H389.921V61.8ZM389.921 59.368V58.368H388.921V59.368H389.921ZM399.649 59.368H400.649V58.368H399.649V59.368ZM399.649 61.8V62.8H400.649V61.8H399.649ZM326.689 66.664H325.689V67.664H326.689V66.664ZM326.689 64.232V63.232H325.689V64.232H326.689ZM336.417 64.232H337.417V63.232H336.417V64.232ZM336.417 66.664V67.664H337.417V66.664H336.417ZM389.921 66.664H388.921V67.664H389.921V66.664ZM389.921 64.232V63.232H388.921V64.232H389.921ZM399.649 64.232H400.649V63.232H399.649V64.232ZM399.649 66.664V67.664H400.649V66.664H399.649ZM326.689 71.528H325.689V72.528H326.689V71.528ZM326.689 69.096V68.096H325.689V69.096H326.689ZM336.417 69.096H337.417V68.096H336.417V69.096ZM336.417 71.528V72.528H337.417V71.528H336.417ZM389.921 71.528H388.921V72.528H389.921V71.528ZM389.921 69.096V68.096H388.921V69.096H389.921ZM399.649 69.096H400.649V68.096H399.649V69.096ZM399.649 71.528V72.528H400.649V71.528H399.649ZM385.057 76.392H384.057V77.392H385.057V76.392ZM385.057 73.96V72.96H384.057V73.96H385.057ZM394.785 73.96H395.785V72.96H394.785V73.96ZM394.785 76.392V77.392H395.785V76.392H394.785ZM331.553 76.392H330.553V77.392H331.553V76.392ZM331.553 73.96V72.96H330.553V73.96H331.553ZM341.281 73.96H342.281V72.96H341.281V73.96ZM341.281 76.392V77.392H342.281V76.392H341.281ZM380.193 81.256H379.193V82.256H380.193V81.256ZM380.193 78.824V77.824H379.193V78.824H380.193ZM394.785 78.824H395.785V77.824H394.785V78.824ZM394.785 81.256V82.256H395.785V81.256H394.785ZM331.553 81.256H330.553V82.256H331.553V81.256ZM331.553 78.824V77.824H330.553V78.824H331.553ZM346.145 78.824H347.145V77.824H346.145V78.824ZM346.145 81.256V82.256H347.145V81.256H346.145ZM336.417 86.12H335.417V87.12H336.417V86.12ZM336.417 83.688V82.688H335.417V83.688H336.417ZM389.921 83.688H390.921V82.688H389.921V83.688ZM389.921 86.12V87.12H390.921V86.12H389.921ZM346.145 90.984H345.145V91.984H346.145V90.984ZM346.145 88.552V87.552H345.145V88.552H346.145ZM375.329 88.552H376.329V87.552H375.329V88.552ZM375.329 90.984V91.984H376.329V90.984H375.329ZM346.145 3.43201H347.145V1.00001H346.145H345.145V3.43201H346.145ZM346.145 1.00001V2.00001H375.329V1.00001V7.62939e-06H346.145V1.00001ZM375.329 1.00001H374.329V3.43201H375.329H376.329V1.00001H375.329ZM375.329 3.43201V2.43201H346.145V3.43201V4.43201H375.329V3.43201ZM336.417 8.29601H337.417V5.86401H336.417H335.417V8.29601H336.417ZM336.417 5.86401V6.86401H389.921V5.86401V4.86401H336.417V5.86401ZM389.921 5.86401H388.921V8.29601H389.921H390.921V5.86401H389.921ZM389.921 8.29601V7.29601H336.417V8.29601V9.29601H389.921V8.29601ZM331.553 13.16H332.553V10.728H331.553H330.553V13.16H331.553ZM331.553 10.728V11.728H346.145V10.728V9.728H331.553V10.728ZM346.145 10.728H345.145V13.16H346.145H347.145V10.728H346.145ZM346.145 13.16V12.16H331.553V13.16V14.16H346.145V13.16ZM380.193 13.16H381.193V10.728H380.193H379.193V13.16H380.193ZM380.193 10.728V11.728H394.785V10.728V9.728H380.193V10.728ZM394.785 10.728H393.785V13.16H394.785H395.785V10.728H394.785ZM394.785 13.16V12.16H380.193V13.16V14.16H394.785V13.16ZM385.057 18.024H386.057V15.592H385.057H384.057V18.024H385.057ZM385.057 15.592V16.592H394.785V15.592V14.592H385.057V15.592ZM394.785 15.592H393.785V18.024H394.785H395.785V15.592H394.785ZM394.785 18.024V17.024H385.057V18.024V19.024H394.785V18.024ZM331.553 18.024H332.553V15.592H331.553H330.553V18.024H331.553ZM331.553 15.592V16.592H341.281V15.592V14.592H331.553V15.592ZM341.281 15.592H340.281V18.024H341.281H342.281V15.592H341.281ZM341.281 18.024V17.024H331.553V18.024V19.024H341.281V18.024ZM326.689 22.888H327.689V20.456H326.689H325.689V22.888H326.689ZM326.689 20.456V21.456H336.417V20.456V19.456H326.689V20.456ZM336.417 20.456H335.417V22.888H336.417H337.417V20.456H336.417ZM336.417 22.888V21.888H326.689V22.888V23.888H336.417V22.888ZM389.921 22.888H390.921V20.456H389.921H388.921V22.888H389.921ZM389.921 20.456V21.456H399.649V20.456V19.456H389.921V20.456ZM399.649 20.456H398.649V22.888H399.649H400.649V20.456H399.649ZM399.649 22.888V21.888H389.921V22.888V23.888H399.649V22.888ZM389.921 27.752H390.921V25.32H389.921H388.921V27.752H389.921ZM389.921 25.32V26.32H399.649V25.32V24.32H389.921V25.32ZM399.649 25.32H398.649V27.752H399.649H400.649V25.32H399.649ZM399.649 27.752V26.752H389.921V27.752V28.752H399.649V27.752ZM326.689 27.752H327.689V25.32H326.689H325.689V27.752H326.689ZM326.689 25.32V26.32H336.417V25.32V24.32H326.689V25.32ZM336.417 25.32H335.417V27.752H336.417H337.417V25.32H336.417ZM336.417 27.752V26.752H326.689V27.752V28.752H336.417V27.752ZM389.921 32.616H390.921V30.184H389.921H388.921V32.616H389.921ZM389.921 30.184V31.184H399.649V30.184V29.184H389.921V30.184ZM399.649 30.184H398.649V32.616H399.649H400.649V30.184H399.649ZM399.649 32.616V31.616H389.921V32.616V33.616H399.649V32.616ZM321.825 32.616H322.825V30.184H321.825H320.825V32.616H321.825ZM321.825 30.184V31.184H331.553V30.184V29.184H321.825V30.184ZM331.553 30.184H330.553V32.616H331.553H332.553V30.184H331.553ZM331.553 32.616V31.616H321.825V32.616V33.616H331.553V32.616ZM321.825 37.48H322.825V35.048H321.825H320.825V37.48H321.825ZM321.825 35.048V36.048H331.553V35.048V34.048H321.825V35.048ZM331.553 35.048H330.553V37.48H331.553H332.553V35.048H331.553ZM331.553 37.48V36.48H321.825V37.48V38.48H331.553V37.48ZM321.825 42.344H322.825V39.912H321.825H320.825V42.344H321.825ZM321.825 39.912V40.912H331.553V39.912V38.912H321.825V39.912ZM331.553 39.912H330.553V42.344H331.553H332.553V39.912H331.553ZM331.553 42.344V41.344H321.825V42.344V43.344H331.553V42.344ZM321.825 47.208H322.825V44.776H321.825H320.825V47.208H321.825ZM321.825 44.776V45.776H331.553V44.776V43.776H321.825V44.776ZM331.553 44.776H330.553V47.208H331.553H332.553V44.776H331.553ZM331.553 47.208V46.208H321.825V47.208V48.208H331.553V47.208ZM321.825 52.072H322.825V49.64H321.825H320.825V52.072H321.825ZM321.825 49.64V50.64H331.553V49.64V48.64H321.825V49.64ZM331.553 49.64H330.553V52.072H331.553H332.553V49.64H331.553ZM331.553 52.072V51.072H321.825V52.072V53.072H331.553V52.072ZM321.825 56.936H322.825V54.504H321.825H320.825V56.936H321.825ZM321.825 54.504V55.504H331.553V54.504V53.504H321.825V54.504ZM331.553 54.504H330.553V56.936H331.553H332.553V54.504H331.553ZM331.553 56.936V55.936H321.825V56.936V57.936H331.553V56.936ZM321.825 61.8H322.825V59.368H321.825H320.825V61.8H321.825ZM321.825 59.368V60.368H331.553V59.368V58.368H321.825V59.368ZM331.553 59.368H330.553V61.8H331.553H332.553V59.368H331.553ZM331.553 61.8V60.8H321.825V61.8V62.8H331.553V61.8ZM389.921 61.8H390.921V59.368H389.921H388.921V61.8H389.921ZM389.921 59.368V60.368H399.649V59.368V58.368H389.921V59.368ZM399.649 59.368H398.649V61.8H399.649H400.649V59.368H399.649ZM399.649 61.8V60.8H389.921V61.8V62.8H399.649V61.8ZM326.689 66.664H327.689V64.232H326.689H325.689V66.664H326.689ZM326.689 64.232V65.232H336.417V64.232V63.232H326.689V64.232ZM336.417 64.232H335.417V66.664H336.417H337.417V64.232H336.417ZM336.417 66.664V65.664H326.689V66.664V67.664H336.417V66.664ZM389.921 66.664H390.921V64.232H389.921H388.921V66.664H389.921ZM389.921 64.232V65.232H399.649V64.232V63.232H389.921V64.232ZM399.649 64.232H398.649V66.664H399.649H400.649V64.232H399.649ZM399.649 66.664V65.664H389.921V66.664V67.664H399.649V66.664ZM326.689 71.528H327.689V69.096H326.689H325.689V71.528H326.689ZM326.689 69.096V70.096H336.417V69.096V68.096H326.689V69.096ZM336.417 69.096H335.417V71.528H336.417H337.417V69.096H336.417ZM336.417 71.528V70.528H326.689V71.528V72.528H336.417V71.528ZM389.921 71.528H390.921V69.096H389.921H388.921V71.528H389.921ZM389.921 69.096V70.096H399.649V69.096V68.096H389.921V69.096ZM399.649 69.096H398.649V71.528H399.649H400.649V69.096H399.649ZM399.649 71.528V70.528H389.921V71.528V72.528H399.649V71.528ZM385.057 76.392H386.057V73.96H385.057H384.057V76.392H385.057ZM385.057 73.96V74.96H394.785V73.96V72.96H385.057V73.96ZM394.785 73.96H393.785V76.392H394.785H395.785V73.96H394.785ZM394.785 76.392V75.392H385.057V76.392V77.392H394.785V76.392ZM331.553 76.392H332.553V73.96H331.553H330.553V76.392H331.553ZM331.553 73.96V74.96H341.281V73.96V72.96H331.553V73.96ZM341.281 73.96H340.281V76.392H341.281H342.281V73.96H341.281ZM341.281 76.392V75.392H331.553V76.392V77.392H341.281V76.392ZM380.193 81.256H381.193V78.824H380.193H379.193V81.256H380.193ZM380.193 78.824V79.824H394.785V78.824V77.824H380.193V78.824ZM394.785 78.824H393.785V81.256H394.785H395.785V78.824H394.785ZM394.785 81.256V80.256H380.193V81.256V82.256H394.785V81.256ZM331.553 81.256H332.553V78.824H331.553H330.553V81.256H331.553ZM331.553 78.824V79.824H346.145V78.824V77.824H331.553V78.824ZM346.145 78.824H345.145V81.256H346.145H347.145V78.824H346.145ZM346.145 81.256V80.256H331.553V81.256V82.256H346.145V81.256ZM336.417 86.12H337.417V83.688H336.417H335.417V86.12H336.417ZM336.417 83.688V84.688H389.921V83.688V82.688H336.417V83.688ZM389.921 83.688H388.921V86.12H389.921H390.921V83.688H389.921ZM389.921 86.12V85.12H336.417V86.12V87.12H389.921V86.12ZM346.145 90.984H347.145V88.552H346.145H345.145V90.984H346.145ZM346.145 88.552V89.552H375.329V88.552V87.552H346.145V88.552ZM375.329 88.552H374.329V90.984H375.329H376.329V88.552H375.329ZM375.329 90.984V89.984H346.145V90.984V91.984H375.329V90.984ZM414.189 3.43201H413.189V4.43201H414.189V3.43201ZM414.189 1.00001V7.62939e-06H413.189V1.00001H414.189ZM423.917 1.00001H424.917V7.62939e-06H423.917V1.00001ZM423.917 3.43201V4.43201H424.917V3.43201H423.917ZM414.189 8.29601H413.189V9.29601H414.189V8.29601ZM414.189 5.86401V4.86401H413.189V5.86401H414.189ZM423.917 5.86401H424.917V4.86401H423.917V5.86401ZM423.917 8.29601V9.29601H424.917V8.29601H423.917ZM414.189 13.16H413.189V14.16H414.189V13.16ZM414.189 10.728V9.728H413.189V10.728H414.189ZM423.917 10.728H424.917V9.728H423.917V10.728ZM423.917 13.16V14.16H424.917V13.16H423.917ZM414.189 18.024H413.189V19.024H414.189V18.024ZM414.189 15.592V14.592H413.189V15.592H414.189ZM423.917 15.592H424.917V14.592H423.917V15.592ZM423.917 18.024V19.024H424.917V18.024H423.917ZM414.189 22.888H413.189V23.888H414.189V22.888ZM414.189 20.456V19.456H413.189V20.456H414.189ZM423.917 20.456H424.917V19.456H423.917V20.456ZM423.917 22.888V23.888H424.917V22.888H423.917ZM414.189 27.752H413.189V28.752H414.189V27.752ZM414.189 25.32V24.32H413.189V25.32H414.189ZM423.917 25.32H424.917V24.32H423.917V25.32ZM423.917 27.752V28.752H424.917V27.752H423.917ZM414.189 32.616H413.189V33.616H414.189V32.616ZM414.189 30.184V29.184H413.189V30.184H414.189ZM423.917 30.184H424.917V29.184H423.917V30.184ZM423.917 32.616V33.616H424.917V32.616H423.917ZM414.189 37.48H413.189V38.48H414.189V37.48ZM414.189 35.048V34.048H413.189V35.048H414.189ZM423.917 35.048H424.917V34.048H423.917V35.048ZM423.917 37.48V38.48H424.917V37.48H423.917ZM414.189 42.344H413.189V43.344H414.189V42.344ZM414.189 39.912V38.912H413.189V39.912H414.189ZM423.917 39.912H424.917V38.912H423.917V39.912ZM423.917 42.344V43.344H424.917V42.344H423.917ZM414.189 47.208H413.189V48.208H414.189V47.208ZM414.189 44.776V43.776H413.189V44.776H414.189ZM423.917 44.776H424.917V43.776H423.917V44.776ZM423.917 47.208V48.208H424.917V47.208H423.917ZM414.189 52.072H413.189V53.072H414.189V52.072ZM414.189 49.64V48.64H413.189V49.64H414.189ZM423.917 49.64H424.917V48.64H423.917V49.64ZM423.917 52.072V53.072H424.917V52.072H423.917ZM414.189 56.936H413.189V57.936H414.189V56.936ZM414.189 54.504V53.504H413.189V54.504H414.189ZM423.917 54.504H424.917V53.504H423.917V54.504ZM423.917 56.936V57.936H424.917V56.936H423.917ZM414.189 61.8H413.189V62.8H414.189V61.8ZM414.189 59.368V58.368H413.189V59.368H414.189ZM423.917 59.368H424.917V58.368H423.917V59.368ZM423.917 61.8V62.8H424.917V61.8H423.917ZM414.189 66.664H413.189V67.664H414.189V66.664ZM414.189 64.232V63.232H413.189V64.232H414.189ZM423.917 64.232H424.917V63.232H423.917V64.232ZM423.917 66.664V67.664H424.917V66.664H423.917ZM414.189 71.528H413.189V72.528H414.189V71.528ZM414.189 69.096V68.096H413.189V69.096H414.189ZM423.917 69.096H424.917V68.096H423.917V69.096ZM423.917 71.528V72.528H424.917V71.528H423.917ZM414.189 76.392H413.189V77.392H414.189V76.392ZM414.189 73.96V72.96H413.189V73.96H414.189ZM423.917 73.96H424.917V72.96H423.917V73.96ZM423.917 76.392V77.392H424.917V76.392H423.917ZM414.189 81.256H413.189V82.256H414.189V81.256ZM414.189 78.824V77.824H413.189V78.824H414.189ZM423.917 78.824H424.917V77.824H423.917V78.824ZM423.917 81.256V82.256H424.917V81.256H423.917ZM414.189 86.12H413.189V87.12H414.189V86.12ZM414.189 83.688V82.688H413.189V83.688H414.189ZM423.917 83.688H424.917V82.688H423.917V83.688ZM423.917 86.12V87.12H424.917V86.12H423.917ZM414.189 90.984H413.189V91.984H414.189V90.984ZM414.189 88.552V87.552H413.189V88.552H414.189ZM423.917 88.552H424.917V87.552H423.917V88.552ZM423.917 90.984V91.984H424.917V90.984H423.917ZM414.189 3.43201H415.189V1.00001H414.189H413.189V3.43201H414.189ZM414.189 1.00001V2.00001H423.917V1.00001V7.62939e-06H414.189V1.00001ZM423.917 1.00001H422.917V3.43201H423.917H424.917V1.00001H423.917ZM423.917 3.43201V2.43201H414.189V3.43201V4.43201H423.917V3.43201ZM414.189 8.29601H415.189V5.86401H414.189H413.189V8.29601H414.189ZM414.189 5.86401V6.86401H423.917V5.86401V4.86401H414.189V5.86401ZM423.917 5.86401H422.917V8.29601H423.917H424.917V5.86401H423.917ZM423.917 8.29601V7.29601H414.189V8.29601V9.29601H423.917V8.29601ZM414.189 13.16H415.189V10.728H414.189H413.189V13.16H414.189ZM414.189 10.728V11.728H423.917V10.728V9.728H414.189V10.728ZM423.917 10.728H422.917V13.16H423.917H424.917V10.728H423.917ZM423.917 13.16V12.16H414.189V13.16V14.16H423.917V13.16ZM414.189 18.024H415.189V15.592H414.189H413.189V18.024H414.189ZM414.189 15.592V16.592H423.917V15.592V14.592H414.189V15.592ZM423.917 15.592H422.917V18.024H423.917H424.917V15.592H423.917ZM423.917 18.024V17.024H414.189V18.024V19.024H423.917V18.024ZM414.189 22.888H415.189V20.456H414.189H413.189V22.888H414.189ZM414.189 20.456V21.456H423.917V20.456V19.456H414.189V20.456ZM423.917 20.456H422.917V22.888H423.917H424.917V20.456H423.917ZM423.917 22.888V21.888H414.189V22.888V23.888H423.917V22.888ZM414.189 27.752H415.189V25.32H414.189H413.189V27.752H414.189ZM414.189 25.32V26.32H423.917V25.32V24.32H414.189V25.32ZM423.917 25.32H422.917V27.752H423.917H424.917V25.32H423.917ZM423.917 27.752V26.752H414.189V27.752V28.752H423.917V27.752ZM414.189 32.616H415.189V30.184H414.189H413.189V32.616H414.189ZM414.189 30.184V31.184H423.917V30.184V29.184H414.189V30.184ZM423.917 30.184H422.917V32.616H423.917H424.917V30.184H423.917ZM423.917 32.616V31.616H414.189V32.616V33.616H423.917V32.616ZM414.189 37.48H415.189V35.048H414.189H413.189V37.48H414.189ZM414.189 35.048V36.048H423.917V35.048V34.048H414.189V35.048ZM423.917 35.048H422.917V37.48H423.917H424.917V35.048H423.917ZM423.917 37.48V36.48H414.189V37.48V38.48H423.917V37.48ZM414.189 42.344H415.189V39.912H414.189H413.189V42.344H414.189ZM414.189 39.912V40.912H423.917V39.912V38.912H414.189V39.912ZM423.917 39.912H422.917V42.344H423.917H424.917V39.912H423.917ZM423.917 42.344V41.344H414.189V42.344V43.344H423.917V42.344ZM414.189 47.208H415.189V44.776H414.189H413.189V47.208H414.189ZM414.189 44.776V45.776H423.917V44.776V43.776H414.189V44.776ZM423.917 44.776H422.917V47.208H423.917H424.917V44.776H423.917ZM423.917 47.208V46.208H414.189V47.208V48.208H423.917V47.208ZM414.189 52.072H415.189V49.64H414.189H413.189V52.072H414.189ZM414.189 49.64V50.64H423.917V49.64V48.64H414.189V49.64ZM423.917 49.64H422.917V52.072H423.917H424.917V49.64H423.917ZM423.917 52.072V51.072H414.189V52.072V53.072H423.917V52.072ZM414.189 56.936H415.189V54.504H414.189H413.189V56.936H414.189ZM414.189 54.504V55.504H423.917V54.504V53.504H414.189V54.504ZM423.917 54.504H422.917V56.936H423.917H424.917V54.504H423.917ZM423.917 56.936V55.936H414.189V56.936V57.936H423.917V56.936ZM414.189 61.8H415.189V59.368H414.189H413.189V61.8H414.189ZM414.189 59.368V60.368H423.917V59.368V58.368H414.189V59.368ZM423.917 59.368H422.917V61.8H423.917H424.917V59.368H423.917ZM423.917 61.8V60.8H414.189V61.8V62.8H423.917V61.8ZM414.189 66.664H415.189V64.232H414.189H413.189V66.664H414.189ZM414.189 64.232V65.232H423.917V64.232V63.232H414.189V64.232ZM423.917 64.232H422.917V66.664H423.917H424.917V64.232H423.917ZM423.917 66.664V65.664H414.189V66.664V67.664H423.917V66.664ZM414.189 71.528H415.189V69.096H414.189H413.189V71.528H414.189ZM414.189 69.096V70.096H423.917V69.096V68.096H414.189V69.096ZM423.917 69.096H422.917V71.528H423.917H424.917V69.096H423.917ZM423.917 71.528V70.528H414.189V71.528V72.528H423.917V71.528ZM414.189 76.392H415.189V73.96H414.189H413.189V76.392H414.189ZM414.189 73.96V74.96H423.917V73.96V72.96H414.189V73.96ZM423.917 73.96H422.917V76.392H423.917H424.917V73.96H423.917ZM423.917 76.392V75.392H414.189V76.392V77.392H423.917V76.392ZM414.189 81.256H415.189V78.824H414.189H413.189V81.256H414.189ZM414.189 78.824V79.824H423.917V78.824V77.824H414.189V78.824ZM423.917 78.824H422.917V81.256H423.917H424.917V78.824H423.917ZM423.917 81.256V80.256H414.189V81.256V82.256H423.917V81.256ZM414.189 86.12H415.189V83.688H414.189H413.189V86.12H414.189ZM414.189 83.688V84.688H423.917V83.688V82.688H414.189V83.688ZM423.917 83.688H422.917V86.12H423.917H424.917V83.688H423.917ZM423.917 86.12V85.12H414.189V86.12V87.12H423.917V86.12ZM414.189 90.984H415.189V88.552H414.189H413.189V90.984H414.189ZM414.189 88.552V89.552H423.917V88.552V87.552H414.189V88.552ZM423.917 88.552H422.917V90.984H423.917H424.917V88.552H423.917ZM423.917 90.984V89.984H414.189V90.984V91.984H423.917V90.984ZM462.77 27.752H461.77V28.752H462.77V27.752ZM462.77 25.32V24.32H461.77V25.32H462.77ZM487.09 25.32H488.09V24.32H487.09V25.32ZM487.09 27.752V28.752H488.09V27.752H487.09ZM443.314 27.752H442.314V28.752H443.314V27.752ZM443.314 25.32V24.32H442.314V25.32H443.314ZM453.042 25.32H454.042V24.32H453.042V25.32ZM453.042 27.752V28.752H454.042V27.752H453.042ZM457.906 32.616H456.906V33.616H457.906V32.616ZM457.906 30.184V29.184H456.906V30.184H457.906ZM491.954 30.184H492.954V29.184H491.954V30.184ZM491.954 32.616V33.616H492.954V32.616H491.954ZM443.314 32.616H442.314V33.616H443.314V32.616ZM443.314 30.184V29.184H442.314V30.184H443.314ZM453.042 30.184H454.042V29.184H453.042V30.184ZM453.042 32.616V33.616H454.042V32.616H453.042ZM482.226 37.48H481.226V38.48H482.226V37.48ZM482.226 35.048V34.048H481.226V35.048H482.226ZM496.818 35.048H497.818V34.048H496.818V35.048ZM496.818 37.48V38.48H497.818V37.48H496.818ZM443.314 37.48H442.314V38.48H443.314V37.48ZM443.314 35.048V34.048H442.314V35.048H443.314ZM457.906 35.048H458.906V34.048H457.906V35.048ZM457.906 37.48V38.48H458.906V37.48H457.906ZM487.09 42.344H486.09V43.344H487.09V42.344ZM487.09 39.912V38.912H486.09V39.912H487.09ZM496.818 39.912H497.818V38.912H496.818V39.912ZM496.818 42.344V43.344H497.818V42.344H496.818ZM443.314 42.344H442.314V43.344H443.314V42.344ZM443.314 39.912V38.912H442.314V39.912H443.314ZM453.042 39.912H454.042V38.912H453.042V39.912ZM453.042 42.344V43.344H454.042V42.344H453.042ZM487.09 47.208H486.09V48.208H487.09V47.208ZM487.09 44.776V43.776H486.09V44.776H487.09ZM496.818 44.776H497.818V43.776H496.818V44.776ZM496.818 47.208V48.208H497.818V47.208H496.818ZM443.314 47.208H442.314V48.208H443.314V47.208ZM443.314 44.776V43.776H442.314V44.776H443.314ZM453.042 44.776H454.042V43.776H453.042V44.776ZM453.042 47.208V48.208H454.042V47.208H453.042ZM487.09 52.072H486.09V53.072H487.09V52.072ZM487.09 49.64V48.64H486.09V49.64H487.09ZM496.818 49.64H497.818V48.64H496.818V49.64ZM496.818 52.072V53.072H497.818V52.072H496.818ZM443.314 52.072H442.314V53.072H443.314V52.072ZM443.314 49.64V48.64H442.314V49.64H443.314ZM453.042 49.64H454.042V48.64H453.042V49.64ZM453.042 52.072V53.072H454.042V52.072H453.042ZM443.314 56.936H442.314V57.936H443.314V56.936ZM443.314 54.504V53.504H442.314V54.504H443.314ZM453.042 54.504H454.042V53.504H453.042V54.504ZM453.042 56.936V57.936H454.042V56.936H453.042ZM487.09 56.936H486.09V57.936H487.09V56.936ZM487.09 54.504V53.504H486.09V54.504H487.09ZM496.818 54.504H497.818V53.504H496.818V54.504ZM496.818 56.936V57.936H497.818V56.936H496.818ZM443.314 61.8H442.314V62.8H443.314V61.8ZM443.314 59.368V58.368H442.314V59.368H443.314ZM453.042 59.368H454.042V58.368H453.042V59.368ZM453.042 61.8V62.8H454.042V61.8H453.042ZM487.09 61.8H486.09V62.8H487.09V61.8ZM487.09 59.368V58.368H486.09V59.368H487.09ZM496.818 59.368H497.818V58.368H496.818V59.368ZM496.818 61.8V62.8H497.818V61.8H496.818ZM443.314 66.664H442.314V67.664H443.314V66.664ZM443.314 64.232V63.232H442.314V64.232H443.314ZM453.042 64.232H454.042V63.232H453.042V64.232ZM453.042 66.664V67.664H454.042V66.664H453.042ZM487.09 66.664H486.09V67.664H487.09V66.664ZM487.09 64.232V63.232H486.09V64.232H487.09ZM496.818 64.232H497.818V63.232H496.818V64.232ZM496.818 66.664V67.664H497.818V66.664H496.818ZM487.09 71.528H486.09V72.528H487.09V71.528ZM487.09 69.096V68.096H486.09V69.096H487.09ZM496.818 69.096H497.818V68.096H496.818V69.096ZM496.818 71.528V72.528H497.818V71.528H496.818ZM443.314 71.528H442.314V72.528H443.314V71.528ZM443.314 69.096V68.096H442.314V69.096H443.314ZM453.042 69.096H454.042V68.096H453.042V69.096ZM453.042 71.528V72.528H454.042V71.528H453.042ZM487.09 76.392H486.09V77.392H487.09V76.392ZM487.09 73.96V72.96H486.09V73.96H487.09ZM496.818 73.96H497.818V72.96H496.818V73.96ZM496.818 76.392V77.392H497.818V76.392H496.818ZM443.314 76.392H442.314V77.392H443.314V76.392ZM443.314 73.96V72.96H442.314V73.96H443.314ZM453.042 73.96H454.042V72.96H453.042V73.96ZM453.042 76.392V77.392H454.042V76.392H453.042ZM487.09 81.256H486.09V82.256H487.09V81.256ZM487.09 78.824V77.824H486.09V78.824H487.09ZM496.818 78.824H497.818V77.824H496.818V78.824ZM496.818 81.256V82.256H497.818V81.256H496.818ZM443.314 81.256H442.314V82.256H443.314V81.256ZM443.314 78.824V77.824H442.314V78.824H443.314ZM453.042 78.824H454.042V77.824H453.042V78.824ZM453.042 81.256V82.256H454.042V81.256H453.042ZM487.09 86.12H486.09V87.12H487.09V86.12ZM487.09 83.688V82.688H486.09V83.688H487.09ZM496.818 83.688H497.818V82.688H496.818V83.688ZM496.818 86.12V87.12H497.818V86.12H496.818ZM443.314 86.12H442.314V87.12H443.314V86.12ZM443.314 83.688V82.688H442.314V83.688H443.314ZM453.042 83.688H454.042V82.688H453.042V83.688ZM453.042 86.12V87.12H454.042V86.12H453.042ZM487.09 90.984H486.09V91.984H487.09V90.984ZM487.09 88.552V87.552H486.09V88.552H487.09ZM496.818 88.552H497.818V87.552H496.818V88.552ZM496.818 90.984V91.984H497.818V90.984H496.818ZM443.314 90.984H442.314V91.984H443.314V90.984ZM443.314 88.552V87.552H442.314V88.552H443.314ZM453.042 88.552H454.042V87.552H453.042V88.552ZM453.042 90.984V91.984H454.042V90.984H453.042ZM462.77 27.752H463.77V25.32H462.77H461.77V27.752H462.77ZM462.77 25.32V26.32H487.09V25.32V24.32H462.77V25.32ZM487.09 25.32H486.09V27.752H487.09H488.09V25.32H487.09ZM487.09 27.752V26.752H462.77V27.752V28.752H487.09V27.752ZM443.314 27.752H444.314V25.32H443.314H442.314V27.752H443.314ZM443.314 25.32V26.32H453.042V25.32V24.32H443.314V25.32ZM453.042 25.32H452.042V27.752H453.042H454.042V25.32H453.042ZM453.042 27.752V26.752H443.314V27.752V28.752H453.042V27.752ZM457.906 32.616H458.906V30.184H457.906H456.906V32.616H457.906ZM457.906 30.184V31.184H491.954V30.184V29.184H457.906V30.184ZM491.954 30.184H490.954V32.616H491.954H492.954V30.184H491.954ZM491.954 32.616V31.616H457.906V32.616V33.616H491.954V32.616ZM443.314 32.616H444.314V30.184H443.314H442.314V32.616H443.314ZM443.314 30.184V31.184H453.042V30.184V29.184H443.314V30.184ZM453.042 30.184H452.042V32.616H453.042H454.042V30.184H453.042ZM453.042 32.616V31.616H443.314V32.616V33.616H453.042V32.616ZM482.226 37.48H483.226V35.048H482.226H481.226V37.48H482.226ZM482.226 35.048V36.048H496.818V35.048V34.048H482.226V35.048ZM496.818 35.048H495.818V37.48H496.818H497.818V35.048H496.818ZM496.818 37.48V36.48H482.226V37.48V38.48H496.818V37.48ZM443.314 37.48H444.314V35.048H443.314H442.314V37.48H443.314ZM443.314 35.048V36.048H457.906V35.048V34.048H443.314V35.048ZM457.906 35.048H456.906V37.48H457.906H458.906V35.048H457.906ZM457.906 37.48V36.48H443.314V37.48V38.48H457.906V37.48ZM487.09 42.344H488.09V39.912H487.09H486.09V42.344H487.09ZM487.09 39.912V40.912H496.818V39.912V38.912H487.09V39.912ZM496.818 39.912H495.818V42.344H496.818H497.818V39.912H496.818ZM496.818 42.344V41.344H487.09V42.344V43.344H496.818V42.344ZM443.314 42.344H444.314V39.912H443.314H442.314V42.344H443.314ZM443.314 39.912V40.912H453.042V39.912V38.912H443.314V39.912ZM453.042 39.912H452.042V42.344H453.042H454.042V39.912H453.042ZM453.042 42.344V41.344H443.314V42.344V43.344H453.042V42.344ZM487.09 47.208H488.09V44.776H487.09H486.09V47.208H487.09ZM487.09 44.776V45.776H496.818V44.776V43.776H487.09V44.776ZM496.818 44.776H495.818V47.208H496.818H497.818V44.776H496.818ZM496.818 47.208V46.208H487.09V47.208V48.208H496.818V47.208ZM443.314 47.208H444.314V44.776H443.314H442.314V47.208H443.314ZM443.314 44.776V45.776H453.042V44.776V43.776H443.314V44.776ZM453.042 44.776H452.042V47.208H453.042H454.042V44.776H453.042ZM453.042 47.208V46.208H443.314V47.208V48.208H453.042V47.208ZM487.09 52.072H488.09V49.64H487.09H486.09V52.072H487.09ZM487.09 49.64V50.64H496.818V49.64V48.64H487.09V49.64ZM496.818 49.64H495.818V52.072H496.818H497.818V49.64H496.818ZM496.818 52.072V51.072H487.09V52.072V53.072H496.818V52.072ZM443.314 52.072H444.314V49.64H443.314H442.314V52.072H443.314ZM443.314 49.64V50.64H453.042V49.64V48.64H443.314V49.64ZM453.042 49.64H452.042V52.072H453.042H454.042V49.64H453.042ZM453.042 52.072V51.072H443.314V52.072V53.072H453.042V52.072ZM443.314 56.936H444.314V54.504H443.314H442.314V56.936H443.314ZM443.314 54.504V55.504H453.042V54.504V53.504H443.314V54.504ZM453.042 54.504H452.042V56.936H453.042H454.042V54.504H453.042ZM453.042 56.936V55.936H443.314V56.936V57.936H453.042V56.936ZM487.09 56.936H488.09V54.504H487.09H486.09V56.936H487.09ZM487.09 54.504V55.504H496.818V54.504V53.504H487.09V54.504ZM496.818 54.504H495.818V56.936H496.818H497.818V54.504H496.818ZM496.818 56.936V55.936H487.09V56.936V57.936H496.818V56.936ZM443.314 61.8H444.314V59.368H443.314H442.314V61.8H443.314ZM443.314 59.368V60.368H453.042V59.368V58.368H443.314V59.368ZM453.042 59.368H452.042V61.8H453.042H454.042V59.368H453.042ZM453.042 61.8V60.8H443.314V61.8V62.8H453.042V61.8ZM487.09 61.8H488.09V59.368H487.09H486.09V61.8H487.09ZM487.09 59.368V60.368H496.818V59.368V58.368H487.09V59.368ZM496.818 59.368H495.818V61.8H496.818H497.818V59.368H496.818ZM496.818 61.8V60.8H487.09V61.8V62.8H496.818V61.8ZM443.314 66.664H444.314V64.232H443.314H442.314V66.664H443.314ZM443.314 64.232V65.232H453.042V64.232V63.232H443.314V64.232ZM453.042 64.232H452.042V66.664H453.042H454.042V64.232H453.042ZM453.042 66.664V65.664H443.314V66.664V67.664H453.042V66.664ZM487.09 66.664H488.09V64.232H487.09H486.09V66.664H487.09ZM487.09 64.232V65.232H496.818V64.232V63.232H487.09V64.232ZM496.818 64.232H495.818V66.664H496.818H497.818V64.232H496.818ZM496.818 66.664V65.664H487.09V66.664V67.664H496.818V66.664ZM487.09 71.528H488.09V69.096H487.09H486.09V71.528H487.09ZM487.09 69.096V70.096H496.818V69.096V68.096H487.09V69.096ZM496.818 69.096H495.818V71.528H496.818H497.818V69.096H496.818ZM496.818 71.528V70.528H487.09V71.528V72.528H496.818V71.528ZM443.314 71.528H444.314V69.096H443.314H442.314V71.528H443.314ZM443.314 69.096V70.096H453.042V69.096V68.096H443.314V69.096ZM453.042 69.096H452.042V71.528H453.042H454.042V69.096H453.042ZM453.042 71.528V70.528H443.314V71.528V72.528H453.042V71.528ZM487.09 76.392H488.09V73.96H487.09H486.09V76.392H487.09ZM487.09 73.96V74.96H496.818V73.96V72.96H487.09V73.96ZM496.818 73.96H495.818V76.392H496.818H497.818V73.96H496.818ZM496.818 76.392V75.392H487.09V76.392V77.392H496.818V76.392ZM443.314 76.392H444.314V73.96H443.314H442.314V76.392H443.314ZM443.314 73.96V74.96H453.042V73.96V72.96H443.314V73.96ZM453.042 73.96H452.042V76.392H453.042H454.042V73.96H453.042ZM453.042 76.392V75.392H443.314V76.392V77.392H453.042V76.392ZM487.09 81.256H488.09V78.824H487.09H486.09V81.256H487.09ZM487.09 78.824V79.824H496.818V78.824V77.824H487.09V78.824ZM496.818 78.824H495.818V81.256H496.818H497.818V78.824H496.818ZM496.818 81.256V80.256H487.09V81.256V82.256H496.818V81.256ZM443.314 81.256H444.314V78.824H443.314H442.314V81.256H443.314ZM443.314 78.824V79.824H453.042V78.824V77.824H443.314V78.824ZM453.042 78.824H452.042V81.256H453.042H454.042V78.824H453.042ZM453.042 81.256V80.256H443.314V81.256V82.256H453.042V81.256ZM487.09 86.12H488.09V83.688H487.09H486.09V86.12H487.09ZM487.09 83.688V84.688H496.818V83.688V82.688H487.09V83.688ZM496.818 83.688H495.818V86.12H496.818H497.818V83.688H496.818ZM496.818 86.12V85.12H487.09V86.12V87.12H496.818V86.12ZM443.314 86.12H444.314V83.688H443.314H442.314V86.12H443.314ZM443.314 83.688V84.688H453.042V83.688V82.688H443.314V83.688ZM453.042 83.688H452.042V86.12H453.042H454.042V83.688H453.042ZM453.042 86.12V85.12H443.314V86.12V87.12H453.042V86.12ZM487.09 90.984H488.09V88.552H487.09H486.09V90.984H487.09ZM487.09 88.552V89.552H496.818V88.552V87.552H487.09V88.552ZM496.818 88.552H495.818V90.984H496.818H497.818V88.552H496.818ZM496.818 90.984V89.984H487.09V90.984V91.984H496.818V90.984ZM443.314 90.984H444.314V88.552H443.314H442.314V90.984H443.314ZM443.314 88.552V89.552H453.042V88.552V87.552H443.314V88.552ZM453.042 88.552H452.042V90.984H453.042H454.042V88.552H453.042ZM453.042 90.984V89.984H443.314V90.984V91.984H453.042V90.984Z" fill="black" fill-opacity="0.27" mask="url(#path-1-outside-1_3_13)"/>
</svg>
